<?xml version="1.0" encoding="UTF-8"?>
<svg width="227px" height="83px" viewBox="0 0 227 83" version="1.1" xmlns="http://www.w3.org/2000/svg" xmlns:xlink="http://www.w3.org/1999/xlink">
    <!-- Generator: Sketch 52.6 (67491) - http://www.bohemiancoding.com/sketch -->
    <title>btn-Avisos</title>
    <desc>Created with Sketch.</desc>
    <defs>
        <rect id="path-1" x="0" y="0" width="217" height="73" rx="5"></rect>
        <filter x="-3.0%" y="-8.9%" width="107.8%" height="123.3%" filterUnits="objectBoundingBox" id="filter-2">
            <feMorphology radius="0.5" operator="dilate" in="SourceAlpha" result="shadowSpreadOuter1"></feMorphology>
            <feOffset dx="2" dy="2" in="shadowSpreadOuter1" result="shadowOffsetOuter1"></feOffset>
            <feGaussianBlur stdDeviation="2" in="shadowOffsetOuter1" result="shadowBlurOuter1"></feGaussianBlur>
            <feColorMatrix values="0 0 0 0 0   0 0 0 0 0   0 0 0 0 0  0 0 0 0.3 0" type="matrix" in="shadowBlurOuter1"></feColorMatrix>
        </filter>
        <polygon id="path-3" points="0 0.0908298755 41.9850319 0.0908298755 41.9850319 50.1127922 0 50.1127922"></polygon>
        <polygon id="path-5" points="0.0461502604 0.00775821884 18.7434036 0.00775821884 18.7434036 20.3112033 0.0461502604 20.3112033"></polygon>
    </defs>
    <g id="Page-1" stroke="none" stroke-width="1" fill="none" fill-rule="evenodd">
        <g id="PAGINA-NUEVA-WEB-PODER-JUDICIAL-2025--Copy" transform="translate(-230.000000, -1530.000000)">
            <g id="btn-Avisos" transform="translate(233.000000, 1533.000000)">
                <g>
                    <g id="Rectangle-Copy-17">
                        <use fill="black" fill-opacity="1" filter="url(#filter-2)" xlink:href="#path-1"></use>
                        <use fill="#C90166" fill-rule="evenodd" xlink:href="#path-1"></use>
                    </g>
                    <path d="M104.998,45 L102.952,40.05 L92.227,40.05 L90.181,45 L84.703,45 L94.999,21.9 L100.279,21.9 L110.608,45 L104.998,45 Z M93.943,35.991 L101.269,35.991 L97.606,27.147 L93.943,35.991 Z M122.9445,27.246 L127.8945,27.246 L120.4035,45 L115.0905,45 L107.6325,27.246 L112.9455,27.246 L117.8625,39.324 L122.9445,27.246 Z M131.123,24.771 C129.209,24.771 127.922,23.517 127.922,21.9 C127.922,20.283 129.209,19.029 131.123,19.029 C133.037,19.029 134.324,20.217 134.324,21.801 C134.324,23.517 133.037,24.771 131.123,24.771 Z M128.549,45 L128.549,27.246 L133.697,27.246 L133.697,45 L128.549,45 Z M142.9975,45.264 C139.9945,45.264 136.9585,44.439 135.3085,43.35 L137.0245,39.654 C138.6085,40.677 141.0175,41.37 143.1955,41.37 C145.5715,41.37 146.4625,40.743 146.4625,39.753 C146.4625,36.849 135.7375,39.819 135.7375,32.724 C135.7375,29.358 138.7735,26.982 143.9545,26.982 C146.3965,26.982 149.1025,27.543 150.7855,28.533 L149.0695,32.196 C147.3205,31.206 145.5715,30.876 143.9545,30.876 C141.6445,30.876 140.6545,31.602 140.6545,32.526 C140.6545,35.562 151.3795,32.625 151.3795,39.621 C151.3795,42.921 148.3105,45.264 142.9975,45.264 Z M161.538,45.264 C155.895,45.264 151.77,41.469 151.77,36.123 C151.77,30.777 155.895,26.982 161.538,26.982 C167.181,26.982 171.273,30.777 171.273,36.123 C171.273,41.469 167.181,45.264 161.538,45.264 Z M161.538,41.04 C164.112,41.04 166.059,39.192 166.059,36.123 C166.059,33.054 164.112,31.206 161.538,31.206 C158.964,31.206 156.984,33.054 156.984,36.123 C156.984,39.192 158.964,41.04 161.538,41.04 Z M179.2205,45.264 C176.2175,45.264 173.1815,44.439 171.5315,43.35 L173.2475,39.654 C174.8315,40.677 177.2405,41.37 179.4185,41.37 C181.7945,41.37 182.6855,40.743 182.6855,39.753 C182.6855,36.849 171.9605,39.819 171.9605,32.724 C171.9605,29.358 174.9965,26.982 180.1775,26.982 C182.6195,26.982 185.3255,27.543 187.0085,28.533 L185.2925,32.196 C183.5435,31.206 181.7945,30.876 180.1775,30.876 C177.8675,30.876 176.8775,31.602 176.8775,32.526 C176.8775,35.562 187.6025,32.625 187.6025,39.621 C187.6025,42.921 184.5335,45.264 179.2205,45.264 Z" id="Avisos" fill="#FFFFFF"></path>
                    <g id="Group-19" transform="translate(23.000000, 9.000000)">
                        <g id="Group-3" transform="translate(0.000000, 0.137386)">
                            <mask id="mask-4" fill="white">
                                <use xlink:href="#path-3"></use>
                            </mask>
                            <g id="Clip-2"></g>
                            <path d="M41.9835351,38.670888 C41.147333,37.365722 40.2246734,36.2114066 39.0448755,35.2823402 C38.7801415,35.0739793 38.511833,34.8656183 38.2243117,34.6930871 C37.178333,34.0652656 36.1466521,33.4600373 35.1996415,32.6364066 C33.4387691,31.1050788 31.0454394,30.9848091 29.2367585,33.3283568 C29.0511096,33.5688963 28.7707372,33.7546639 28.4977372,33.8852033 C24.5901734,35.7554315 22.4720777,38.8694357 22.2187372,43.2710332 C22.1664606,44.179332 22.2122585,45.0933361 22.1955032,46.0041452 C22.1919287,46.2022365 22.1700351,46.4425477 22.0607904,46.5890622 C21.290716,47.6233361 20.8260351,48.7831286 20.6298862,50.0782531 C20.4643436,50.088751 20.3182372,50.1058672 20.1723543,50.1058672 C15.68595,50.1067801 11.1993223,50.1245809 6.71314149,50.099249 C3.47445,50.0809917 0.874694681,47.934166 0.170524468,44.7320705 C0.049662766,44.1818423 0.00810957447,43.6033154 0.00766276596,43.0382531 C-0.00127340426,31.0589793 -0.00149680851,19.0801618 0.00230106383,7.10111618 C0.00364148936,3.05621992 2.91415213,0.0942074689 6.88047128,0.0928381743 C16.2630032,0.0900995851 25.6453117,0.0900995851 35.0276202,0.0928381743 C39.0877691,0.0942074689 41.9788436,3.01582573 41.9813011,7.139 C41.9882266,17.5045602 41.9835351,27.8698921 41.9835351,38.2352241 L41.9835351,38.670888 Z M25.7363266,20.5002116 C28.2299649,20.5002116 30.72405,20.5177842 33.2174649,20.4830954 C33.6363479,20.47739 34.107284,20.3327012 34.4580287,20.100834 C35.1076883,19.671332 35.3074117,18.8645892 35.0692628,18.1327012 C34.8054223,17.3207095 34.134316,16.8629087 33.1618372,16.8622241 C28.2114223,16.8583444 23.2610074,16.8574315 18.3105926,16.8626805 C17.1220819,16.8638216 16.3111245,17.6178465 16.3100074,18.6888631 C16.3091138,19.7585104 17.1205181,20.4977012 18.3105926,20.4992988 C20.7856883,20.5024938 23.2610074,20.5002116 25.7363266,20.5002116 Z M25.7791085,25.9390498 C23.2664809,25.9383651 20.7540766,25.9347137 18.2416723,25.9399627 C17.1036511,25.942473 16.3027468,26.7072241 16.3101191,27.762722 C16.3172681,28.7883237 17.1175021,29.5729295 18.2126298,29.5747552 C23.2374383,29.582971 28.2624702,29.5900456 33.2872787,29.5574108 C33.7146511,29.5546722 34.1985447,29.3410622 34.553534,29.0804398 C35.1489064,28.6431784 35.3046191,27.8188631 35.0512787,27.1246307 C34.7907894,26.4107718 34.1576617,25.9458963 33.3721723,25.9431577 C30.8412255,25.9342573 28.3100553,25.9397344 25.7791085,25.9390498 Z M25.7539979,7.8360166 C23.2599128,7.8360166 20.7658277,7.83396266 18.2717426,7.83692946 C17.1238915,7.83829876 16.3207532,8.57817427 16.3100298,9.6323029 C16.299083,10.7028631 17.1189766,11.4746888 18.2925191,11.4756017 C23.2621468,11.4792531 28.2315511,11.4794813 33.2009553,11.4753734 C34.3427745,11.4742324 35.1526149,10.7183817 35.1651255,9.66995851 C35.178083,8.60304979 34.3537213,7.83784232 33.1801787,7.83670124 C30.7046362,7.83441909 28.229317,7.8360166 25.7539979,7.8360166 Z M7.03723404,9.61450207 C7.02293617,10.9833402 8.12431915,12.1193983 9.4763617,12.1303527 C10.7861809,12.1413071 11.9038723,11.0141494 11.9141489,9.67224066 C11.9244255,8.32325726 10.8456064,7.18742739 9.52841489,7.16049793 C8.17905319,7.1326556 7.05153191,8.24338174 7.03723404,9.61450207 Z M9.5148766,30.2204461 C10.8401106,30.2035581 11.9347915,29.0675 11.9140149,27.730612 C11.8927915,26.343973 10.7909617,25.2487656 9.43400426,25.2649689 C8.10765319,25.280944 7.03039787,26.3985166 7.0373234,27.7516079 C7.04424894,29.1261515 8.16015319,30.2380187 9.5148766,30.2204461 Z M9.4897883,21.1739274 C10.8101074,21.1723299 11.9141713,20.051334 11.9150649,18.711251 C11.9159585,17.3310021 10.8206074,16.2252967 9.45605426,16.2291763 C8.1250117,16.233056 7.04306489,17.3332842 7.03703298,18.6891141 C7.03122447,20.0693631 8.12300106,21.1755249 9.4897883,21.1739274 Z" id="Combined-Shape" fill="#FFFFFF" mask="url(#mask-4)"></path>
                        </g>
                        <g id="Group-6" transform="translate(23.234043, 34.597967)">
                            <mask id="mask-6" fill="white">
                                <use xlink:href="#path-5"></use>
                            </mask>
                            <g id="Clip-5"></g>
                            <path d="M11.1989202,18.3287158 C11.0380691,19.615168 10.3481968,20.3249191 9.34890957,20.3112261 C8.37285638,20.297305 7.70376064,19.5889232 7.55653723,18.355417 C7.37066489,18.3467448 7.17339894,18.3303133 6.97657979,18.3298568 C5.35689894,18.3278029 3.73721809,18.332139 2.11753723,18.3275747 C0.607994681,18.3234668 -0.124771277,17.4450643 0.0798670213,15.9125954 C0.210335106,14.9351473 0.63681383,14.123612 1.29987766,13.4115788 C1.47971809,13.2185083 1.62046277,12.9047116 1.62828191,12.6420353 C1.66559043,11.3711017 1.62604787,10.0978859 1.66067553,8.82672407 C1.74959043,5.52877801 4.03635638,2.53481535 7.14368617,1.6338195 C7.46985638,1.53933817 7.66756915,1.40309336 7.80585638,1.06122614 C8.08622872,0.368134855 8.64049468,0.00435892116 9.38398404,0.00778215768 C10.1259096,0.0107489627 10.6795053,0.374753112 10.9598777,1.06761618 C11.0901223,1.3891722 11.2715266,1.52747095 11.5771436,1.62126763 C14.7970691,2.60944191 16.9611862,5.41991909 17.1023777,8.83608091 C17.1548777,10.1061017 17.1072926,11.3802303 17.1437074,12.6509357 C17.1508564,12.8990062 17.2779734,13.1977407 17.4473138,13.3773465 C18.1572926,14.1304585 18.5826543,15.0074917 18.7189309,16.0397116 C18.8938564,17.3665581 18.1181968,18.312056 16.8034628,18.3241515 C15.1466968,18.3398983 13.4897074,18.3284876 11.8327181,18.3287158 L11.1989202,18.3287158 Z" id="Fill-4" fill="#FFFFFF" mask="url(#mask-6)"></path>
                        </g>
                    </g>
                </g>
            </g>
        </g>
    </g>
</svg>