<?xml version="1.0" encoding="UTF-8"?>
<svg width="51px" height="51px" viewBox="0 0 51 51" version="1.1" xmlns="http://www.w3.org/2000/svg" xmlns:xlink="http://www.w3.org/1999/xlink">
    <!-- Generator: Sketch 52.6 (67491) - http://www.bohemiancoding.com/sketch -->
    <title>btn-audio</title>
    <desc>Created with Sketch.</desc>
    <defs>
        <circle id="path-1" cx="18.5" cy="18.5" r="18.5"></circle>
        <filter x="-31.1%" y="-23.0%" width="167.6%" height="167.6%" filterUnits="objectBoundingBox" id="filter-2">
            <feOffset dx="1" dy="4" in="SourceAlpha" result="shadowOffsetOuter1"></feOffset>
            <feGaussianBlur stdDeviation="3.5" in="shadowOffsetOuter1" result="shadowBlurOuter1"></feGaussianBlur>
            <feColorMatrix values="0 0 0 0 0   0 0 0 0 0   0 0 0 0 0  0 0 0 0.32 0" type="matrix" in="shadowBlurOuter1"></feColorMatrix>
        </filter>
        <polygon id="path-3" points="0 0.07266 12.7053667 0.07266 12.7053667 20.4 0 20.4"></polygon>
    </defs>
    <g id="Page-1" stroke="none" stroke-width="1" fill="none" fill-rule="evenodd">
        <g id="PAGINA-NUEVA-WEB-PODER-JUDICIAL-2025-" transform="translate(-966.000000, -314.000000)">
            <g id="BOTONES-EXTERNOS" transform="translate(972.000000, 204.000000)">
                <g id="btn-audio" transform="translate(0.000000, 113.000000)">
                    <g id="Oval-Copy-2">
                        <use fill="black" fill-opacity="1" filter="url(#filter-2)" xlink:href="#path-1"></use>
                        <use fill="#D12874" fill-rule="evenodd" xlink:href="#path-1"></use>
                    </g>
                    <g id="Audio" transform="translate(9.000000, 8.000000)" fill-rule="evenodd" stroke-width="1">
                        <g>
                            <path d="M14.1723389,12.2178 L13.0026722,11.0688 C13.3106722,10.767 13.7237833,10.1202 13.9517278,9.3576 C14.3636167,8.076 13.9871722,6.8346 13.9828944,6.8226 L15.5620056,6.3378 C15.5846167,6.4074 16.1022278,8.064 15.5338944,9.831 C15.2075611,10.9224 14.6160056,11.7822 14.1723389,12.2178" id="Fill-1" fill="#FFFFFF"></path>
                            <path d="M15.90545,14.00802 L14.7443389,12.85182 C16.58745,11.06562 17.2437833,8.36742 16.4163389,5.97702 L17.9820056,5.45442 C19.01295,8.42982 18.1977278,11.78742 15.90545,14.00802" id="Fill-3" fill="#FFFFFF"></path>
                            <g id="Group-7" transform="translate(0.000000, 0.527640)">
                                <mask id="mask-4" fill="white">
                                    <use xlink:href="#path-3"></use>
                                </mask>
                                <g id="Clip-6"></g>
                                <path d="M9.98286667,8.86026 C9.56731111,9.39006 9.07842222,9.81006 8.60481111,10.21686 C7.82564444,10.88586 7.08925556,11.51766 6.7507,12.52986 C6.71281111,12.64266 6.67492222,12.76866 6.63458889,12.90186 C6.31192222,13.96506 5.77231111,15.74466 4.04897778,15.74466 C2.10442222,15.74466 2.09831111,13.73706 2.09525556,12.98166 C2.09525556,12.88866 2.09525556,12.80466 2.0922,12.73446 C2.09158889,10.84446 3.25636667,10.04286 4.02758889,9.51186 C4.30747778,9.31986 4.6552,9.07986 4.6552,8.95026 C4.6552,8.73966 4.23353333,8.58246 3.63708889,8.38326 C3.39386667,8.30166 3.14636667,8.21826 2.91781111,8.12046 C2.31403333,7.86066 1.95347778,7.23006 1.95347778,6.43326 C1.95347778,4.06026 3.92003333,2.12946 6.33697778,2.12946 C8.75392222,2.12946 10.7204778,4.06026 10.7204778,6.43326 C10.7204778,7.25706 10.7204778,7.85226 9.98286667,8.86026 M6.36508889,0.07266 C2.86831111,0.07266 0.0242,2.87706 0.0242,6.32346 C0.0235888889,6.39246 -0.0308,13.22766 0.0242,15.55746 C0.0462,16.75506 0.114033333,20.40006 3.88397778,20.40006 C5.39892222,20.40006 7.96375556,19.45386 7.96375556,15.90666 C7.96375556,13.91526 9.5502,11.88306 10.6159778,11.00286 C12.7053667,9.28446 12.7053667,7.43166 12.7053667,6.32466 C12.7053667,2.87706 9.86125556,0.07266 6.36508889,0.07266" id="Fill-5" fill="#FFFFFF" mask="url(#mask-4)"></path>
                            </g>
                            <path d="M6.3371,3.73974 C4.52821111,3.73974 3.05665556,5.18454 3.05665556,6.96114 C3.05665556,7.23354 3.1361,7.55994 3.35976667,7.65594 C3.56082222,7.74174 3.77837778,7.81434 3.99287778,7.88574 C4.77937778,8.14854 5.75837778,8.47614 5.75837778,9.47814 C5.75837778,10.17054 5.20043333,10.55454 4.66021111,10.92654 C3.93971111,11.42214 3.19415556,11.93514 3.19415556,13.24014 C3.19721111,13.30074 3.19782222,13.39734 3.19782222,13.50534 C3.2021,14.78034 3.40926667,15.18954 4.0491,15.18954 C4.88204444,15.18954 5.23404444,14.25234 5.5781,13.12014 C5.62087778,12.97854 5.66182222,12.84354 5.70215556,12.72174 C6.13604444,11.42574 7.06248889,10.63074 7.87832222,9.92934 C8.33237778,9.53994 8.76015556,9.17274 9.09871111,8.74134 C9.61754444,8.03154 9.61754444,7.71774 9.61754444,6.96114 C9.61754444,5.18454 8.14598889,3.73974 6.3371,3.73974" id="Fill-8" fill="#FFFFFF"></path>
                            <path d="M17.7298,16.11006 L16.6689111,14.86386 C19.5637444,12.48726 20.7187444,8.34426 19.4769667,4.78806 L21.0420222,4.26126 C22.5239667,8.50566 21.1923556,13.26726 17.7298,16.11006" id="Fill-10" fill="#FFFFFF"></path>
                        </g>
                    </g>
                </g>
            </g>
        </g>
    </g>
</svg>