<svg width="503" height="57" viewBox="0 0 503 57" fill="none" xmlns="http://www.w3.org/2000/svg">
<mask id="mask0_52_4670" style="mask-type:alpha" maskUnits="userSpaceOnUse" x="0" y="13" width="225" height="44">
<rect y="13.6479" width="224.789" height="43.3521" fill="#D9D9D9"/>
</mask>
<g mask="url(#mask0_52_4670)">
<path fill-rule="evenodd" clip-rule="evenodd" d="M52.8728 22.3184L53.4109 22.8565L47.5891 28.6785L41.7653 22.8565L42.3036 22.3184H39.0094L38.4711 22.8565L47.5891 31.9729L56.7053 22.8565L56.167 22.3184H52.8728Z" fill="#CCCCCC"/>
<path fill-rule="evenodd" clip-rule="evenodd" d="M81.171 22.3184L81.7095 22.8565L75.8841 28.6804L70.064 22.8565L70.6019 22.3184H67.3076L66.7696 22.8565L75.8841 31.9748L85.0039 22.8565L84.4655 22.3184H81.171Z" fill="#CCCCCC"/>
<path fill-rule="evenodd" clip-rule="evenodd" d="M24.5447 22.3184L25.0757 22.8494L19.2517 28.6712L13.4299 22.8494L13.9607 22.3184H10.6665L10.1357 22.8494L19.2517 31.9655L28.3699 22.8494L27.8389 22.3184H24.5447Z" fill="#CCCCCC"/>
<path fill-rule="evenodd" clip-rule="evenodd" d="M47.8688 22.3184L48.4069 22.8565L47.589 23.6767L46.769 22.8565L47.3084 22.3184H44.013L43.4746 22.8565L47.589 26.9709L51.7013 22.8565L51.1631 22.3184H47.8688Z" fill="#CCCCCC"/>
<path fill-rule="evenodd" clip-rule="evenodd" d="M76.1646 22.3184L76.704 22.8565L75.884 23.6782L75.0659 22.8565L75.604 22.3184H72.3099L71.7719 22.8565L75.884 26.9725L79.9985 22.8565L79.46 22.3184H76.1646Z" fill="#CCCCCC"/>
<path fill-rule="evenodd" clip-rule="evenodd" d="M96.5044 22.3184L95.9746 22.8485L104.267 31.1391L105.914 29.492L99.2688 22.8485L99.7987 22.3184H96.5044Z" fill="#CCCCCC"/>
<path fill-rule="evenodd" clip-rule="evenodd" d="M19.5424 22.3184L20.0738 22.8475L19.2535 23.669L18.4339 22.8475L18.963 22.3184H15.6716L15.1433 22.8475L19.2501 26.9635L23.3678 22.8475L22.8381 22.3184H19.5424Z" fill="#CCCCCC"/>
<path fill-rule="evenodd" clip-rule="evenodd" d="M166.106 22.3184L166.644 22.8565L160.822 28.6785L154.998 22.8565L155.536 22.3184H152.242L151.704 22.8565L160.822 31.9729L169.938 22.8565L169.4 22.3184H166.106Z" fill="#CCCCCC"/>
<path fill-rule="evenodd" clip-rule="evenodd" d="M194.404 22.3184L194.942 22.8565L189.117 28.6804L183.297 22.8565L183.835 22.3184H180.54L180.003 22.8565L189.117 31.9748L198.237 22.8565L197.698 22.3184H194.404Z" fill="#CCCCCC"/>
<path fill-rule="evenodd" clip-rule="evenodd" d="M137.777 22.3184L138.308 22.8494L132.484 28.6712L126.662 22.8494L127.193 22.3184H123.899L123.368 22.8494L132.484 31.9655L141.602 22.8494L141.071 22.3184H137.777Z" fill="#CCCCCC"/>
<path fill-rule="evenodd" clip-rule="evenodd" d="M108.746 22.3184L109.274 22.8465L102.628 29.4939L104.275 31.141L112.568 22.8465L112.04 22.3184H108.746Z" fill="#CCCCCC"/>
<path fill-rule="evenodd" clip-rule="evenodd" d="M161.102 22.3184L161.64 22.8565L160.822 23.6767L160.002 22.8565L160.541 22.3184H157.246L156.708 22.8565L160.822 26.9709L164.934 22.8565L164.396 22.3184H161.102Z" fill="#CCCCCC"/>
<path fill-rule="evenodd" clip-rule="evenodd" d="M189.397 22.3184L189.936 22.8565L189.116 23.6782L188.299 22.8565L188.837 22.3184H185.542L185.004 22.8565L189.116 26.9725L193.231 22.8565L192.692 22.3184H189.397Z" fill="#CCCCCC"/>
<path fill-rule="evenodd" clip-rule="evenodd" d="M90.1301 27.9787L98.4207 36.2749L96.7734 37.922L90.1301 31.2729L83.481 37.922L81.8339 36.2749L90.1301 27.9787Z" fill="#CCCCCC"/>
<path fill-rule="evenodd" clip-rule="evenodd" d="M90.1281 32.9844L93.4168 36.2752L91.7699 37.9223L90.1281 36.2787L88.4846 37.9223L86.8373 36.2752L90.1281 32.9844Z" fill="#CCCCCC"/>
<path fill-rule="evenodd" clip-rule="evenodd" d="M61.8257 27.9787L70.1185 36.2749L68.4712 37.922L61.8257 31.2729L55.1803 37.922L53.5332 36.2749L61.8257 27.9787Z" fill="#CCCCCC"/>
<path fill-rule="evenodd" clip-rule="evenodd" d="M61.8257 32.9844L65.1145 36.2752L63.4674 37.9223L61.8257 36.2787L60.1841 37.9223L58.537 36.2752L61.8257 32.9844Z" fill="#CCCCCC"/>
<path fill-rule="evenodd" clip-rule="evenodd" d="M4.81685 28.2671V31.5615L5.10511 31.273L11.7504 37.9221L13.3977 36.275L5.10511 27.9788L4.81685 28.2671Z" fill="#CCCCCC"/>
<path fill-rule="evenodd" clip-rule="evenodd" d="M4.81685 33.2728V36.5672L5.10511 36.2787L6.74668 37.9222L8.3938 36.2751L5.10511 32.9845L4.81685 33.2728Z" fill="#CCCCCC"/>
<path fill-rule="evenodd" clip-rule="evenodd" d="M33.4866 27.9787L41.7791 36.2749L40.132 37.922L33.4866 31.2729L26.8411 37.922L25.194 36.2749L33.4866 27.9787Z" fill="#CCCCCC"/>
<path fill-rule="evenodd" clip-rule="evenodd" d="M33.4867 32.9844L36.7756 36.2752L35.1285 37.9223L33.4867 36.2787L31.8432 37.9223L30.1959 36.2752L33.4867 32.9844Z" fill="#CCCCCC"/>
<path fill-rule="evenodd" clip-rule="evenodd" d="M175.058 27.9787L183.351 36.2749L181.704 37.922L175.058 31.2729L168.413 37.922L166.766 36.2749L175.058 27.9787Z" fill="#CCCCCC"/>
<path fill-rule="evenodd" clip-rule="evenodd" d="M175.058 32.9844L178.347 36.2752L176.7 37.9223L175.058 36.2787L173.417 37.9223L171.77 36.2752L175.058 32.9844Z" fill="#CCCCCC"/>
<path fill-rule="evenodd" clip-rule="evenodd" d="M146.72 27.9787L155.012 36.2749L153.365 37.922L146.72 31.2729L140.074 37.922L138.427 36.2749L146.72 27.9787Z" fill="#CCCCCC"/>
<path fill-rule="evenodd" clip-rule="evenodd" d="M146.719 32.9844L150.008 36.2752L148.361 37.9223L146.719 36.2787L145.076 37.9223L143.429 36.2752L146.719 32.9844Z" fill="#CCCCCC"/>
<path fill-rule="evenodd" clip-rule="evenodd" d="M124.328 37.0968L125.975 35.4497L120.159 29.6333L120.166 29.6258L118.519 27.9787L118.512 27.9862L118.504 27.9787L116.857 29.6258L116.864 29.6333L111.048 35.4497L112.695 37.0968L118.512 31.2804L124.328 37.0968Z" fill="#CCCCCC"/>
<path fill-rule="evenodd" clip-rule="evenodd" d="M119.329 37.0968L120.976 35.4497L120.158 34.6331L120.16 34.6316L118.513 32.9844L118.511 32.9865L118.509 32.9844L116.862 34.6316L116.864 34.6337L116.048 35.4497L117.695 37.0968L118.512 36.2802L119.329 37.0968Z" fill="#CCCCCC"/>
<path fill-rule="evenodd" clip-rule="evenodd" d="M132.775 22.3184L133.306 22.8475L132.486 23.669L131.666 22.8475L132.196 22.3184H128.904L128.376 22.8475L132.483 26.9635L136.601 22.8475L136.071 22.3184H132.775Z" fill="#CCCCCC"/>
<path fill-rule="evenodd" clip-rule="evenodd" d="M101.464 22.3184L100.973 22.8098L104.308 26.1364L107.598 22.8456L107.069 22.3184H101.464ZM104.266 22.8089L104.267 22.8085L104.302 22.8442L104.302 22.8446L104.266 22.8089Z" fill="#CCCCCC"/>
<path fill-rule="evenodd" clip-rule="evenodd" d="M201.016 22.3184L201.609 22.9116L189.104 35.4163L176.566 22.8796L177.126 22.3184H172.62L173.229 22.9269L160.783 35.3991L148.188 22.8047L148.674 22.3184H144.408L144.94 22.85L132.498 35.292L120.055 22.8486L120.585 22.3184H116.23L116.714 22.8027L104.138 35.3787L91.6707 22.9116L92.2639 22.3184H87.7832L88.3763 22.9116L75.871 35.4163L63.3337 22.8796L63.8938 22.3184H59.4796L60.0418 22.8806L47.5504 35.3991L35.0013 22.8506L35.5334 22.3184H31.1757L31.7072 22.85L19.2656 35.292L6.82224 22.8486L7.35247 22.3184H4.81685V24.8538L5.17493 24.4958L19.2656 38.5862L33.3545 24.4969L47.5521 38.6955L61.6889 24.5279L75.8714 38.7102L90.0234 24.5589L104.204 38.8056L118.408 24.4958L130.851 36.9391L132.452 38.5403L146.541 24.4512L160.785 38.6955L174.876 24.574L189.058 38.7563L203.256 24.5589L215.823 37.125H219.026L204.858 22.9577L205.497 22.3184H201.016Z" fill="#CCCCCC"/>
<path fill-rule="evenodd" clip-rule="evenodd" d="M222.52 22.3184L223.051 22.8494L217.227 28.6712L211.405 22.8494L211.936 22.3184H208.642L208.111 22.8494L217.227 31.9655L226.345 22.8494L225.814 22.3184H222.52Z" fill="#CCCCCC"/>
<path fill-rule="evenodd" clip-rule="evenodd" d="M217.517 22.3184L218.049 22.8475L217.229 23.669L216.409 22.8475L216.938 22.3184H213.647L213.118 22.8475L217.225 26.9635L221.343 22.8475L220.813 22.3184H217.517Z" fill="#CCCCCC"/>
<path fill-rule="evenodd" clip-rule="evenodd" d="M203.08 27.9787L211.373 36.2749L209.726 37.922L203.08 31.2729L196.435 37.922L194.788 36.2749L203.08 27.9787Z" fill="#CCCCCC"/>
<path fill-rule="evenodd" clip-rule="evenodd" d="M203.08 32.9844L206.369 36.2752L204.722 37.9223L203.08 36.2787L201.439 37.9223L199.791 36.2752L203.08 32.9844Z" fill="#CCCCCC"/>
<path fill-rule="evenodd" clip-rule="evenodd" d="M231.462 27.9787L239.754 36.2749L238.107 37.922L231.462 31.2729L224.816 37.922L223.169 36.2749L231.462 27.9787Z" fill="#CCCCCC"/>
<path fill-rule="evenodd" clip-rule="evenodd" d="M398.991 22.3184L399.584 22.9116L387.079 35.4163L374.541 22.8796L375.102 22.3184H370.595L371.204 22.9269L358.758 35.3991L346.163 22.8047L346.649 22.3184H342.383L342.915 22.85L330.473 35.292L318.03 22.8486L318.56 22.3184H314.205L314.69 22.8027L302.113 35.3787L289.646 22.9116L290.239 22.3184H285.758L286.351 22.9116L273.846 35.4163L261.309 22.8796L261.869 22.3184H257.455L258.017 22.8806L245.525 35.3991L232.976 22.8506L233.508 22.3184H229.151L229.682 22.85L217.241 35.292L204.797 22.8486L205.327 22.3184H200.973L201.503 22.8486L187.35 37.0007V37.1319L190.586 37.0591L203.15 24.4958L217.241 38.5862L231.33 24.4969L245.527 38.6955L259.664 24.5279L273.846 38.7102L287.998 24.5589L302.179 38.8056L316.383 24.4958L328.826 36.9391L330.427 38.5403L344.516 24.4512L358.76 38.6955L372.851 24.574L387.033 38.7563L401.231 24.5589L413.798 37.125H417.001L402.832 22.9577L403.472 22.3184H398.991Z" fill="#CCCCCC"/>
</g>
<mask id="mask1_52_4670" style="mask-type:alpha" maskUnits="userSpaceOnUse" x="282" y="13" width="221" height="44">
<rect x="282.581" y="13.6479" width="219.972" height="43.3521" fill="#D9D9D9"/>
</mask>
<g mask="url(#mask1_52_4670)">
<path fill-rule="evenodd" clip-rule="evenodd" d="M330.637 22.3184L331.175 22.8565L325.353 28.6785L319.529 22.8565L320.068 22.3184H316.774L316.235 22.8565L325.353 31.9729L334.469 22.8565L333.931 22.3184H330.637Z" fill="#CCCCCC"/>
<path fill-rule="evenodd" clip-rule="evenodd" d="M358.935 22.3184L359.474 22.8565L353.648 28.6804L347.828 22.8565L348.366 22.3184H345.072L344.534 22.8565L353.648 31.9748L362.768 22.8565L362.23 22.3184H358.935Z" fill="#CCCCCC"/>
<path fill-rule="evenodd" clip-rule="evenodd" d="M302.309 22.3184L302.84 22.8494L297.016 28.6712L291.194 22.8494L291.725 22.3184H288.431L287.9 22.8494L297.016 31.9655L306.134 22.8494L305.603 22.3184H302.309Z" fill="#CCCCCC"/>
<path fill-rule="evenodd" clip-rule="evenodd" d="M325.633 22.3184L326.171 22.8565L325.353 23.6767L324.533 22.8565L325.073 22.3184H321.777L321.239 22.8565L325.353 26.9709L329.465 22.8565L328.927 22.3184H325.633Z" fill="#CCCCCC"/>
<path fill-rule="evenodd" clip-rule="evenodd" d="M353.929 22.3184L354.468 22.8565L353.648 23.6782L352.83 22.8565L353.368 22.3184H350.074L349.536 22.8565L353.648 26.9725L357.763 22.8565L357.224 22.3184H353.929Z" fill="#CCCCCC"/>
<path fill-rule="evenodd" clip-rule="evenodd" d="M374.269 22.3184L373.739 22.8485L382.031 31.1391L383.678 29.492L377.033 22.8485L377.563 22.3184H374.269Z" fill="#CCCCCC"/>
<path fill-rule="evenodd" clip-rule="evenodd" d="M297.307 22.3184L297.838 22.8475L297.018 23.669L296.198 22.8475L296.727 22.3184H293.436L292.907 22.8475L297.014 26.9635L301.132 22.8475L300.602 22.3184H297.307Z" fill="#CCCCCC"/>
<path fill-rule="evenodd" clip-rule="evenodd" d="M443.87 22.3184L444.408 22.8565L438.586 28.6785L432.762 22.8565L433.301 22.3184H430.006L429.468 22.8565L438.586 31.9729L447.702 22.8565L447.164 22.3184H443.87Z" fill="#CCCCCC"/>
<path fill-rule="evenodd" clip-rule="evenodd" d="M472.168 22.3184L472.707 22.8565L466.881 28.6804L461.061 22.8565L461.599 22.3184H458.305L457.767 22.8565L466.881 31.9748L476.001 22.8565L475.463 22.3184H472.168Z" fill="#CCCCCC"/>
<path fill-rule="evenodd" clip-rule="evenodd" d="M415.541 22.3184L416.072 22.8494L410.248 28.6712L404.426 22.8494L404.957 22.3184H401.663L401.132 22.8494L410.248 31.9655L419.367 22.8494L418.836 22.3184H415.541Z" fill="#CCCCCC"/>
<path fill-rule="evenodd" clip-rule="evenodd" d="M386.51 22.3184L387.038 22.8465L380.392 29.4939L382.04 31.141L390.332 22.8465L389.804 22.3184H386.51Z" fill="#CCCCCC"/>
<path fill-rule="evenodd" clip-rule="evenodd" d="M438.866 22.3184L439.404 22.8565L438.586 23.6767L437.766 22.8565L438.305 22.3184H435.01L434.472 22.8565L438.586 26.9709L442.698 22.8565L442.16 22.3184H438.866Z" fill="#CCCCCC"/>
<path fill-rule="evenodd" clip-rule="evenodd" d="M467.161 22.3184L467.701 22.8565L466.881 23.6782L466.063 22.8565L466.601 22.3184H463.306L462.768 22.8565L466.881 26.9725L470.995 22.8565L470.456 22.3184H467.161Z" fill="#CCCCCC"/>
<path fill-rule="evenodd" clip-rule="evenodd" d="M367.894 27.9787L376.185 36.2749L374.538 37.922L367.894 31.2729L361.245 37.922L359.598 36.2749L367.894 27.9787Z" fill="#CCCCCC"/>
<path fill-rule="evenodd" clip-rule="evenodd" d="M367.892 32.9844L371.181 36.2752L369.534 37.9223L367.892 36.2787L366.249 37.9223L364.601 36.2752L367.892 32.9844Z" fill="#CCCCCC"/>
<path fill-rule="evenodd" clip-rule="evenodd" d="M339.59 27.9787L347.883 36.2749L346.235 37.922L339.59 31.2729L332.944 37.922L331.297 36.2749L339.59 27.9787Z" fill="#CCCCCC"/>
<path fill-rule="evenodd" clip-rule="evenodd" d="M339.59 32.9844L342.879 36.2752L341.232 37.9223L339.59 36.2787L337.948 37.9223L336.301 36.2752L339.59 32.9844Z" fill="#CCCCCC"/>
<path fill-rule="evenodd" clip-rule="evenodd" d="M282.581 28.2671V31.5615L282.869 31.273L289.515 37.9221L291.162 36.275L282.869 27.9788L282.581 28.2671Z" fill="#CCCCCC"/>
<path fill-rule="evenodd" clip-rule="evenodd" d="M282.581 33.2728V36.5672L282.869 36.2787L284.511 37.9222L286.158 36.2751L282.869 32.9845L282.581 33.2728Z" fill="#CCCCCC"/>
<path fill-rule="evenodd" clip-rule="evenodd" d="M311.251 27.9787L319.543 36.2749L317.896 37.922L311.251 31.2729L304.605 37.922L302.958 36.2749L311.251 27.9787Z" fill="#CCCCCC"/>
<path fill-rule="evenodd" clip-rule="evenodd" d="M311.251 32.9844L314.54 36.2752L312.893 37.9223L311.251 36.2787L309.607 37.9223L307.96 36.2752L311.251 32.9844Z" fill="#CCCCCC"/>
<path fill-rule="evenodd" clip-rule="evenodd" d="M452.822 27.9787L461.115 36.2749L459.468 37.922L452.822 31.2729L446.177 37.922L444.53 36.2749L452.822 27.9787Z" fill="#CCCCCC"/>
<path fill-rule="evenodd" clip-rule="evenodd" d="M452.823 32.9844L456.111 36.2752L454.464 37.9223L452.823 36.2787L451.181 37.9223L449.534 36.2752L452.823 32.9844Z" fill="#CCCCCC"/>
<path fill-rule="evenodd" clip-rule="evenodd" d="M424.484 27.9787L432.776 36.2749L431.129 37.922L424.484 31.2729L417.838 37.922L416.191 36.2749L424.484 27.9787Z" fill="#CCCCCC"/>
<path fill-rule="evenodd" clip-rule="evenodd" d="M424.483 32.9844L427.772 36.2752L426.125 37.9223L424.483 36.2787L422.84 37.9223L421.193 36.2752L424.483 32.9844Z" fill="#CCCCCC"/>
<path fill-rule="evenodd" clip-rule="evenodd" d="M402.092 37.0968L403.739 35.4497L397.923 29.6333L397.93 29.6258L396.283 27.9787L396.276 27.9862L396.268 27.9787L394.621 29.6258L394.628 29.6333L388.812 35.4497L390.459 37.0968L396.276 31.2804L402.092 37.0968Z" fill="#CCCCCC"/>
<path fill-rule="evenodd" clip-rule="evenodd" d="M397.093 37.0968L398.74 35.4497L397.923 34.6331L397.924 34.6316L396.277 32.9844L396.275 32.9865L396.273 32.9844L394.626 34.6316L394.628 34.6337L393.812 35.4497L395.459 37.0968L396.276 36.2802L397.093 37.0968Z" fill="#CCCCCC"/>
<path fill-rule="evenodd" clip-rule="evenodd" d="M410.539 22.3184L411.07 22.8475L410.25 23.669L409.431 22.8475L409.96 22.3184H406.668L406.14 22.8475L410.247 26.9635L414.365 22.8475L413.835 22.3184H410.539Z" fill="#CCCCCC"/>
<path fill-rule="evenodd" clip-rule="evenodd" d="M379.228 22.3184L378.737 22.8098L382.072 26.1364L385.362 22.8456L384.833 22.3184H379.228ZM382.03 22.8089L382.031 22.8085L382.066 22.8442L382.066 22.8446L382.03 22.8089Z" fill="#CCCCCC"/>
<path fill-rule="evenodd" clip-rule="evenodd" d="M478.78 22.3184L479.373 22.9116L466.868 35.4163L454.33 22.8796L454.891 22.3184H450.385L450.993 22.9269L438.547 35.3991L425.952 22.8047L426.438 22.3184H422.173L422.704 22.85L410.262 35.292L397.819 22.8486L398.349 22.3184H393.994L394.479 22.8027L381.902 35.3787L369.435 22.9116L370.028 22.3184H365.547L366.14 22.9116L353.635 35.4163L341.098 22.8796L341.658 22.3184H337.244L337.806 22.8806L325.315 35.3991L312.765 22.8506L313.298 22.3184H308.94L309.471 22.85L297.03 35.292L284.586 22.8486L285.117 22.3184H282.581V24.8538L282.939 24.4958L297.03 38.5862L311.119 24.4969L325.316 38.6955L339.453 24.5279L353.636 38.7102L367.788 24.5589L381.968 38.8056L396.172 24.4958L408.615 36.9391L410.216 38.5403L424.305 24.4512L438.549 38.6955L452.64 24.574L466.822 38.7563L481.021 24.5589L493.587 37.125H496.79L482.622 22.9577L483.261 22.3184H478.78Z" fill="#CCCCCC"/>
<path fill-rule="evenodd" clip-rule="evenodd" d="M500.284 22.3184L500.815 22.8494L494.991 28.6712L489.169 22.8494L489.7 22.3184H486.406L485.875 22.8494L494.991 31.9655L504.109 22.8494L503.578 22.3184H500.284Z" fill="#CCCCCC"/>
<path fill-rule="evenodd" clip-rule="evenodd" d="M495.282 22.3184L495.813 22.8475L494.993 23.669L494.173 22.8475L494.702 22.3184H491.411L490.883 22.8475L494.989 26.9635L499.107 22.8475L498.577 22.3184H495.282Z" fill="#CCCCCC"/>
<path fill-rule="evenodd" clip-rule="evenodd" d="M480.844 27.9787L489.137 36.2749L487.49 37.922L480.844 31.2729L474.199 37.922L472.552 36.2749L480.844 27.9787Z" fill="#CCCCCC"/>
<path fill-rule="evenodd" clip-rule="evenodd" d="M480.844 32.9844L484.133 36.2752L482.486 37.9223L480.844 36.2787L479.203 37.9223L477.556 36.2752L480.844 32.9844Z" fill="#CCCCCC"/>
<path fill-rule="evenodd" clip-rule="evenodd" d="M509.226 27.9787L517.518 36.2749L515.871 37.922L509.226 31.2729L502.58 37.922L500.933 36.2749L509.226 27.9787Z" fill="#CCCCCC"/>
<path fill-rule="evenodd" clip-rule="evenodd" d="M676.755 22.3184L677.348 22.9116L664.843 35.4163L652.306 22.8796L652.866 22.3184H648.359L648.968 22.9269L636.522 35.3991L623.927 22.8047L624.413 22.3184H620.148L620.679 22.85L608.237 35.292L595.794 22.8486L596.324 22.3184H591.969L592.454 22.8027L579.877 35.3787L567.41 22.9116L568.003 22.3184H563.522L564.115 22.9116L551.61 35.4163L539.073 22.8796L539.633 22.3184H535.219L535.781 22.8806L523.29 35.3991L510.74 22.8506L511.273 22.3184H506.915L507.446 22.85L495.005 35.292L482.561 22.8486L483.092 22.3184H478.737L479.267 22.8486L465.115 37.0007V37.1319L468.35 37.0591L480.914 24.4958L495.005 38.5862L509.094 24.4969L523.291 38.6955L537.428 24.5279L551.61 38.7102L565.763 24.5589L579.943 38.8056L594.147 24.4958L606.59 36.9391L608.191 38.5403L622.28 24.4512L636.524 38.6955L650.615 24.574L664.797 38.7563L678.996 24.5589L691.562 37.125H694.765L680.597 22.9577L681.236 22.3184H676.755Z" fill="#CCCCCC"/>
</g>
<path fill-rule="evenodd" clip-rule="evenodd" d="M252.091 7.19187L253.7 8.79847L255.308 7.19187L253.7 5.58528L252.091 7.19187ZM253.7 10.241L250.647 7.1918L253.7 4.14258L256.753 7.1918L253.7 10.241Z" fill="#009584"/>
<path fill-rule="evenodd" clip-rule="evenodd" d="M254 6.85475V6.10822H253.701H253.4V6.85475H252.653V7.45437H253.4V8.20091H254V7.45437H254.747V6.85475H254Z" fill="#009584"/>
<path fill-rule="evenodd" clip-rule="evenodd" d="M253.7 12.6564L245.292 4.25698L249.553 0L253.304 3.74633L250.251 6.79589L247.664 4.21096L249.534 2.34222L250.992 3.79815L250.27 4.51946L249.534 3.78485L249.108 4.21096L250.251 5.35292L251.859 3.74633L249.553 1.44263L246.736 4.25698L253.7 11.2138L260.664 4.25698L257.847 1.44263L255.541 3.74633L257.149 5.35292L258.292 4.21096L257.866 3.78485L257.13 4.51946L256.408 3.79815L257.866 2.34222L259.737 4.21096L257.149 6.79589L254.096 3.74633L257.847 0L262.109 4.25698L253.7 12.6564Z" fill="#C71D69"/>
<path fill-rule="evenodd" clip-rule="evenodd" d="M253.16 19.4482H254.181V14.2927H253.16V19.4482Z" fill="#009584"/>
<path fill-rule="evenodd" clip-rule="evenodd" d="M249.789 22.478H257.506V21.4577H249.789V22.478Z" fill="#C71D69"/>
<path fill-rule="evenodd" clip-rule="evenodd" d="M251.96 20.963H255.335V19.9431H251.96V20.963Z" fill="#C71D69"/>
<path fill-rule="evenodd" clip-rule="evenodd" d="M262.394 11.3192L261.484 12.2284L260.574 11.3192L261.484 10.4101L262.394 11.3192Z" fill="#C71D69"/>
<path fill-rule="evenodd" clip-rule="evenodd" d="M260.88 6.85282L260.871 6.86168L260.631 6.62L253.682 13.5158L246.734 6.62L246.494 6.86168L246.485 6.85282L242.359 11.0328L245.858 14.5534L249.121 11.3133L246.74 8.93802L246.019 9.65967L247.674 11.3116L245.862 13.1105L243.796 11.0304L246.732 8.05512L253.437 14.7099L253.682 14.4627L253.928 14.7099L260.633 8.05546L263.57 11.0304L261.502 13.1105L259.691 11.3116L261.346 9.65967L260.624 8.93802L258.244 11.3133L261.508 14.5534L265.006 11.0328L260.88 6.85282Z" fill="#009584"/>
<path fill-rule="evenodd" clip-rule="evenodd" d="M244.971 11.3192L245.881 12.2284L246.791 11.3192L245.881 10.4101L244.971 11.3192Z" fill="#C71D69"/>
<path fill-rule="evenodd" clip-rule="evenodd" d="M232.28 26.0293C231.497 26.0944 231.399 26.1704 231.399 27.0935V30.8395C231.399 32.1536 231.247 33.0877 230.356 33.8475C229.943 34.2061 229.519 34.4014 229.149 34.5098L228.997 34.1407C229.584 33.8693 229.91 33.4459 230.019 32.7836C230.117 32.2078 230.138 31.5346 230.138 30.6878V27.0935C230.138 26.1704 230.041 26.0944 229.193 26.0293V25.671H232.28V26.0293Z" fill="#1E1E1C"/>
<path fill-rule="evenodd" clip-rule="evenodd" d="M240.954 26.0293C240.335 26.0617 240.074 26.2573 240.019 26.6698C239.976 26.9848 239.943 27.4082 239.943 28.2662V29.341C239.943 30.5358 239.758 31.4586 239.139 32.1103C238.639 32.6316 237.9 32.892 237.15 32.892C236.465 32.892 235.802 32.74 235.291 32.349C234.671 31.8605 234.367 31.057 234.367 29.7865V27.1692C234.367 26.1595 234.269 26.1053 233.443 26.0293V25.671H236.552V26.0293C235.736 26.0944 235.639 26.1595 235.639 27.1692V29.569C235.639 31.2414 236.258 32.2078 237.497 32.2078C238.889 32.2078 239.433 31.1112 239.433 29.2977V28.2662C239.433 27.4191 239.378 26.9848 239.335 26.648C239.27 26.2573 239.03 26.0726 238.28 26.0293V25.671H240.954V26.0293Z" fill="#1E1E1C"/>
<path fill-rule="evenodd" clip-rule="evenodd" d="M245.933 27.3975C245.716 26.7133 245.346 25.9317 244.444 25.9317C243.759 25.9317 243.335 26.4311 243.335 27.0392C243.335 27.7125 243.781 28.0707 244.705 28.5268C245.738 29.0481 246.607 29.6129 246.607 30.7419C246.607 31.9473 245.585 32.8922 244.042 32.8922C243.629 32.8922 243.259 32.8268 242.966 32.7293C242.672 32.6424 242.476 32.5663 242.346 32.5012C242.248 32.2404 242.107 31.3282 242.031 30.7204L242.4 30.6117C242.596 31.2959 243.183 32.4685 244.248 32.4685C244.977 32.4685 245.422 31.9909 245.422 31.2631C245.422 30.5681 244.901 30.1665 244.085 29.7428C243.118 29.2434 242.227 28.668 242.227 27.5604C242.227 26.4311 243.129 25.5083 244.618 25.5083C245.248 25.5083 245.803 25.6927 246.085 25.7793C246.129 26.1812 246.194 26.6373 246.281 27.3215L245.933 27.3975Z" fill="#1E1E1C"/>
<path fill-rule="evenodd" clip-rule="evenodd" d="M253.651 27.4625C253.521 26.9195 253.39 26.5827 253.227 26.3982C253.032 26.1811 252.792 26.116 252.086 26.116H251.499V31.3176C251.499 32.2189 251.597 32.3058 252.586 32.3818V32.7292H249.194V32.3818C250.13 32.3058 250.238 32.2189 250.238 31.3176V26.116H249.749C248.857 26.116 248.651 26.2138 248.499 26.4201C248.336 26.6048 248.216 26.9522 248.086 27.4734H247.716C247.759 26.735 247.825 25.964 247.846 25.3991H248.097C248.26 25.649 248.401 25.6708 248.705 25.6708H253.053C253.336 25.6708 253.467 25.6057 253.651 25.3991H253.901C253.901 25.8661 253.956 26.7674 254.01 27.441L253.651 27.4625Z" fill="#1E1E1C"/>
<path fill-rule="evenodd" clip-rule="evenodd" d="M255.238 32.7293V32.3819C256.076 32.3059 256.173 32.2404 256.173 31.3177V27.0934C256.173 26.1706 256.076 26.0946 255.238 26.0295V25.6709H258.358V26.0295C257.521 26.0946 257.434 26.1706 257.434 27.0934V31.3177C257.434 32.2299 257.521 32.3059 258.358 32.3819V32.7293H255.238Z" fill="#1E1E1C"/>
<path fill-rule="evenodd" clip-rule="evenodd" d="M266.315 30.8942C266.163 31.4154 265.891 32.2407 265.706 32.6098C265.413 32.675 264.446 32.8921 263.685 32.8921C260.869 32.8921 259.663 31.0135 259.663 29.2978C259.663 27.0391 261.391 25.5082 263.934 25.5082C264.815 25.5082 265.598 25.7362 265.891 25.8013C265.978 26.3986 266.054 26.8871 266.13 27.5279L265.75 27.6039C265.424 26.3658 264.652 25.9534 263.696 25.9534C262.032 25.9534 261.13 27.4519 261.13 29.0807C261.13 31.0786 262.239 32.4251 263.783 32.4251C264.772 32.4251 265.402 31.8388 265.956 30.7527L266.315 30.8942Z" fill="#1E1E1C"/>
<path fill-rule="evenodd" clip-rule="evenodd" d="M267.468 32.7293V32.3819C268.305 32.3059 268.402 32.2404 268.402 31.3177V27.0934C268.402 26.1706 268.305 26.0946 267.468 26.0295V25.6709H270.588V26.0295C269.75 26.0946 269.664 26.1706 269.664 27.0934V31.3177C269.664 32.2299 269.75 32.3059 270.588 32.3819V32.7293H267.468Z" fill="#1E1E1C"/>
<path fill-rule="evenodd" clip-rule="evenodd" d="M274.642 27.2888H274.61C274.294 28.125 274.001 28.9718 273.696 29.7865H275.501L274.642 27.2888ZM275.621 32.729V32.3817C276.273 32.2842 276.338 32.1645 276.186 31.7084C276.066 31.3502 275.882 30.8398 275.686 30.3186H273.523C273.381 30.7202 273.229 31.133 273.099 31.5673C272.914 32.1536 272.968 32.2842 273.762 32.3817V32.729H271.359V32.3817C272.066 32.2842 272.207 32.1863 272.577 31.2523L274.805 25.6383L275.284 25.5081C275.979 27.3976 276.664 29.3522 277.371 31.2199C277.729 32.1751 277.871 32.2951 278.567 32.3817V32.729H275.621Z" fill="#1E1E1C"/>
<path fill-rule="evenodd" clip-rule="evenodd" d="M231.229 37.4936C231.256 37.4936 231.279 37.5038 231.298 37.5246L231.485 37.7292C231.354 37.8836 231.195 38.0029 231.007 38.0874C230.82 38.1716 230.594 38.2139 230.329 38.2139C230.098 38.2139 229.888 38.174 229.701 38.0939C229.513 38.0138 229.353 37.902 229.22 37.7581C229.088 37.6143 228.985 37.4425 228.912 37.2424C228.839 37.0423 228.803 36.8224 228.803 36.5821C228.803 36.3421 228.841 36.1219 228.918 35.9218C228.994 35.7217 229.101 35.5495 229.239 35.406C229.377 35.2625 229.542 35.15 229.734 35.0702C229.927 34.9901 230.139 34.9503 230.372 34.9503C230.599 34.9503 230.801 34.9871 230.977 35.0614C231.154 35.1357 231.307 35.2342 231.438 35.3569L231.282 35.5771C231.272 35.5935 231.259 35.6068 231.243 35.6174C231.228 35.6276 231.207 35.6327 231.182 35.6327C231.154 35.6327 231.121 35.6187 231.083 35.5904C231.045 35.5625 230.995 35.5308 230.934 35.496C230.872 35.4612 230.796 35.4295 230.706 35.4016C230.615 35.3733 230.502 35.3593 230.368 35.3593C230.209 35.3593 230.063 35.3869 229.931 35.4428C229.799 35.4981 229.685 35.5782 229.59 35.6828C229.494 35.7871 229.42 35.9156 229.367 36.0673C229.315 36.2194 229.288 36.3908 229.288 36.5821C229.288 36.7764 229.316 36.9489 229.37 37.1002C229.425 37.2512 229.501 37.3794 229.597 37.4847C229.694 37.5901 229.807 37.6702 229.938 37.7247C230.069 37.7796 230.21 37.8069 230.361 37.8069C230.453 37.8069 230.535 37.8014 230.609 37.7905C230.682 37.7793 230.75 37.7626 230.811 37.7404C230.873 37.7182 230.931 37.6896 230.986 37.6548C231.041 37.6201 231.095 37.5781 231.149 37.5291C231.161 37.5188 231.173 37.5103 231.187 37.5035C231.2 37.497 231.214 37.4936 231.229 37.4936" fill="#DB0962"/>
<path fill-rule="evenodd" clip-rule="evenodd" d="M235.195 36.582C235.195 36.3922 235.169 36.2217 235.117 36.0707C235.065 35.9194 234.991 35.7912 234.895 35.6859C234.8 35.5809 234.684 35.5001 234.548 35.4438C234.413 35.3876 234.261 35.3593 234.093 35.3593C233.926 35.3593 233.774 35.3876 233.638 35.4438C233.502 35.5001 233.386 35.5809 233.29 35.6859C233.193 35.7912 233.119 35.9194 233.067 36.0707C233.015 36.2217 232.989 36.3922 232.989 36.582C232.989 36.7733 233.015 36.9441 233.067 37.0944C233.119 37.2447 233.193 37.3726 233.29 37.4779C233.386 37.5832 233.502 37.6637 233.638 37.7189C233.774 37.7748 233.926 37.8024 234.093 37.8024C234.261 37.8024 234.413 37.7748 234.548 37.7189C234.684 37.6637 234.8 37.5832 234.895 37.4779C234.991 37.3726 235.065 37.2447 235.117 37.0944C235.169 36.9441 235.195 36.7733 235.195 36.582M235.68 36.5822C235.68 36.8208 235.642 37.0396 235.565 37.2391C235.489 37.4385 235.381 37.6103 235.241 37.7548C235.102 37.8994 234.935 38.0115 234.741 38.0916C234.546 38.1717 234.33 38.2119 234.093 38.2119C233.857 38.2119 233.641 38.1717 233.447 38.0916C233.251 38.0115 233.084 37.8994 232.946 37.7548C232.807 37.6103 232.699 37.4385 232.622 37.2391C232.545 37.0396 232.506 36.8208 232.506 36.5822C232.506 36.3449 232.545 36.1264 232.622 35.9263C232.699 35.7262 232.807 35.5537 232.946 35.4095C233.084 35.2646 233.251 35.1522 233.447 35.0714C233.641 34.9906 233.857 34.95 234.093 34.95C234.33 34.95 234.546 34.9906 234.741 35.0714C234.935 35.1522 235.102 35.2646 235.241 35.4095C235.381 35.5537 235.489 35.7262 235.565 35.9263C235.642 36.1264 235.68 36.3449 235.68 36.5822" fill="#DB0962"/>
<path fill-rule="evenodd" clip-rule="evenodd" d="M239.693 34.9857V38.1785H239.452C239.415 38.1785 239.384 38.1716 239.36 38.1583C239.335 38.145 239.31 38.1236 239.286 38.0939L237.48 35.7616C237.483 35.8018 237.486 35.841 237.488 35.8795C237.491 35.918 237.492 35.9542 237.492 35.9883V38.1785H237.075V34.9857H237.32C237.362 34.9857 237.393 34.9905 237.413 35C237.434 35.0099 237.457 35.0317 237.482 35.0658L239.292 37.4002C239.288 37.3573 239.284 37.3153 239.282 37.2744C239.28 37.2339 239.279 37.1957 239.279 37.1599V34.9857H239.693Z" fill="#DB0962"/>
<path fill-rule="evenodd" clip-rule="evenodd" d="M245.864 34.939V38.1785H245.107V36.8088H243.79V38.1785H243.033V34.939H243.79V36.2934H245.107V34.939H245.864Z" fill="#DB0962"/>
<path fill-rule="evenodd" clip-rule="evenodd" d="M248.646 37.5849C248.747 37.5849 248.837 37.5682 248.917 37.5347C248.996 37.5013 249.063 37.4536 249.118 37.3912C249.173 37.3292 249.215 37.2532 249.244 37.1635C249.273 37.0739 249.287 36.9719 249.287 36.8577V34.9389H250.04V36.8577C250.04 37.0565 250.007 37.2385 249.943 37.4049C249.878 37.5705 249.786 37.7137 249.666 37.8337C249.545 37.954 249.399 38.0471 249.227 38.1139C249.055 38.1807 248.862 38.2141 248.646 38.2141C248.43 38.2141 248.235 38.1807 248.063 38.1139C247.891 38.0471 247.745 37.954 247.625 37.8337C247.504 37.7137 247.413 37.5705 247.348 37.4049C247.285 37.2385 247.253 37.0565 247.253 36.8577V34.9389H248.005V36.8554C248.005 36.9699 248.02 37.0715 248.049 37.1611C248.078 37.2511 248.12 37.3275 248.174 37.3902C248.229 37.4533 248.296 37.5013 248.376 37.5347C248.455 37.5682 248.545 37.5849 248.646 37.5849" fill="#DB0962"/>
<path fill-rule="evenodd" clip-rule="evenodd" d="M255.074 34.939V38.1785H254.411V36.3152C254.411 36.2722 254.412 36.2255 254.414 36.1754C254.416 36.125 254.42 36.0738 254.426 36.0217L253.565 37.6872C253.538 37.7387 253.502 37.7783 253.457 37.8049C253.412 37.8314 253.36 37.8447 253.302 37.8447H253.2C253.142 37.8447 253.09 37.8314 253.045 37.8049C253 37.7783 252.964 37.7387 252.937 37.6872L252.076 36.0176C252.081 36.0708 252.084 36.1229 252.087 36.1744C252.09 36.2252 252.091 36.2722 252.091 36.3152V38.1785H251.428V34.939H252.002C252.035 34.939 252.064 34.94 252.088 34.9414C252.113 34.9428 252.134 34.9472 252.154 34.9547C252.173 34.9622 252.19 34.9738 252.206 34.9891C252.222 35.0048 252.237 35.0266 252.252 35.0546L253.087 36.6977C253.116 36.7542 253.145 36.8125 253.172 36.8732C253.2 36.9342 253.226 36.9963 253.251 37.06C253.276 36.9949 253.303 36.9312 253.33 36.8688C253.358 36.8067 253.387 36.7474 253.418 36.6912L254.25 35.0546C254.265 35.0266 254.281 35.0048 254.296 34.9891C254.312 34.9738 254.329 34.9622 254.348 34.9547C254.368 34.9472 254.389 34.9428 254.414 34.9414C254.439 34.94 254.467 34.939 254.499 34.939H255.074Z" fill="#DB0962"/>
<path fill-rule="evenodd" clip-rule="evenodd" d="M258.216 36.94L257.915 36.0531C257.893 35.9965 257.869 35.9303 257.844 35.854C257.819 35.7776 257.794 35.6951 257.768 35.6062C257.746 35.6965 257.723 35.7804 257.697 35.8574C257.672 35.9344 257.649 36.0012 257.626 36.0575L257.328 36.94H258.216ZM259.411 38.1785H258.828C258.763 38.1785 258.71 38.1631 258.67 38.1328C258.63 38.1024 258.599 38.0636 258.579 38.0162L258.388 37.4514H257.155L256.963 38.0162C256.946 38.0578 256.917 38.0949 256.875 38.1284C256.833 38.1618 256.781 38.1785 256.718 38.1785H256.131L257.386 34.939H258.156L259.411 38.1785Z" fill="#DB0962"/>
<path fill-rule="evenodd" clip-rule="evenodd" d="M263.299 34.939V38.1785H262.908C262.85 38.1785 262.801 38.1693 262.762 38.1505C262.723 38.1321 262.683 38.0997 262.645 38.054L261.116 36.1219C261.122 36.1798 261.126 36.2358 261.128 36.29C261.131 36.3438 261.131 36.3946 261.131 36.442V38.1785H260.468V34.939H260.865C260.897 34.939 260.925 34.9407 260.947 34.9435C260.969 34.9465 260.989 34.9523 261.007 34.9602C261.025 34.9683 261.042 34.9799 261.058 34.9949C261.074 35.0096 261.093 35.0297 261.114 35.0546L262.656 37C262.649 36.938 262.643 36.8776 262.64 36.819C262.638 36.7604 262.636 36.7052 262.636 36.6533V34.939H263.299Z" fill="#DB0962"/>
<path fill-rule="evenodd" clip-rule="evenodd" d="M264.728 38.1785H265.485V34.939H264.728V38.1785Z" fill="#DB0962"/>
<path fill-rule="evenodd" clip-rule="evenodd" d="M268.706 35.5971C268.683 35.6326 268.66 35.6595 268.636 35.6773C268.611 35.695 268.58 35.7038 268.541 35.7038C268.507 35.7038 268.47 35.6933 268.431 35.6715C268.391 35.6503 268.347 35.6261 268.297 35.5995C268.247 35.5726 268.191 35.5487 268.127 35.5273C268.063 35.5054 267.99 35.4949 267.909 35.4949C267.768 35.4949 267.663 35.5252 267.594 35.5849C267.525 35.6452 267.49 35.726 267.49 35.8286C267.49 35.8937 267.511 35.9476 267.553 35.9905C267.594 36.0338 267.649 36.071 267.717 36.1017C267.784 36.133 267.861 36.1617 267.948 36.1876C268.035 36.2135 268.123 36.2424 268.214 36.2741C268.304 36.3062 268.393 36.3433 268.48 36.3863C268.567 36.4296 268.643 36.4845 268.711 36.5509C268.779 36.6178 268.833 36.6989 268.875 36.7943C268.916 36.8901 268.937 37.0053 268.937 37.1403C268.937 37.29 268.911 37.4297 268.859 37.5603C268.807 37.6909 268.732 37.8047 268.633 37.9015C268.535 37.9987 268.413 38.075 268.268 38.1306C268.124 38.1862 267.959 38.2141 267.775 38.2141C267.675 38.2141 267.572 38.2036 267.467 38.1828C267.362 38.162 267.261 38.1327 267.163 38.0952C267.065 38.0573 266.973 38.0123 266.887 37.9605C266.801 37.9087 266.726 37.8507 266.663 37.7873L266.885 37.4359C266.903 37.4107 266.926 37.3895 266.955 37.3725C266.984 37.3554 267.016 37.3469 267.05 37.3469C267.094 37.3469 267.139 37.3609 267.184 37.3892C267.23 37.4175 267.281 37.4485 267.338 37.4826C267.395 37.5167 267.461 37.5477 267.535 37.576C267.609 37.6039 267.697 37.6183 267.798 37.6183C267.934 37.6183 268.04 37.5883 268.116 37.5283C268.191 37.4683 268.229 37.3728 268.229 37.2426C268.229 37.1666 268.209 37.1052 268.167 37.0578C268.125 37.0105 268.071 36.9713 268.003 36.9399C267.936 36.9089 267.859 36.8816 267.773 36.8577C267.687 36.8342 267.599 36.808 267.508 36.779C267.418 36.75 267.329 36.7146 267.243 36.6723C267.157 36.6297 267.081 36.5745 267.013 36.5056C266.946 36.4364 266.891 36.3505 266.85 36.2476C266.808 36.1446 266.787 36.0175 266.787 35.8664C266.787 35.7447 266.812 35.6261 266.861 35.5106C266.91 35.395 266.981 35.2921 267.077 35.2014C267.171 35.111 267.288 35.0388 267.426 34.9849C267.564 34.9307 267.722 34.9034 267.9 34.9034C268 34.9034 268.096 34.9113 268.19 34.927C268.285 34.9426 268.374 34.9655 268.459 34.9958C268.543 35.0262 268.622 35.0626 268.696 35.1049C268.769 35.1468 268.835 35.1949 268.893 35.2481L268.706 35.5971Z" fill="#DB0962"/>
<path fill-rule="evenodd" clip-rule="evenodd" d="M273.826 34.939V38.1785H273.163V36.3152C273.163 36.2722 273.164 36.2255 273.166 36.1754C273.169 36.125 273.173 36.0738 273.179 36.0217L272.317 37.6872C272.291 37.7387 272.255 37.7783 272.209 37.8049C272.164 37.8314 272.113 37.8447 272.055 37.8447H271.952C271.894 37.8447 271.843 37.8314 271.798 37.8049C271.752 37.7783 271.716 37.7387 271.69 37.6872L270.828 36.0176C270.833 36.0708 270.837 36.1229 270.84 36.1744C270.842 36.2252 270.844 36.2722 270.844 36.3152V38.1785H270.181V34.939H270.755C270.788 34.939 270.816 34.94 270.841 34.9414C270.865 34.9428 270.887 34.9472 270.906 34.9547C270.926 34.9622 270.943 34.9738 270.959 34.9891C270.974 35.0048 270.989 35.0266 271.004 35.0546L271.839 36.6977C271.868 36.7542 271.897 36.8125 271.924 36.8732C271.952 36.9342 271.978 36.9963 272.003 37.06C272.029 36.9949 272.055 36.9312 272.082 36.8688C272.11 36.8067 272.139 36.7474 272.17 36.6912L273.003 35.0546C273.017 35.0266 273.033 35.0048 273.048 34.9891C273.064 34.9738 273.081 34.9622 273.101 34.9547C273.12 34.9472 273.142 34.9428 273.166 34.9414C273.191 34.94 273.219 34.939 273.252 34.939H273.826Z" fill="#DB0962"/>
<path fill-rule="evenodd" clip-rule="evenodd" d="M277.667 36.5576C277.667 36.3974 277.646 36.2532 277.605 36.1251C277.563 35.9969 277.504 35.8885 277.426 35.7995C277.348 35.7105 277.253 35.6424 277.14 35.595C277.027 35.5476 276.899 35.5237 276.755 35.5237C276.609 35.5237 276.48 35.5476 276.366 35.595C276.253 35.6424 276.157 35.7105 276.079 35.7995C276.001 35.8885 275.942 35.9969 275.9 36.1251C275.859 36.2532 275.838 36.3974 275.838 36.5576C275.838 36.7192 275.859 36.8641 275.9 36.9923C275.942 37.1204 276.001 37.2292 276.079 37.3178C276.157 37.4068 276.253 37.4746 276.366 37.5213C276.48 37.568 276.609 37.5912 276.755 37.5912C276.899 37.5912 277.027 37.568 277.14 37.5213C277.253 37.4746 277.348 37.4068 277.426 37.3178C277.504 37.2292 277.563 37.1204 277.605 36.9923C277.646 36.8641 277.667 36.7192 277.667 36.5576M278.437 36.5576C278.437 36.7918 278.397 37.0097 278.316 37.2111C278.235 37.4129 278.121 37.5881 277.974 37.7368C277.828 37.8861 277.651 38.0027 277.444 38.0872C277.237 38.1717 277.007 38.214 276.755 38.214C276.503 38.214 276.273 38.1717 276.065 38.0872C275.857 38.0027 275.679 37.8861 275.532 37.7368C275.384 37.5881 275.27 37.4129 275.189 37.2111C275.108 37.0097 275.068 36.7918 275.068 36.5576C275.068 36.3234 275.108 36.1056 275.189 35.9038C275.27 35.7024 275.384 35.5275 275.532 35.3792C275.679 35.2309 275.857 35.1147 276.065 35.0301C276.273 34.9456 276.503 34.9033 276.755 34.9033C277.007 34.9033 277.237 34.9459 277.444 35.0312C277.651 35.1164 277.828 35.2333 277.974 35.3816C278.121 35.5295 278.235 35.7047 278.316 35.9062C278.397 36.1077 278.437 36.3248 278.437 36.5576" fill="#DB0962"/>
</svg>
