<?xml version="1.0" encoding="UTF-8"?>
<svg width="45px" height="35px" viewBox="0 0 31 28" version="1.1" xmlns="http://www.w3.org/2000/svg" xmlns:xlink="http://www.w3.org/1999/xlink">
    <!-- Generator: Sketch 52.6 (67491) - http://www.bohemiancoding.com/sketch -->
    <title>Ico-llamar</title>
    <desc>Created with Sketch.</desc>
    <g id="Page-1" stroke="none" stroke-width="1" fill="none" fill-rule="evenodd" stroke-linecap="round" stroke-linejoin="round">
        <g id="DIRECTORIO" transform="translate(-406.000000, -569.000000)" stroke="#009584" stroke-width="2">
            <g id="Secretario-particular" transform="translate(373.000000, 406.000000)">
                <g id="Ico-llamar" transform="translate(30.000000, 163.000000)">
                    <path d="M4.04939098,9.87519237 L5.58031882,9.82880062 C8.14447409,9.75109894 10.2861223,11.7667678 10.363824,14.3309231 C10.3666656,14.4246958 10.3666656,14.5185331 10.363824,14.6123058 L10.3483601,15.1226151 C10.7497709,16.2362386 13.0326334,16.7299547 17.1969476,16.6037634 C21.3612618,16.477572 23.6144817,15.8463989 23.9566075,14.7102439 L23.974776,14.1865481 C24.070793,11.4189266 26.29849,9.20097725 29.066506,9.11709798 L30.5854735,9.07106866 C32.3538564,9.0174813 33.8308552,10.4075978 33.8844425,12.1759807 C33.8864022,12.2406516 33.8864022,12.3053669 33.8844425,12.3700377 C31.4688699,19.9726808 25.9062289,22.2064988 17.0934269,22.4735534 C8.28062487,22.740608 2.72986376,20.8435598 0.441143558,16.7824089 L0.544236341,13.380347 C0.602155691,11.4690085 2.13805246,9.93311172 4.04939098,9.87519237 Z" id="Rectangle" transform="translate(17.163528, 15.783920) rotate(-315.000000) translate(-17.163528, -15.783920) "></path>
                </g>
            </g>
        </g>
    </g>
</svg>