<?xml version="1.0" encoding="UTF-8"?>
<svg width="46px" height="46px" viewBox="0 0 46 46" version="1.1" xmlns="http://www.w3.org/2000/svg" xmlns:xlink="http://www.w3.org/1999/xlink">
    <!-- Generator: Sketch 52.6 (67491) - http://www.bohemiancoding.com/sketch -->
    <title>Ico-ver-tesis</title>
    <desc>Created with Sketch.</desc>
    <g id="Page-1" stroke="none" stroke-width="1" fill="none" fill-rule="evenodd">
        <g id="LEGISLACIONES" transform="translate(-885.000000, -432.000000)" fill="#009684">
            <g id="Ico-ver-tesis" transform="translate(886.000000, 433.000000)">
                <g>
                    <path d="M17.4032593,43 C17.955544,43 18.4032593,43.4477153 18.4032593,44 C18.4032593,44.5522847 17.955544,45 17.4032593,45 L4,45 C1.23857625,45 -1,42.7614237 -1,40 L-1,4 C-1,1.23857625 1.23857625,-1 4,-1 L28,-1 C30.7614237,-1 33,1.23857625 33,4 L33,21.011822 C33,21.5641068 32.5522847,22.011822 32,22.011822 C31.4477153,22.011822 31,21.5641068 31,21.011822 L31,4 C31,2.34314575 29.6568542,1 28,1 L4,1 C2.34314575,1 1,2.34314575 1,4 L1,40 C1,41.6568542 2.34314575,43 4,43 L17.4032593,43 Z" id="Path" fill-rule="nonzero"></path>
                    <path d="M6,11 C5.44771525,11 5,10.5522847 5,10 C5,9.44771525 5.44771525,9 6,9 L25.5,9 C26.0522847,9 26.5,9.44771525 26.5,10 C26.5,10.5522847 26.0522847,11 25.5,11 L6,11 Z" id="Path-21" fill-rule="nonzero"></path>
                    <path d="M6,17 C5.44771525,17 5,16.5522847 5,16 C5,15.4477153 5.44771525,15 6,15 L25.5,15 C26.0522847,15 26.5,15.4477153 26.5,16 C26.5,16.5522847 26.0522847,17 25.5,17 L6,17 Z" id="Path-21-Copy" fill-rule="nonzero"></path>
                    <path d="M6,24 C5.44771525,24 5,23.5522847 5,23 C5,22.4477153 5.44771525,22 6,22 L16.4892422,22 C17.0415269,22 17.4892422,22.4477153 17.4892422,23 C17.4892422,23.5522847 17.0415269,24 16.4892422,24 L6,24 Z" id="Path-21-Copy-2" fill-rule="nonzero"></path>
                    <path d="M30,44.5 C24.4948198,44.5 19.5483103,41.4967621 15.1951638,35.593497 C14.9349454,35.240617 14.9349454,34.759383 15.1951638,34.406503 C19.5483103,28.5032379 24.4948198,25.5 30,25.5 C35.5051802,25.5 40.4516897,28.5032379 44.8048362,34.406503 C45.0650546,34.759383 45.0650546,35.240617 44.8048362,35.593497 C40.4516897,41.4967621 35.5051802,44.5 30,44.5 Z M30,42.5 C34.6257334,42.5 38.8645738,40.0307114 42.7474902,35 C38.8645738,29.9692886 34.6257334,27.5 30,27.5 C25.3742666,27.5 21.1354262,29.9692886 17.2525098,35 C21.1354262,40.0307114 25.3742666,42.5 30,42.5 Z" id="Oval" fill-rule="nonzero"></path>
                    <circle id="Oval" cx="30" cy="35" r="5"></circle>
                </g>
            </g>
        </g>
    </g>
</svg>