<?xml version="1.0" encoding="UTF-8"?>
<svg width="35px" height="47px" viewBox="0 0 35 47" version="1.1" xmlns="http://www.w3.org/2000/svg" xmlns:xlink="http://www.w3.org/1999/xlink">
    <!-- Generator: Sketch 52.6 (67491) - http://www.bohemiancoding.com/sketch -->
    <title>Ico-documento</title>
    <desc>Created with Sketch.</desc>
    <g id="Page-1" stroke="none" stroke-width="1" fill="none" fill-rule="evenodd">
        <g id="DIRECTORIO" transform="translate(-805.000000, -876.000000)" fill="#009684">
            <g id="Ico-documento" transform="translate(805.000000, 876.000000)">
                <g>
                    <path d="M29.5,44 L5.5,44 C4.121,44 3,42.878 3,41.5 L3,5.5 C3,4.122 4.121,3 5.5,3 L21.479,3 L21.479,10.399 C21.479,12.329 23.049,13.899 24.979,13.899 L32,13.899 L32,41.5 C32,42.878 30.879,44 29.5,44 Z M24.479,5.213 L29.967,10.899 L24.979,10.899 C24.703,10.899 24.479,10.675 24.479,10.399 L24.479,5.213 Z M34.579,11.357 L24.058,0.458 C23.775,0.166 23.386,0 22.979,0 L5.5,0 C2.468,0 0,2.467 0,5.5 L0,41.5 C0,44.533 2.468,47 5.5,47 L29.5,47 C32.532,47 35,44.533 35,41.5 L35,12.399 C35,12.011 34.85,11.637 34.579,11.357 Z" id="Fill-1"></path>
                    <path d="M26.249,25 L8.751,25 C7.923,25 7.251,24.329 7.251,23.5 C7.251,22.671 7.923,22 8.751,22 L26.249,22 C27.077,22 27.749,22.671 27.749,23.5 C27.749,24.329 27.077,25 26.249,25" id="Fill-3"></path>
                    <path d="M26.249,32.4541 L8.751,32.4541 C7.923,32.4541 7.251,31.7831 7.251,30.9541 C7.251,30.1251 7.923,29.4541 8.751,29.4541 L26.249,29.4541 C27.077,29.4541 27.749,30.1251 27.749,30.9541 C27.749,31.7831 27.077,32.4541 26.249,32.4541" id="Fill-5"></path>
                    <path d="M17.9492,39.9082 L8.7512,39.9082 C7.9232,39.9082 7.2512,39.2372 7.2512,38.4082 C7.2512,37.5792 7.9232,36.9082 8.7512,36.9082 L17.9492,36.9082 C18.7772,36.9082 19.4492,37.5792 19.4492,38.4082 C19.4492,39.2372 18.7772,39.9082 17.9492,39.9082" id="Fill-7"></path>
                </g>
            </g>
        </g>
    </g>
</svg>