<?xml version="1.0" encoding="UTF-8"?>
<svg width="43px" height="47px" viewBox="0 0 43 47" version="1.1" xmlns="http://www.w3.org/2000/svg" xmlns:xlink="http://www.w3.org/1999/xlink">
    <!-- Generator: Sketch 52.6 (67491) - http://www.bohemiancoding.com/sketch -->
    <title>Ico-pdf</title>
    <desc>Created with Sketch.</desc>
    <g id="Page-1" stroke="none" stroke-width="1" fill="none" fill-rule="evenodd">
        <g id="Ico-pdf" transform="translate(1.000000, 1.000000)">
            <g id="Shape">
                <path d="M7.48438,1 C6.10366,1 4.98438,2.11929 4.98438,3.5 L4.98438,16.5156 L36.0156,16.5156 L36.0156,10.6468 C36.0156,10.3628 35.9673,10.0836 35.875,9.82017 L35.875,9.96875 L29.5469,9.96875 C28.1662,9.96875 27.0469,8.84946 27.0469,7.46875 L27.0469,1.14062 L27.7059,1.14062 C27.4429,1.04846 27.1637,1 26.8793,1 L7.48438,1 Z M37.0156,16.5156 L37.0156,10.6468 C37.0156,9.76338 36.6815,8.91262 36.0804,8.26524 L29.4441,1.11842 C28.7818,0.405236 27.8525,0 26.8793,0 L7.48438,0 C5.55138,0 3.98438,1.567 3.98438,3.5 L3.98438,16.5156 L1,16.5156 C0.447715,16.5156 0,16.9633 0,17.5156 L0,34.7344 C0,35.2867 0.447714,35.7344 0.999999,35.7344 L3.98438,35.7344 L3.98438,41.7031 C3.98438,43.6361 5.55138,45.2031 7.48438,45.2031 L33.5156,45.2031 C35.4486,45.2031 37.0156,43.6361 37.0156,41.7031 L37.0156,35.7344 L40,35.7344 C40.5523,35.7344 41,35.2867 41,34.7344 L41,17.5156 C41,16.9633 40.5523,16.5156 40,16.5156 L37.0156,16.5156 Z M36.0156,35.7344 L4.98438,35.7344 L4.98438,41.7031 C4.98438,43.0838 6.10366,44.2031 7.48438,44.2031 L33.5156,44.2031 C34.8963,44.2031 36.0156,43.0838 36.0156,41.7031 L36.0156,35.7344 Z M35.3476,8.94569 L35.3688,8.96875 L29.5469,8.96875 C28.7184,8.96875 28.0469,8.29718 28.0469,7.46875 L28.0469,1.2894 C28.2929,1.41935 28.518,1.59075 28.7113,1.79887 L35.3476,8.94569 Z" stroke="#009684" fill="#009684"></path>
                <path d="M11.05,28.8594 L11.05,21.8594 L13.78,21.8594 C14.3933,21.8594 14.9167,21.956 15.35,22.1494 C15.7833,22.3427 16.1167,22.6227 16.35,22.9894 C16.5833,23.356 16.7,23.7927 16.7,24.2994 C16.7,24.806 16.5833,25.2427 16.35,25.6094 C16.1167,25.9694 15.7833,26.2494 15.35,26.4494 C14.9167,26.6427 14.3933,26.7394 13.78,26.7394 L11.6,26.7394 L12.05,26.2694 L12.05,28.8594 L11.05,28.8594 Z M12.05,26.3694 L11.6,25.8694 L13.75,25.8694 C14.39,25.8694 14.8733,25.7327 15.2,25.4594 C15.5333,25.186 15.7,24.7994 15.7,24.2994 C15.7,23.7994 15.5333,23.4127 15.2,23.1394 C14.8733,22.866 14.39,22.7294 13.75,22.7294 L11.6,22.7294 L12.05,22.2294 L12.05,26.3694 Z M17.4691,28.8594 L17.4691,21.8594 L20.4191,21.8594 C21.1658,21.8594 21.8225,22.006 22.3891,22.2994 C22.9625,22.5927 23.4058,23.0027 23.7191,23.5294 C24.0391,24.056 24.1991,24.666 24.1991,25.3594 C24.1991,26.0527 24.0391,26.6627 23.7191,27.1894 C23.4058,27.716 22.9625,28.126 22.3891,28.4194 C21.8225,28.7127 21.1658,28.8594 20.4191,28.8594 L17.4691,28.8594 Z M18.4691,27.9894 L20.3591,27.9894 C20.9391,27.9894 21.4391,27.8794 21.8591,27.6594 C22.2858,27.4394 22.6158,27.1327 22.8491,26.7394 C23.0825,26.3394 23.1991,25.8794 23.1991,25.3594 C23.1991,24.8327 23.0825,24.3727 22.8491,23.9794 C22.6158,23.586 22.2858,23.2794 21.8591,23.0594 C21.4391,22.8394 20.9391,22.7294 20.3591,22.7294 L18.4691,22.7294 L18.4691,27.9894 Z M25.9309,25.1694 L29.5409,25.1694 L29.5409,26.0294 L25.9309,26.0294 L25.9309,25.1694 Z M26.0309,28.8594 L25.0309,28.8594 L25.0309,21.8594 L29.9709,21.8594 L29.9709,22.7294 L26.0309,22.7294 L26.0309,28.8594 Z" fill="#FFFFFF" fill-rule="nonzero"></path>
            </g>
        </g>
    </g>
</svg>