<svg width="42" height="1211" viewBox="0 0 42 1211" fill="none" xmlns="http://www.w3.org/2000/svg">
<path fill-rule="evenodd" clip-rule="evenodd" d="M41.2231 119.122L39.8932 120.452L25.5031 106.062L39.8932 91.668L41.2231 92.9984V84.8562L39.8932 83.5258L17.3604 106.062L39.8932 128.595L41.2231 127.264V119.122Z" fill="#009684"/>
<path fill-rule="evenodd" clip-rule="evenodd" d="M41.2231 189.066L39.8932 190.397L25.4984 175.999L39.8932 161.613L41.2231 162.943V154.801L39.8932 153.471L17.3557 175.999L39.8932 198.54L41.2231 197.209V189.066Z" fill="#009684"/>
<path fill-rule="evenodd" clip-rule="evenodd" d="M41.2231 49.1041L39.9107 50.4165L25.5211 36.0217L39.9107 21.6321L41.2231 22.9441V14.8018L39.9107 13.4899L17.3788 36.0217L39.9107 58.5588L41.2231 57.2464V49.1041Z" fill="#009684"/>
<path fill-rule="evenodd" clip-rule="evenodd" d="M41.2231 106.754L39.8932 108.084L37.8659 106.063L39.8932 104.036L41.2231 105.369V97.2239L39.8932 95.8931L29.7237 106.063L39.8932 116.227L41.2231 114.897V106.754Z" fill="#009684"/>
<path fill-rule="evenodd" clip-rule="evenodd" d="M41.2231 176.692L39.8932 178.025L37.8621 175.998L39.8932 173.976L41.2231 175.306V167.164L39.8932 165.834L29.7199 175.998L39.8932 186.168L41.2231 184.837V176.692Z" fill="#009684"/>
<path fill-rule="evenodd" clip-rule="evenodd" d="M41.2231 226.965L39.9131 225.656L19.4213 246.152L23.4924 250.223L39.9131 233.798L41.2231 235.108V226.965Z" fill="#009684"/>
<path fill-rule="evenodd" clip-rule="evenodd" d="M41.2231 36.7399L39.9154 38.0533L37.8848 36.026L39.9154 34.0001L41.2231 35.3078V27.1726L39.9154 25.8668L29.7421 36.0175L39.9154 46.195L41.2231 44.8859V36.7399Z" fill="#009684"/>
<path fill-rule="evenodd" clip-rule="evenodd" d="M41.2231 398.996L39.8932 400.326L25.5031 385.936L39.8932 371.542L41.2231 372.873V364.73L39.8932 363.4L17.3604 385.936L39.8932 408.469L41.2231 407.139V398.996Z" fill="#009684"/>
<path fill-rule="evenodd" clip-rule="evenodd" d="M41.2231 468.941L39.8932 470.272L25.4984 455.873L39.8932 441.487L41.2231 442.817V434.675L39.8932 433.345L17.3557 455.873L39.8932 478.414L41.2231 477.084V468.941Z" fill="#009684"/>
<path fill-rule="evenodd" clip-rule="evenodd" d="M41.2231 328.978L39.9107 330.291L25.5211 315.896L39.9107 301.506L41.2231 302.818V294.676L39.9107 293.364L17.3788 315.896L39.9107 338.433L41.2231 337.12V328.978Z" fill="#009684"/>
<path fill-rule="evenodd" clip-rule="evenodd" d="M41.2231 257.221L39.9178 258.526L23.4877 242.101L19.4165 246.173L39.9178 266.669L41.2231 265.364V257.221Z" fill="#009684"/>
<path fill-rule="evenodd" clip-rule="evenodd" d="M41.2231 386.628L39.8932 387.958L37.8659 385.937L39.8932 383.91L41.2231 385.243V377.098L39.8932 375.768L29.7237 385.937L39.8932 396.101L41.2231 394.771V386.628Z" fill="#009684"/>
<path fill-rule="evenodd" clip-rule="evenodd" d="M41.2231 456.566L39.8932 457.899L37.8621 455.872L39.8932 453.851L41.2231 455.181V447.038L39.8932 445.708L29.7199 455.872L39.8932 466.041L41.2231 464.711V456.566Z" fill="#009684"/>
<path fill-rule="evenodd" clip-rule="evenodd" d="M27.2324 211.21L6.7269 231.702L2.65577 227.63L19.0902 211.21L2.65577 194.776L6.7269 190.705L27.2324 211.21Z" fill="#009684"/>
<path fill-rule="evenodd" clip-rule="evenodd" d="M14.8604 211.206L6.7266 219.334L2.65547 215.263L6.71809 211.206L2.65547 207.143L6.7266 203.072L14.8604 211.206Z" fill="#009684"/>
<path fill-rule="evenodd" clip-rule="evenodd" d="M27.2324 141.251L6.7269 161.748L2.65577 157.676L19.0902 141.251L2.65577 124.826L6.7269 120.755L27.2324 141.251Z" fill="#009684"/>
<path fill-rule="evenodd" clip-rule="evenodd" d="M14.8604 141.251L6.7266 149.38L2.65547 145.309L6.71809 141.251L2.65547 137.194L6.7266 133.123L14.8604 141.251Z" fill="#009684"/>
<path fill-rule="evenodd" clip-rule="evenodd" d="M26.5199 0.343872H18.3772L19.0902 1.05636L2.65577 17.4813L6.7269 21.5529L27.2324 1.05636L26.5199 0.343872Z" fill="#009684"/>
<path fill-rule="evenodd" clip-rule="evenodd" d="M14.1474 0.343872H6.00465L6.7176 1.05636L2.65546 5.11377L6.72659 9.1849L14.8599 1.05636L14.1474 0.343872Z" fill="#009684"/>
<path fill-rule="evenodd" clip-rule="evenodd" d="M27.2324 71.2061L6.7269 91.7027L2.65577 87.6315L19.0902 71.2061L2.65577 54.7807L6.7269 50.7096L27.2324 71.2061Z" fill="#009684"/>
<path fill-rule="evenodd" clip-rule="evenodd" d="M14.8604 71.2061L6.7266 79.3352L2.65547 75.264L6.71809 71.2061L2.65547 67.144L6.7266 63.0724L14.8604 71.2061Z" fill="#009684"/>
<path fill-rule="evenodd" clip-rule="evenodd" d="M27.2324 421.125L6.7269 441.622L2.65577 437.551L19.0902 421.125L2.65577 404.7L6.7269 400.629L27.2324 421.125Z" fill="#009684"/>
<path fill-rule="evenodd" clip-rule="evenodd" d="M14.8604 421.125L6.7266 429.254L2.65547 425.183L6.71809 421.125L2.65547 417.067L6.7266 412.996L14.8604 421.125Z" fill="#009684"/>
<path fill-rule="evenodd" clip-rule="evenodd" d="M27.2324 351.08L6.7269 371.577L2.65577 367.506L19.0902 351.08L2.65577 334.655L6.7269 330.584L27.2324 351.08Z" fill="#009684"/>
<path fill-rule="evenodd" clip-rule="evenodd" d="M14.8604 351.08L6.7266 359.209L2.65547 355.138L6.71809 351.08L2.65547 347.018L6.7266 342.947L14.8604 351.08Z" fill="#009684"/>
<path fill-rule="evenodd" clip-rule="evenodd" d="M4.69585 295.736L8.76698 299.808L23.1433 285.431L23.1618 285.45L27.2329 281.378L27.2145 281.36L27.2329 281.342L23.1618 277.271L23.1433 277.288L8.76698 262.913L4.69585 266.984L19.0722 281.36L4.69585 295.736Z" fill="#009684"/>
<path fill-rule="evenodd" clip-rule="evenodd" d="M4.696 283.379L8.76713 287.45L10.7854 285.43L10.7892 285.434L14.8604 281.363L14.8552 281.358L14.8604 281.352L10.7892 277.281L10.784 277.286L8.76713 275.27L4.696 279.341L6.71431 281.359L4.696 283.379Z" fill="#009684"/>
<path fill-rule="evenodd" clip-rule="evenodd" d="M41.2231 316.614L39.9154 317.927L37.8848 315.901L39.9154 313.874L41.2231 315.182V307.047L39.9154 305.741L29.7421 315.892L39.9154 326.07L41.2231 324.761V316.614Z" fill="#009684"/>
<path fill-rule="evenodd" clip-rule="evenodd" d="M41.2231 239.224L40.0086 238.01L31.7864 246.252L39.9202 254.385L41.2231 253.077V239.224ZM40.0086 246.152L40.0095 246.153L39.9202 246.243L39.9192 246.242L40.0086 246.152Z" fill="#009684"/>
<path fill-rule="evenodd" clip-rule="evenodd" d="M41.2231 485.283L39.757 486.75L8.84937 455.841L39.836 424.852L41.2231 426.236V415.099L39.7192 416.603L8.89192 385.841L40.0213 354.71L41.2231 355.911V345.368L39.9093 346.682L9.15668 315.93L39.9126 285.174L41.2231 286.485V275.721L40.0261 276.918L8.94251 245.834L39.757 215.018L41.2231 216.484V205.409L39.757 206.875L8.84937 175.966L39.836 144.978L41.2231 146.362V135.452L39.8336 136.842L8.89192 105.967L39.9079 74.9496L41.2231 76.2649V65.494L39.9093 66.8078L9.15668 36.0562L39.9126 5.30028L41.2231 6.61083V0.343628H34.9564L35.8415 1.22868L1.01442 36.0562L35.8386 70.8794L0.744463 105.971L35.762 140.913L0.708057 175.967L35.6854 210.946L0.472138 245.997L35.8415 281.103L5.08555 311.859L1.12789 315.816L35.9516 350.64L0.744463 385.846L35.6481 420.674L0.594117 455.728L35.6854 490.821L4.62601 521.883V529.797L39.6431 494.779L41.2231 496.359V485.283Z" fill="#009684"/>
<path fill-rule="evenodd" clip-rule="evenodd" d="M41.2231 608.452L39.8932 609.782L25.5031 595.392L39.8932 580.998L41.2231 582.328V574.186L39.8932 572.855L17.3604 595.392L39.8932 617.925L41.2231 616.594V608.452Z" fill="#009684"/>
<path fill-rule="evenodd" clip-rule="evenodd" d="M41.2231 678.397L39.8932 679.727L25.4984 665.329L39.8932 650.943L41.2231 652.273V644.13L39.8932 642.8L17.3557 665.329L39.8932 687.87L41.2231 686.539V678.397Z" fill="#009684"/>
<path fill-rule="evenodd" clip-rule="evenodd" d="M41.2231 538.434L39.9107 539.746L25.5211 525.351L39.9107 510.962L41.2231 512.274V504.132L39.9107 502.82L17.3788 525.351L39.9107 547.889L41.2231 546.576V538.434Z" fill="#009684"/>
<path fill-rule="evenodd" clip-rule="evenodd" d="M41.2231 596.084L39.8932 597.414L37.8659 595.392L39.8932 593.366L41.2231 594.699V586.554L39.8932 585.223L29.7237 595.392L39.8932 605.557L41.2231 604.226V596.084Z" fill="#009684"/>
<path fill-rule="evenodd" clip-rule="evenodd" d="M41.2231 666.022L39.8932 667.354L37.8621 665.329L39.8932 663.306L41.2231 664.636V656.494L39.8932 655.163L29.7199 665.329L39.8932 675.498L41.2231 674.167V666.022Z" fill="#009684"/>
<path fill-rule="evenodd" clip-rule="evenodd" d="M41.2231 716.295L39.9131 714.985L19.4213 735.482L23.4924 739.553L39.9131 723.128L41.2231 724.437V716.295Z" fill="#009684"/>
<path fill-rule="evenodd" clip-rule="evenodd" d="M41.2231 526.07L39.9154 527.383L37.8848 525.356L39.9154 523.33L41.2231 524.638V516.502L39.9154 515.197L29.7421 525.347L39.9154 535.525L41.2231 534.216V526.07Z" fill="#009684"/>
<path fill-rule="evenodd" clip-rule="evenodd" d="M41.2231 888.326L39.8932 889.656L25.5031 875.266L39.8932 860.872L41.2231 862.203V854.06L39.8932 852.729L17.3604 875.266L39.8932 897.799L41.2231 896.468V888.326Z" fill="#009684"/>
<path fill-rule="evenodd" clip-rule="evenodd" d="M41.2231 958.27L39.8932 959.601L25.4984 945.202L39.8932 930.817L41.2231 932.147V924.005L39.8932 922.675L17.3557 945.202L39.8932 967.744L41.2231 966.413V958.27Z" fill="#009684"/>
<path fill-rule="evenodd" clip-rule="evenodd" d="M41.2231 818.308L39.9107 819.621L25.5211 805.226L39.9107 790.836L41.2231 792.148V784.005L39.9107 782.693L17.3788 805.226L39.9107 827.762L41.2231 826.45V818.308Z" fill="#009684"/>
<path fill-rule="evenodd" clip-rule="evenodd" d="M41.2231 746.551L39.9178 747.856L23.4877 731.431L19.4165 735.502L39.9178 755.999L41.2231 754.693V746.551Z" fill="#009684"/>
<path fill-rule="evenodd" clip-rule="evenodd" d="M41.2231 875.958L39.8932 877.288L37.8659 875.266L39.8932 873.24L41.2231 874.573V866.428L39.8932 865.097L29.7237 875.266L39.8932 885.431L41.2231 884.1V875.958Z" fill="#009684"/>
<path fill-rule="evenodd" clip-rule="evenodd" d="M41.2231 945.896L39.8932 947.229L37.8621 945.202L39.8932 943.181L41.2231 944.511V936.368L39.8932 935.038L29.7199 945.202L39.8932 955.372L41.2231 954.041V945.896Z" fill="#009684"/>
<path fill-rule="evenodd" clip-rule="evenodd" d="M41.2231 993.946L39.87 992.593L19.3782 1013.09L23.4494 1017.16L39.87 1000.74L41.2231 1002.09V993.946Z" fill="#009684"/>
<path fill-rule="evenodd" clip-rule="evenodd" d="M41.2231 1006.32L39.87 1004.97L31.7462 1013.09L35.8169 1017.16L39.87 1013.11L41.2231 1014.46V1006.32Z" fill="#009684"/>
<path fill-rule="evenodd" clip-rule="evenodd" d="M27.2324 700.54L6.7269 721.032L2.65577 716.96L19.0902 700.54L2.65577 684.105L6.7269 680.034L27.2324 700.54Z" fill="#009684"/>
<path fill-rule="evenodd" clip-rule="evenodd" d="M14.8604 700.535L6.7266 708.664L2.65547 704.593L6.71809 700.535L2.65547 696.473L6.7266 692.402L14.8604 700.535Z" fill="#009684"/>
<path fill-rule="evenodd" clip-rule="evenodd" d="M27.2324 630.581L6.7269 651.078L2.65577 647.006L19.0902 630.581L2.65577 614.155L6.7269 610.084L27.2324 630.581Z" fill="#009684"/>
<path fill-rule="evenodd" clip-rule="evenodd" d="M14.8604 630.581L6.7266 638.709L2.65547 634.639L6.71809 630.581L2.65547 626.523L6.7266 622.452L14.8604 630.581Z" fill="#009684"/>
<path fill-rule="evenodd" clip-rule="evenodd" d="M27.2324 490.386L6.7269 510.883L2.65577 506.811L19.0902 490.386L2.65577 473.961L6.7269 469.89L27.2324 490.386Z" fill="#009684"/>
<path fill-rule="evenodd" clip-rule="evenodd" d="M14.8604 490.386L6.7266 498.515L2.65547 494.444L6.71809 490.386L2.65547 486.328L6.7266 482.257L14.8604 490.386Z" fill="#009684"/>
<path fill-rule="evenodd" clip-rule="evenodd" d="M27.2324 560.536L6.7269 581.032L2.65577 576.961L19.0902 560.536L2.65577 544.11L6.7269 540.039L27.2324 560.536Z" fill="#009684"/>
<path fill-rule="evenodd" clip-rule="evenodd" d="M14.8604 560.536L6.7266 568.665L2.65547 564.594L6.71809 560.536L2.65547 556.474L6.7266 552.402L14.8604 560.536Z" fill="#009684"/>
<path fill-rule="evenodd" clip-rule="evenodd" d="M27.2324 980.414L6.7269 1000.91L2.65577 996.834L19.0902 980.414L2.65577 963.98L6.7269 959.908L27.2324 980.414Z" fill="#009684"/>
<path fill-rule="evenodd" clip-rule="evenodd" d="M14.8604 980.409L6.7266 988.538L2.65547 984.467L6.71809 980.409L2.65547 976.347L6.7266 972.276L14.8604 980.409Z" fill="#009684"/>
<path fill-rule="evenodd" clip-rule="evenodd" d="M27.2324 910.455L6.7269 930.952L2.65577 926.88L19.0902 910.455L2.65577 894.03L6.7269 889.958L27.2324 910.455Z" fill="#009684"/>
<path fill-rule="evenodd" clip-rule="evenodd" d="M14.8604 910.455L6.7266 918.584L2.65547 914.512L6.71809 910.455L2.65547 906.398L6.7266 902.326L14.8604 910.455Z" fill="#009684"/>
<path fill-rule="evenodd" clip-rule="evenodd" d="M27.2324 840.41L6.7269 860.907L2.65577 856.835L19.0902 840.41L2.65577 823.985L6.7269 819.913L27.2324 840.41Z" fill="#009684"/>
<path fill-rule="evenodd" clip-rule="evenodd" d="M14.8604 840.41L6.7266 848.539L2.65547 844.468L6.71809 840.41L2.65547 836.348L6.7266 832.277L14.8604 840.41Z" fill="#009684"/>
<path fill-rule="evenodd" clip-rule="evenodd" d="M4.69585 785.066L8.76698 789.137L23.1433 774.761L23.1618 774.779L27.2329 770.708L27.2145 770.69L27.2329 770.672L23.1618 766.6L23.1433 766.618L8.76698 752.242L4.69585 756.313L19.0722 770.69L4.69585 785.066Z" fill="#009684"/>
<path fill-rule="evenodd" clip-rule="evenodd" d="M4.696 772.709L8.76713 776.78L10.7854 774.76L10.7892 774.764L14.8604 770.692L14.8552 770.687L14.8604 770.682L10.7892 766.611L10.784 766.616L8.76713 764.599L4.696 768.67L6.71431 770.689L4.696 772.709Z" fill="#009684"/>
<path fill-rule="evenodd" clip-rule="evenodd" d="M41.2231 805.944L39.9154 807.257L37.8848 805.23L39.9154 803.204L41.2231 804.512V796.377L39.9154 795.071L29.7421 805.221L39.9154 815.399L41.2231 814.09V805.944Z" fill="#009684"/>
<path fill-rule="evenodd" clip-rule="evenodd" d="M41.2231 728.554L40.0086 727.34L31.7864 735.581L39.9202 743.715L41.2231 742.406V728.554ZM40.0086 735.482L40.0095 735.483L39.9202 735.573L39.9192 735.571L40.0086 735.482Z" fill="#009684"/>
<path fill-rule="evenodd" clip-rule="evenodd" d="M41.2231 974.613L39.757 976.079L8.84937 945.17L39.836 914.182L41.2231 915.567V904.429L39.7192 905.932L8.89192 875.171L40.0213 844.04L41.2231 845.241V834.698L39.9093 836.012L9.15668 805.26L39.9126 774.504L41.2231 775.815V765.051L40.0261 766.248L8.94251 735.163L39.757 704.348L41.2231 705.814V694.739L39.757 696.205L8.84937 665.296L39.836 634.308L41.2231 635.692V624.782L39.8336 626.171L8.89192 595.297L39.9079 564.279L41.2231 565.595V554.824L39.9093 556.138L9.15668 525.386L39.9126 494.63L41.2231 495.941V485.177L39.9126 486.487L4.93331 451.507H4.60898L4.78911 459.504L35.8415 490.558L1.01442 525.386L35.8386 560.209L0.744463 595.301L35.762 630.242L0.708057 665.297L35.6854 700.276L0.472138 735.326L35.8415 770.433L5.08555 801.188L1.12789 805.146L35.9516 839.97L0.744463 875.175L35.6481 910.003L0.594117 945.058L35.6854 980.151L4.62601 1011.21V1019.13L39.6431 984.108L41.2231 985.688V974.613Z" fill="#009684"/>
<path fill-rule="evenodd" clip-rule="evenodd" d="M41.2231 1098.25L39.8932 1099.58L25.5031 1085.19L39.8932 1070.8L41.2231 1072.13V1063.99L39.8932 1062.66L17.3604 1085.19L39.8932 1107.73L41.2231 1106.4V1098.25Z" fill="#009684"/>
<path fill-rule="evenodd" clip-rule="evenodd" d="M41.2231 1168.2L39.8932 1169.53L25.4984 1155.13L39.8932 1140.75L41.2231 1142.08V1133.93L39.8932 1132.6L17.3557 1155.13L39.8932 1177.67L41.2231 1176.34V1168.2Z" fill="#009684"/>
<path fill-rule="evenodd" clip-rule="evenodd" d="M41.2231 1028.24L39.9107 1029.55L25.5211 1015.15L39.9107 1000.76L41.2231 1002.08V993.934L39.9107 992.622L17.3788 1015.15L39.9107 1037.69L41.2231 1036.38V1028.24Z" fill="#009684"/>
<path fill-rule="evenodd" clip-rule="evenodd" d="M41.2231 1085.89L39.8932 1087.22L37.8659 1085.19L39.8932 1083.17L41.2231 1084.5V1076.36L39.8932 1075.03L29.7237 1085.19L39.8932 1095.36L41.2231 1094.03V1085.89Z" fill="#009684"/>
<path fill-rule="evenodd" clip-rule="evenodd" d="M41.2231 1155.82L39.8932 1157.16L37.8621 1155.13L39.8932 1153.11L41.2231 1154.44V1146.3L39.8932 1144.97L29.7199 1155.13L39.8932 1165.3L41.2231 1163.97V1155.82Z" fill="#009684"/>
<path fill-rule="evenodd" clip-rule="evenodd" d="M41.2231 1206.1L39.9131 1204.79L34.035 1210.67H41.2231V1206.1Z" fill="#009684"/>
<path fill-rule="evenodd" clip-rule="evenodd" d="M41.2231 1015.87L39.9154 1017.18L37.8848 1015.16L39.9154 1013.13L41.2231 1014.44V1006.3L39.9154 1005L29.7421 1015.15L39.9154 1025.33L41.2231 1024.02V1015.87Z" fill="#009684"/>
<path fill-rule="evenodd" clip-rule="evenodd" d="M6.7269 1169.84L2.65577 1173.91L19.0897 1190.34L2.65577 1206.76L6.55907 1210.67H6.89474L27.2324 1190.34L6.7269 1169.84Z" fill="#009684"/>
<path fill-rule="evenodd" clip-rule="evenodd" d="M14.8604 1190.34L6.7266 1198.47L2.65547 1194.4L6.71809 1190.34L2.65547 1186.28L6.7266 1182.2L14.8604 1190.34Z" fill="#009684"/>
<path fill-rule="evenodd" clip-rule="evenodd" d="M27.2324 1120.38L6.7269 1140.88L2.65577 1136.81L19.0902 1120.38L2.65577 1103.96L6.7269 1099.89L27.2324 1120.38Z" fill="#009684"/>
<path fill-rule="evenodd" clip-rule="evenodd" d="M14.8604 1120.38L6.7266 1128.51L2.65547 1124.44L6.71809 1120.38L2.65547 1116.33L6.7266 1112.25L14.8604 1120.38Z" fill="#009684"/>
<path fill-rule="evenodd" clip-rule="evenodd" d="M27.2324 980.188L6.7269 1000.68L2.65577 996.614L19.0902 980.188L2.65577 963.763L6.7269 959.691L27.2324 980.188Z" fill="#009684"/>
<path fill-rule="evenodd" clip-rule="evenodd" d="M14.8604 980.189L6.7266 988.317L2.65547 984.246L6.71809 980.189L2.65547 976.131L6.7266 972.06L14.8604 980.189Z" fill="#009684"/>
<path fill-rule="evenodd" clip-rule="evenodd" d="M27.2324 1050.34L6.7269 1070.84L2.65577 1066.76L19.0902 1050.34L2.65577 1033.91L6.7269 1029.84L27.2324 1050.34Z" fill="#009684"/>
<path fill-rule="evenodd" clip-rule="evenodd" d="M14.8604 1050.34L6.7266 1058.47L2.65547 1054.4L6.71809 1050.34L2.65547 1046.28L6.7266 1042.21L14.8604 1050.34Z" fill="#009684"/>
<path fill-rule="evenodd" clip-rule="evenodd" d="M41.2231 1184.54L39.757 1186.01L8.84937 1155.1L39.836 1124.11L41.2231 1125.49V1114.58L39.8336 1115.97L8.89192 1085.1L39.9079 1054.08L41.2231 1055.4V1044.63L39.9093 1045.94L9.15668 1015.19L39.9126 984.433L41.2231 985.743V974.979L39.9126 976.29L4.93331 941.309H4.60898L4.78911 949.307L35.8415 980.361L1.01442 1015.19L35.8386 1050.01L0.744463 1085.1L35.762 1120.05L0.708057 1155.1L35.6854 1190.08L15.0017 1210.67H23.2409L39.757 1194.15L41.2231 1195.62V1184.54Z" fill="#009684"/>
</svg>
