<?xml version="1.0" encoding="UTF-8"?>
<svg width="39px" height="70px" viewBox="0 0 39 70" version="1.1" xmlns="http://www.w3.org/2000/svg" xmlns:xlink="http://www.w3.org/1999/xlink">
    <!-- Generator: Sketch 52.6 (67491) - http://www.bohemiancoding.com/sketch -->
    <title>Greca-legislacion</title>
    <desc>Created with Sketch.</desc>
    <g id="Page-1" stroke="none" stroke-width="1" fill="none" fill-rule="evenodd">
        <g id="DIRECTORIO" transform="translate(-496.000000, -1837.000000)" fill="#009684">
            <g id="Greca-legislacion" transform="translate(496.000000, 1837.000000)">
                <g>
                    <polygon id="Fill-1" points="0.197629213 55.734875 14.4650562 69.9794375 14.4641798 69.9803125 22.5625955 69.9803125 22.5634719 69.9794375 0.197629213 47.5986875"></polygon>
                    <polygon id="Fill-2" points="14.3669427 0.19840625 0.197673034 14.3362187 0.197673034 22.4724062 22.5161899 0.19840625"></polygon>
                    <polygon id="Fill-3" points="2.89866404 0.19840625 0.197585393 2.89340625 0.197585393 9.00615625 9.02254045 0.19840625"></polygon>
                    <polygon id="Fill-4" points="0.197629213 67.178125 3.0034382 69.9803125 9.06333708 69.9803125 0.197629213 61.058375"></polygon>
                    <polygon id="Fill-5" points="12.7341573 34.8172562 33.2573596 14.3356937 37.3322022 18.4040062 20.8838427 34.8172562 37.3322022 51.2305062 33.2573596 55.2988187"></polygon>
                    <polygon id="Fill-6" points="25.117227 34.8172562 33.2577101 26.6946312 37.3325528 30.7625062 33.2669124 34.8172562 37.3325528 38.8720062 33.2577101 42.9398812"></polygon>
                    <polygon id="Fill-7" points="30.7710438 0.19840625 0.197673034 30.9472187 0.197673034 39.3078437 0.2691 39.2365312 30.8227517 69.9748437 30.8174933 69.9805312 38.8847966 69.9805312 38.8939989 69.9709062 4.3439427 35.1686562 38.8365944 0.19840625"></polygon>
                </g>
            </g>
        </g>
    </g>
</svg>