<?xml version="1.0" encoding="UTF-8"?>
<svg width="39px" height="70px" viewBox="0 0 39 70" version="1.1" xmlns="http://www.w3.org/2000/svg" xmlns:xlink="http://www.w3.org/1999/xlink">
    <!-- Generator: Sketch 52.6 (67491) - http://www.bohemiancoding.com/sketch -->
    <title>Greca-Legislacion-2</title>
    <desc>Created with Sketch.</desc>
    <g id="Page-1" stroke="none" stroke-width="1" fill="none" fill-rule="evenodd">
        <g id="DIRECTORIO" transform="translate(-555.000000, -1837.000000)" fill="#009684">
            <g id="Greca-Legislacion-2" transform="translate(555.000000, 1837.000000)">
                <g id="Group-8" transform="translate(-0.000000, 0.000000)">
                    <polygon id="Fill-1" points="16.3296957 0.280652174 16.3288261 0.281521739 38.5196957 22.5232609 38.5196957 14.4380435 24.3636087 0.281521739 24.3644783 0.280652174"></polygon>
                    <polygon id="Fill-2" points="16.3754783 69.6291739 24.462 69.6291739 38.5198261 55.5796087 38.5198261 47.4939565"></polygon>
                    <polygon id="Fill-3" points="29.7636087 69.6291739 35.8396957 69.6291739 38.5196957 66.950913 38.5196957 60.8756957"></polygon>
                    <polygon id="Fill-4" points="29.7233913 0.280652174 38.519913 9.14717391 38.519913 3.06586957 35.7355652 0.280652174"></polygon>
                    <polygon id="Fill-5" points="26.081 35.2256522 5.71795652 55.5795652 1.67491304 51.5369565 17.994913 35.2256522 1.67491304 18.9143478 5.71795652 14.8713043"></polygon>
                    <polygon id="Fill-6" points="13.7945652 35.2256522 5.7176087 43.2978261 1.67456522 39.2552174 5.70847826 35.2256522 1.67456522 31.196087 5.7176087 27.1534783"></polygon>
                    <polygon id="Fill-7" points="0.135086957 0.280652174 0.125956522 0.290217391 34.4059565 34.8763043 0.182913043 69.6293478 8.18508696 69.6293478 38.5198696 39.0715217 38.5198696 30.7623913 38.449 30.8332609 8.13334783 0.286304348 8.139 0.280652174"></polygon>
                </g>
            </g>
        </g>
    </g>
</svg>