<?xml version="1.0" encoding="UTF-8"?>
<svg width="95px" height="88px" viewBox="0 0 95 88" version="1.1" xmlns="http://www.w3.org/2000/svg" xmlns:xlink="http://www.w3.org/1999/xlink">
    <!-- Generator: Sketch 52.6 (67491) - http://www.bohemiancoding.com/sketch -->
    <title>Ico-respeto-derechos-humanos</title>
    <desc>Created with Sketch.</desc>
    <g id="Page-1" stroke="none" stroke-width="1" fill="none" fill-rule="evenodd">
        <g id="Iguladad-de-genero-2025" transform="translate(-446.000000, -521.000000)">
            <g id="Ico-respeto-derechos-humanos" transform="translate(447.000000, 522.000000)">
                <g>
                    <path d="M13,74.5 C13,75.6045714 12.1045714,76.5 11,76.5 C9.89542857,76.5 9,75.6045714 9,74.5 C9,73.3954286 9.89542857,72.5 11,72.5 C12.1045714,72.5 13,73.3954286 13,74.5" id="Fill-1" fill="#C90166"></path>
                    <path d="M7.16244791,70.5 C7.16244791,70.5 0,61.8461538 0,57.2788462 L0,25.1723558 C0,22.6026442 2.02508103,20.5 4.5,20.5 C6.97491897,20.5 9,22.6026442 9,25.1723558 L9,51.5096154" id="Stroke-3" stroke="#C90166" stroke-width="2" stroke-linecap="round" stroke-linejoin="round"></path>
                    <path d="M20.8407563,64.1381977 L10.9537436,56.0297335 C8.71462051,54.1932444 8.34476221,50.8083191 10.1317841,48.5075165 C11.9190409,46.2067138 15.2132236,45.8266673 17.4523467,47.6631564 C17.4523467,47.6631564 24.8866395,53.7202386 27.3393593,55.7718621 C30.7611361,58.6338008 32.185584,59.906015 35.7102819,71.7371967 C36.8809516,75.6661149 39,85.5 39,85.5" id="Stroke-5" stroke="#C90166" stroke-width="2" stroke-linecap="round" stroke-linejoin="round"></path>
                    <path d="M13,79.5 L18,85.5" id="Stroke-7" stroke="#C90166" stroke-width="2" stroke-linecap="round" stroke-linejoin="round"></path>
                    <path d="M80,74.5 C80,75.6045714 80.8954286,76.5 82,76.5 C83.1045714,76.5 84,75.6045714 84,74.5 C84,73.3954286 83.1045714,72.5 82,72.5 C80.8954286,72.5 80,73.3954286 80,74.5" id="Fill-9" fill="#C90166"></path>
                    <path d="M85.8375521,70.5 C85.8375521,70.5 93,61.8461538 93,57.2788462 L93,25.1723558 C93,22.6026442 90.974919,20.5 88.5,20.5 C86.025081,20.5 84,22.6026442 84,25.1723558 L84,51.5096154" id="Stroke-11" stroke="#C90166" stroke-width="2" stroke-linecap="round" stroke-linejoin="round"></path>
                    <path d="M72.1592706,64.1381977 L82.0462978,56.0297335 C84.2854243,54.1932444 84.6552831,50.8083191 82.8680236,48.5075165 C81.0809991,46.2067138 77.7868116,45.8266673 75.5476852,47.6631564 C75.5476852,47.6631564 68.1131463,53.7202386 65.6606579,55.7718621 C62.2386411,58.6338008 60.8144261,59.906015 57.2897229,71.7371967 C56.1190515,75.6661149 54,85.5 54,85.5" id="Stroke-13" stroke="#C90166" stroke-width="2" stroke-linecap="round" stroke-linejoin="round"></path>
                    <path d="M80,79.5 L75,85.5" id="Stroke-15" stroke="#C90166" stroke-width="2" stroke-linecap="round" stroke-linejoin="round"></path>
                    <path d="M39.8631344,48.5 L30.0044242,48.5 C29.4520025,48.5 29,48.0259189 29,47.4462703 L29,40.2885946 C29,34.9048919 33.1997502,30.5 38.3324949,30.5 L42,30.5" id="Stroke-17" stroke="#C90166" stroke-width="2" stroke-linecap="round" stroke-linejoin="round"></path>
                    <path d="M51,30.5 L54.707061,30.5 C59.8183853,30.5 64,34.9048919 64,40.2885946 L64,47.446027 C64,48.0256757 63.5499245,48.5 62.999627,48.5 L52.8829736,48.5" id="Stroke-19" stroke="#C90166" stroke-width="2" stroke-linecap="round" stroke-linejoin="round"></path>
                    <path d="M51,24.0997382 L51,30.4793597 L47.4475781,36.2473906 C47.2400688,36.5842031 46.7599312,36.5842031 46.5526512,36.2473906 L43,30.4793597 L43,24.0997382" id="Stroke-21" stroke="#C90166" stroke-width="2" stroke-linecap="round" stroke-linejoin="round"></path>
                    <path d="M49,46.5 C49,47.6045714 48.1045714,48.5 47,48.5 C45.8954286,48.5 45,47.6045714 45,46.5 C45,45.3954286 45.8954286,44.5 47,44.5 C48.1045714,44.5 49,45.3954286 49,46.5" id="Fill-23" fill="#C90166"></path>
                    <path d="M58,12.5 C58,19.1274951 52.8513542,24.5 46.5,24.5 C40.1486458,24.5 35,19.1274951 35,12.5 C35,5.87250485 40.1486458,0.5 46.5,0.5 C52.8513542,0.5 58,5.87250485 58,12.5 Z" id="Stroke-25" stroke="#C90166" stroke-width="2" stroke-linecap="round" stroke-linejoin="round"></path>
                    <path d="M36,12.3342883 C36,12.3342883 40.334234,12.9037271 43.7234043,11.9314309 C47.2340426,10.9242875 50.0425532,7.5 50.0425532,7.5 C50.0425532,7.5 53.3191489,11.9314309 58,11.9314309" id="Stroke-27" stroke="#C90166" stroke-width="2" stroke-linecap="round" stroke-linejoin="round"></path>
                    <path d="M35,47.5 L35,41.5" id="Stroke-29" stroke="#C90166" stroke-width="2" stroke-linecap="round" stroke-linejoin="round"></path>
                    <path d="M58,47.5 L58,41.5" id="Stroke-31" stroke="#C90166" stroke-width="2" stroke-linecap="round" stroke-linejoin="round"></path>
                    <path d="M26.3564336,38.5 L18.7726425,38.5 C18.3477647,38.5 18,38.167116 18,37.7601774 L18,32.7353175 C18,28.955878 21.2304319,25.8634338 25.1790736,25.8634338 L26.9446096,25.8634338 C27.5274936,25.8634338 28,25.4111458 28,24.8532033 L28,22.3895248" id="Stroke-33" stroke="#C90166" stroke-width="2" stroke-linecap="round" stroke-linejoin="round"></path>
                    <path d="M42,30.5 C41.004635,28.0729412 38.374044,26.6258824 35.6336037,26.6258824 L33.9705678,26.6258824 C33.4345307,26.6258824 33,26.1849412 33,25.6407059 L33,22.5" id="Stroke-35" stroke="#C90166" stroke-width="2" stroke-linecap="round" stroke-linejoin="round"></path>
                    <path d="M36,19.0557491 C34.5862508,21.1454276 32.317857,22.5 29.7607752,22.5 C25.4745342,22.5 22,18.6943743 22,14 C22,9.30562565 25.4745342,5.5 29.7607752,5.5 C31.9701092,5.5 33.9638549,6.51116302 35.3772757,8.13410413" id="Stroke-37" stroke="#C90166" stroke-width="2" stroke-linecap="round" stroke-linejoin="round"></path>
                    <path d="M22.2862548,13.4782401 C23.4436295,13.534463 25.1867558,13.5112006 26.680289,13.0451348 C29.262327,12.2393189 31.3279087,9.5 31.3279087,9.5 C31.3279087,9.5 33.0114976,11.2513977 35,12.1719399" id="Stroke-39" stroke="#C90166" stroke-width="2" stroke-linecap="round" stroke-linejoin="round"></path>
                    <path d="M67.6435664,38.5 L75.2271055,38.5 C75.6522353,38.5 76,38.167116 76,37.7601774 L76,32.7353175 C76,28.955878 72.7693161,25.8634338 68.8209264,25.8634338 L67.0551383,25.8634338 C66.4725064,25.8634338 66,25.4111458 66,24.8532033 L66,22.142005" id="Stroke-41" stroke="#C90166" stroke-width="2" stroke-linecap="round" stroke-linejoin="round"></path>
                    <path d="M51,30.5 C51.995365,28.0729412 54.625956,26.6258824 57.3663963,26.6258824 L59.0294322,26.6258824 C59.5654693,26.6258824 60,26.1849412 60,25.6407059 L60,22.5" id="Stroke-43" stroke="#C90166" stroke-width="2" stroke-linecap="round" stroke-linejoin="round"></path>
                    <path d="M57,19.0557491 C58.4137262,21.1454276 60.6820829,22.5 63.239123,22.5 C67.5252941,22.5 71,18.6943743 71,14 C71,9.30562565 67.5252941,5.5 63.239123,5.5 C61.0454494,5.5 59.0641772,6.49692797 57.6525066,8.09979977" id="Stroke-45" stroke="#C90166" stroke-width="2" stroke-linecap="round" stroke-linejoin="round"></path>
                    <path d="M70.73804,13.4789355 C69.6151004,13.5342624 67.9318867,13.5092676 66.4888304,13.0451348 C63.9836675,12.2393189 61.9793485,9.5 61.9793485,9.5 C61.9793485,9.5 60.6638962,10.9104055 59,11.8650925" id="Stroke-47" stroke="#C90166" stroke-width="2" stroke-linecap="round" stroke-linejoin="round"></path>
                </g>
            </g>
        </g>
    </g>
</svg>