<?xml version="1.0" encoding="UTF-8"?>
<svg width="87px" height="88px" viewBox="0 0 87 88" version="1.1" xmlns="http://www.w3.org/2000/svg" xmlns:xlink="http://www.w3.org/1999/xlink">
    <!-- Generator: Sketch 52.6 (67491) - http://www.bohemiancoding.com/sketch -->
    <title>ico-herramientas</title>
    <desc>Created with Sketch.</desc>
    <g id="Page-1" stroke="none" stroke-width="1" fill="none" fill-rule="evenodd" stroke-linecap="round" stroke-linejoin="round">
        <g id="Iguladad-de-genero-2025" transform="translate(-457.000000, -867.000000)" stroke="#1D1D1D">
            <g id="ico-herramientas" transform="translate(458.000000, 868.000000)">
                <g>
                    <path d="M11,41 L11,47 C11,51.971 15.029,56 20,56 C24.971,56 29,51.971 29,47 L29,40" id="Stroke-1" stroke-width="2"></path>
                    <path d="M20,19.6572 L20,2.6102 C20,1.1752 21.175,0.0002 22.61,0.0002 L82.39,0.0002 C83.825,0.0002 85,1.1752 85,2.6102 L85,59.3892 C85,60.8252 83.825,62.0002 82.39,62.0002 L63.995,62.0002" id="Stroke-3" stroke-width="2"></path>
                    <path d="M70,7 L74.564,7 C75.169,7 75.725,7.239 76.151,7.635 C76.67,8.114 77,8.822 77,9.61 L77,16" id="Stroke-5" stroke-width="1.932"></path>
                    <path d="M63,7 L67,7" id="Stroke-7" stroke-width="1.932"></path>
                    <path d="M74.4121,62 L74.4121,75" id="Stroke-9" stroke-width="2"></path>
                    <path d="M80,80.5 C80,83.537 77.537,86 74.5,86 C71.463,86 69,83.537 69,80.5 C69,77.463 71.463,75 74.5,75 C77.537,75 80,77.463 80,80.5 Z" id="Stroke-11" stroke-width="2"></path>
                    <path d="M27,57 L53.5,57 C55.975,57 58,59.025 58,61.5 C58,63.975 55.975,66 53.5,66 L34,66 L34,85" id="Stroke-13" stroke-width="2"></path>
                    <path d="M47.6104,57 L47.6104,66" id="Stroke-15" stroke-width="2"></path>
                    <path d="M0,85.417 L0,65.583 C0,61.412 3.412,58 7.583,58 L13,58" id="Stroke-17" stroke-width="2"></path>
                    <path d="M8,73 L8,86" id="Stroke-19" stroke-width="2"></path>
                    <path d="M14,54 L14,56.333 C14,59.647 16.687,62.333 20,62.333 C23.313,62.333 26,59.647 26,56.333 L26,54" id="Stroke-21" stroke-width="2"></path>
                    <path d="M30,40 L30,35 C30,28.925 25.075,24 19,24 C12.925,24 8,28.925 8,35 L8,41 C8,41 12,41 14,39 C16.121,36.879 16,33 16,33 C16,33 16.4,36.903 20,39 C22.262,40.317 26.913,40.386 30,40 Z" id="Stroke-23" stroke-width="2"></path>
                    <path d="M9.5,48 C7.567,48 6,46.433 6,44.5 C6,42.567 7.567,41 9.5,41" id="Stroke-25" stroke-width="2"></path>
                    <path d="M30,41 C31.933,41 33.5,42.567 33.5,44.5 C33.5,46.433 31.933,48 30,48" id="Stroke-27" stroke-width="2"></path>
                    <path d="M56,29.5 C56,34.747 51.747,39 46.5,39 C41.253,39 37,34.747 37,29.5 C37,24.253 41.253,20 46.5,20 C51.747,20 56,24.253 56,29.5 Z" id="Stroke-29" stroke-width="2"></path>
                    <path d="M53.0576,22.5186 C54.7506,20.9556 57.0136,19.9996 59.4996,19.9996 C64.7466,19.9996 68.9996,24.2526 68.9996,29.4996 C68.9996,34.7476 64.7466,38.9996 59.4996,38.9996 C54.2526,38.9996 49.9996,34.7476 49.9996,29.4996 C49.9996,28.5826 50.1296,27.6966 50.3716,26.8576 C50.5156,26.3626 50.6986,25.8836 50.9156,25.4256" id="Stroke-31" stroke-width="2"></path>
                    <polyline id="Stroke-33" stroke-width="2" points="66 16 72 16 72 22"></polyline>
                    <path d="M66,22 L71.5,16.5" id="Stroke-35" stroke-width="2"></path>
                    <path d="M47,39 L47,48" id="Stroke-37" stroke-width="2"></path>
                    <path d="M43,44 L51,44" id="Stroke-39" stroke-width="2"></path>
                </g>
            </g>
        </g>
    </g>
</svg>