<?xml version="1.0" encoding="UTF-8"?>
<svg width="48px" height="83px" viewBox="0 0 48 83" version="1.1" xmlns="http://www.w3.org/2000/svg" xmlns:xlink="http://www.w3.org/1999/xlink">
    <!-- Generator: Sketch 52.6 (67491) - http://www.bohemiancoding.com/sketch -->
    <title>ico-sabias-que</title>
    <desc>Created with Sketch.</desc>
    <g id="Page-1" stroke="none" stroke-width="1" fill="none" fill-rule="evenodd" stroke-linecap="round" stroke-linejoin="round">
        <g id="Iguladad-de-genero-2025" transform="translate(-176.000000, -864.000000)" stroke="#1D1D1D">
            <g id="ico-sabias-que" transform="translate(177.000000, 865.000000)">
                <g id="Group-13">
                    <path d="M34,81 L34,66 L44,53 C46,48 46.524,41.82 44,39 C42.73,37.581 41,36 37,36 L21,36 C21,36 20,45 30,45 L35,45 C35,45 19,46 19,62" id="Stroke-1" stroke-width="2"></path>
                    <path d="M30,35 L30,5.5 C30,2.475 32.475,0 35.5,0 C38.525,0 41,2.475 41,5.5 L41,36.5" id="Stroke-3" stroke-width="2"></path>
                    <path d="M20,34.9092 L20,19.0002 C20,16.2502 22.25,14.0002 25,14.0002 C27.75,14.0002 30,16.2502 30,19.0002 L30,33.0912" id="Stroke-5" stroke-width="2"></path>
                    <path d="M15,40 C12.25,40 10,37.75 10,35 L10,26 C10,23.25 12.25,21 15,21 C17.75,21 20,23.25 20,26 L20,35 C20,37.75 17.75,40 15,40 Z" id="Stroke-7" stroke-width="1.907"></path>
                    <path d="M5,40 C2.25,40 0,37.75 0,35 L0,31 C0,28.25 2.25,26 5,26 C7.75,26 10,28.25 10,31 L10,35 C10,37.75 7.75,40 5,40 Z" id="Stroke-9" stroke-width="2"></path>
                    <path d="M0,35 L0,45 C0,45 0,54 6,60 L6,81" id="Stroke-11" stroke-width="2"></path>
                </g>
            </g>
        </g>
    </g>
</svg>