<?xml version="1.0" encoding="UTF-8"?>
<svg width="88px" height="88px" viewBox="0 0 88 88" version="1.1" xmlns="http://www.w3.org/2000/svg" xmlns:xlink="http://www.w3.org/1999/xlink">
    <!-- Generator: Sketch 52.6 (67491) - http://www.bohemiancoding.com/sketch -->
    <title>ico-igualdad-oportunidades</title>
    <desc>Created with Sketch.</desc>
    <g id="Page-1" stroke="none" stroke-width="1" fill="none" fill-rule="evenodd">
        <g id="Iguladad-de-genero-2025" transform="translate(-150.000000, -523.000000)">
            <g id="ico-igualdad-oportunidades" transform="translate(151.000000, 524.000000)">
                <g id="ico-iguladad-oportunidades">
                    <path d="M74.1290323,32 L81.8889796,32 C84.1498776,32 86,33.8745588 86,36.1658088 L86,46.0444118 C86,46.5698529 85.5755102,47 85.0569796,47 L54.9428027,47 C54.4242721,47 54,46.5698529 54,46.0444118 L54,36.1658088 C54,33.8745588 55.8499048,32 58.1110204,32 L65.7408081,32" id="Stroke-1" stroke="#C90166" stroke-width="2" stroke-linecap="round" stroke-linejoin="round"></path>
                    <path d="M12.288,27 C12.288,31.7694369 8.77540136,32.184701 8.77540136,32.184701 L4.11102041,32.184701 C1.84990476,32.184701 0,34.0361777 0,36.2992146 L0,46.0561783 C0,46.5753674 0.424272109,47 0.943020408,47 L31.0569796,47 C31.5757279,47 32,46.5753674 32,46.0561783 L32,36.2992146 C32,34.0361777 30.1500952,32.184701 27.8889796,32.184701 L22.9250612,32.184701 C22.9250612,32.184701 18.3148844,31.816933 18.3148844,27.4357441" id="Stroke-3" stroke="#C90166" stroke-width="2" stroke-linecap="round" stroke-linejoin="round"></path>
                    <path d="M66.1142045,29 C62.5215616,27.4888348 60,23.9457436 60,19.8156514 C60,19.3581486 60.016031,18.9057575 60.0908421,18.4669977 C60.6117411,15.4046252 63.5708408,12.7024191 68.6346974,12.7024191 C70.9166497,12.7024191 72.9053426,10 72.9053426,10 C72.9053426,10 73.8000834,12.2116898 75.4365228,12.9724906 C78.8263207,14.5488308 79.6511665,16.5660606 79.9093717,18.4669977 C79.9692206,18.9081004 80,19.3581486 80,19.8156514 C80,23.9408448 77.4844233,27.4807412 73.8981928,28.9948882" id="Stroke-5" stroke="#C90166" stroke-width="2" stroke-linecap="round" stroke-linejoin="round"></path>
                    <path d="M74,29 L74,32.3875176 L70.4473488,37.7645158 C70.2400688,38.0784947 69.7599312,38.0784947 69.5526512,37.7645158 L66,32.3875176 L66,29" id="Stroke-7" stroke="#C90166" stroke-width="2" stroke-linecap="round" stroke-linejoin="round"></path>
                    <path d="M59.0285714,17.9821429 C58.6857143,16.625 58.0049854,14.0696827 58.0049854,12.3330257 C58.0049854,10.1284533 57.9517899,9.24303 58.1929284,8.04442112 C59.1636375,3.22039842 63.1818809,0 67.881555,0 C72.4132895,0 73.6785525,2.34374171 73.6785525,2.34374171 C73.6785525,2.34374171 75.132418,0.834138858 77.0707589,1.62619819 C78.8681974,2.36061735 80.3257998,3.86320695 81.2679328,5.90888538 C82.1493964,7.82262697 81.9884908,10.0184329 81.9884908,12.3330257 C81.9884908,14.4409028 81.0253597,17.2147794 80.2857143,19" id="Stroke-9" stroke="#C90166" stroke-width="2" stroke-linecap="round" stroke-linejoin="round"></path>
                    <path d="M83.3232015,62 L1.67679847,62 C0.750688776,62 0,61.3076 0,60.4534 L0,54.5466 C0,53.6924 0.750688776,53 1.67679847,53 L83.3232015,53 C84.2493112,53 85,53.6924 85,54.5466 L85,60.4534 C85,61.3076 84.2493112,62 83.3232015,62 Z" id="Stroke-11" stroke="#C90166" stroke-width="2" stroke-linecap="round" stroke-linejoin="round"></path>
                    <path d="M25,17.1428571 C25,22.1134286 20.9705714,27 16,27 C11.0294286,27 7,22.1134286 7,17.1428571 C7,17.1428571 10.0977143,16.6165714 12.1428571,14.5714286 C14.1691429,12.5451429 16,9 16,9 C16,9 17.5597857,12.4883571 19.4285714,14.3571429 C21.4169286,16.3455 25,17.1428571 25,17.1428571 Z" id="Stroke-13" stroke="#C90166" stroke-width="2" stroke-linecap="round" stroke-linejoin="round"></path>
                    <path d="M32,36 L32,16.917843 C32,8.12658298 24.8366345,1 16,1 C7.16336552,1 0,8.12658298 0,16.917843 L0,36" id="Stroke-15" stroke="#C90166" stroke-width="2" stroke-linecap="round" stroke-linejoin="round"></path>
                    <path d="M13,86 L67,86" id="Stroke-17" stroke="#C90166" stroke-width="2" stroke-linecap="round" stroke-linejoin="round"></path>
                    <path d="M36,63 L30,86" id="Stroke-19" stroke="#C90166" stroke-width="2" stroke-linecap="round" stroke-linejoin="round"></path>
                    <path d="M49,63 L55,86" id="Stroke-21" stroke="#C90166" stroke-width="2" stroke-linecap="round" stroke-linejoin="round"></path>
                    <path d="M42.1085859,73 L42.1085859,86" id="Stroke-23" stroke="#C90166" stroke-width="2" stroke-linecap="round" stroke-linejoin="round"></path>
                    <path d="M44,68.5 C44,69.3284286 43.3284286,70 42.5,70 C41.6715714,70 41,69.3284286 41,68.5 C41,67.6715714 41.6715714,67 42.5,67 C43.3284286,67 44,67.6715714 44,68.5" id="Fill-25" fill="#C90166"></path>
                    <path d="M73,85.5 C73,86.3284286 72.3284286,87 71.5,87 C70.6715714,87 70,86.3284286 70,85.5 C70,84.6715714 70.6715714,84 71.5,84 C72.3284286,84 73,84.6715714 73,85.5" id="Fill-27" fill="#C90166"></path>
                    <path d="M25,32.5516812 C25,35.7966086 22.4405301,37 19.3122169,37 L12.6877831,37 C9.55946988,37 7,35.7966086 7,32.5516812" id="Stroke-29" stroke="#C90166" stroke-width="2" stroke-linecap="round" stroke-linejoin="round"></path>
                </g>
            </g>
        </g>
    </g>
</svg>