<?xml version="1.0" encoding="UTF-8"?>
<svg width="86px" height="83px" viewBox="0 0 86 83" version="1.1" xmlns="http://www.w3.org/2000/svg" xmlns:xlink="http://www.w3.org/1999/xlink">
    <!-- Generator: Sketch 52.6 (67491) - http://www.bohemiancoding.com/sketch -->
    <title>ico-estableciendo</title>
    <desc>Created with Sketch.</desc>
    <g id="Page-1" stroke="none" stroke-width="1" fill="none" fill-rule="evenodd" stroke-linecap="round" stroke-linejoin="round">
        <g id="Iguladad-de-genero-2025" transform="translate(-743.000000, -531.000000)" stroke="#C90166">
            <g id="ico-estableciendo" transform="translate(744.000000, 532.000000)">
                <g id="Group-35">
                    <path d="M9,45.1943051 C17.9907357,35.5945085 20.4499749,35 24.1154191,35 C27.8287238,35 34.4301542,37.8474576 37.5245748,38.8644068 C39.5875218,39.5423729 42.2459969,39.920904 45.5,40 C48.5,40 50.3112435,40.7062147 50.9337304,42.1186441 C51.8969376,44.3041712 51,46.5 48.5,47.5" id="Stroke-1" stroke-width="2"></path>
                    <path d="M32,46.3321174 C32,46.3321174 38.6129217,48.564583 45.0191896,48.1586801 C50.4793964,47.812648 60.4750342,43.0132528 65.68457,39.8376719 C66.7827283,39.1681352 70.8509151,36.5904492 72.5041455,39.0258663 C74.1573759,41.4612833 71.2299181,43.4597459 70.2309537,44.0996517 C67.253899,46.0065833 59.0716483,51 59.0716483,51" id="Stroke-3" stroke-width="2"></path>
                    <path d="M21,57 C21,57 24.4237283,54.7949091 30.3063584,55.1818182 C38.6011561,55.7272727 40.4254046,55.7483636 45.0751445,55.9090909 C50.3352601,56.0909091 56,53 56,53" id="Stroke-5" stroke-width="2"></path>
                    <path d="M3.12534487,54.015601 L0,50.8902871 L5.26177527,45.6283556 C6.09959112,44.7905481 7.4582283,44.7905481 8.29625256,45.6283556 L20.3716381,57.7038298 C21.209454,58.5418457 21.209454,59.900261 20.3716381,60.7382769 L15.1098628,66 L6.1220996,57.012326" id="Stroke-7" stroke-width="2"></path>
                    <path d="M61,36 L44,36 L44,33.5932692 C44,32.1609615 45.2515732,31 46.7954634,31 L58.2045366,31 C59.7484268,31 61,32.1609615 61,33.5932692 L61,36 Z" id="Stroke-9" stroke-width="2"></path>
                    <path d="M55,7 C55,8.65682759 53.6568276,10 52,10 C50.3431724,10 49,8.65682759 49,7 C49,5.34317241 50.3431724,4 52,4 C53.6568276,4 55,5.34317241 55,7 Z" id="Stroke-11" stroke-width="2"></path>
                    <path d="M52,10 L52,31" id="Stroke-13" stroke-width="2"></path>
                    <path d="M56,8 L57.9612593,8 C58.6780926,8 59.3822963,8.16872727 60.0023704,8.48927273 L61.9791111,9.51072727 C62.5991852,9.83127273 63.3033889,10 64.0202222,10 L67,10" id="Stroke-15" stroke-width="2"></path>
                    <path d="M37,10 L40.8973818,10 C41.6326545,10 42.3561455,9.84509091 43.0002182,9.54981818 L45.3997818,8.45018182 C46.0438545,8.15490909 46.7673455,8 47.5026182,8 L49,8" id="Stroke-17" stroke-width="2"></path>
                    <path d="M44,18 C44,21.3137778 41.5374259,24 38.5,24 C35.4623704,24 33,21.3137778 33,18 L44,18 Z" id="Stroke-19" stroke-width="2"></path>
                    <polyline id="Stroke-21" stroke-width="2" points="34 18 36.250158 14 38.4998947 10 40.749842 14 43 18"></polyline>
                    <path d="M71,18 C71,21.3137778 68.5374259,24 65.5,24 C62.4623704,24 60,21.3137778 60,18 L71,18 Z" id="Stroke-23" stroke-width="2"></path>
                    <polyline id="Stroke-25" stroke-width="2" points="61 18 63.250158 14 65.4998947 10 67.749842 14 70 18"></polyline>
                    <polyline id="Stroke-27" stroke-width="2" points="21 28.7644569 21 0 84 0 84 81 21 81 21 67.6370558"></polyline>
                    <path d="M29,62 L76,62" id="Stroke-29" stroke-width="2"></path>
                    <path d="M29,69 L76,69" id="Stroke-31" stroke-width="2"></path>
                    <path d="M29,75 L76,75" id="Stroke-33" stroke-width="2"></path>
                </g>
            </g>
        </g>
    </g>
</svg>