<?xml version="1.0" encoding="UTF-8"?>
<svg width="55px" height="52px" viewBox="0 0 55 52" version="1.1" xmlns="http://www.w3.org/2000/svg" xmlns:xlink="http://www.w3.org/1999/xlink">
    <!-- Generator: Sketch 52.6 (67491) - http://www.bohemiancoding.com/sketch -->
    <title>Ico-negociacion</title>
    <desc>Created with Sketch.</desc>
    <g id="Page-1" stroke="none" stroke-width="1" fill="none" fill-rule="evenodd">
        <g id="INICIO-CEJA-" transform="translate(-82.000000, -1312.000000)">
            <g id="MASC" transform="translate(46.000000, 951.000000)">
                <g id="1-mediacion" transform="translate(0.000000, 241.000000)">
                    <g id="Ico-negociacion" transform="translate(36.000000, 120.000000)">
                        <g>
                            <g id="persona" transform="translate(0.000000, 16.000000)">
                                <path d="M13.6562648,14.7746582 L21.5712891,14.7746582 L21.5712891,11.9767568 C21.5712891,11.8389172 21.4597213,11.7270845 21.3218821,11.7267575 L14.2293225,11.7099343 L10.1461131,8.3536377 L7.51901001,8.3536377 C5.729653,8.3536377 4.27689605,9.80002752 4.26904139,11.5893667 C4.25634702,14.4783069 4.25,17.2311542 4.25,19.8479004 C4.25,23.8247112 6.2593428,25.0586456 9.51511209,25.1900634 C10.4951622,25.2296227 11.497428,25.2296227 12.5219282,25.190013 L13.3039655,25.1597776 L13.2687002,34.1557583 C13.2686986,34.1562483 13.2686986,34.1562483 13.2686983,34.1567383 C13.2686983,34.2948095 13.3806271,34.4067383 13.5186983,34.4067383 L16.8077393,34.4067383 C16.9458104,34.4067383 17.0577393,34.2948095 17.0577393,34.1567383 L17.0577393,23.3945487 C17.0577393,21.6069368 15.7036519,20.1099375 13.9994965,19.9349364 L9.25,19.9317476 L9.25,12.855216 L13.6562648,14.7746582 Z" id="Rectangle" stroke="#1D1D1B" stroke-width="1.5"></path>
                                <circle id="Oval" stroke="#1D1D1B" stroke-width="1.5" cx="8" cy="4" r="4"></circle>
                                <path d="M12.1712593,28.75 L11.8212593,25.25 L9,25.25 C8.04125144,25.25 7.16787401,24.8935142 6.36040301,24.3009281 C6.03080577,24.0590436 5.89567457,23.9375624 5.48192973,23.5423128 C4.66675335,22.7635766 4.26366502,21.6444062 4.25,20.2235107 L4.25,17.78125 C4.25,16.8147517 3.46649831,16.03125 2.5,16.03125 C1.53350169,16.03125 0.75,16.8147517 0.75,17.78125 L0.75,20.5 C0.75,22.3448978 1.20255108,23.8534014 2.1,25.05 C3.77083462,27.2777795 6.10185042,28.75 8.5,28.75 L12.1712593,28.75 Z" id="Path" stroke="#1D1D1B" stroke-width="1.5" fill="#C90166"></path>
                                <polygon id="Path-9" fill="#1D1D1B" points="6.25 29 7.75 29 7.75 32.5 6.25 32.5"></polygon>
                                <path d="M4.69079627,34.8739717 C4.52949461,35.2554879 4.08945374,35.4340071 3.7079375,35.2727055 C3.32642125,35.1114038 3.14790206,34.6713629 3.30920373,34.2898467 L4.30920373,31.9246123 C4.42655642,31.6470457 4.69864491,31.4666748 5,31.4666748 L9,31.4666748 C9.30135509,31.4666748 9.57344358,31.6470457 9.69079627,31.9246123 L10.6907963,34.2898467 C10.8520979,34.6713629 10.6735788,35.1114038 10.2920625,35.2727055 C9.91054626,35.4340071 9.47050539,35.2554879 9.30920373,34.8739717 L8.50281561,32.9666748 L5.49718439,32.9666748 L4.69079627,34.8739717 Z" id="Path" fill="#1D1D1B"></path>
                            </g>
                            <g id="persona-copy" transform="translate(44.000000, 34.000000) scale(-1, 1) translate(-44.000000, -34.000000) translate(33.000000, 16.000000)">
                                <path d="M13.6562648,14.7746582 L21.5712891,14.7746582 L21.5712891,11.9767568 C21.5712891,11.8389172 21.4597213,11.7270845 21.3218821,11.7267575 L14.2293225,11.7099343 L10.1461131,8.3536377 L7.51901001,8.3536377 C5.729653,8.3536377 4.27689605,9.80002752 4.26904139,11.5893667 C4.25634702,14.4783069 4.25,17.2311542 4.25,19.8479004 C4.25,23.8247112 6.2593428,25.0586456 9.51511209,25.1900634 C10.4951622,25.2296227 11.497428,25.2296227 12.5219282,25.190013 L13.3039655,25.1597776 L13.2687002,34.1557583 C13.2686986,34.1562483 13.2686986,34.1562483 13.2686983,34.1567383 C13.2686983,34.2948095 13.3806271,34.4067383 13.5186983,34.4067383 L16.8077393,34.4067383 C16.9458104,34.4067383 17.0577393,34.2948095 17.0577393,34.1567383 L17.0577393,23.3945487 C17.0577393,21.6069368 15.7036519,20.1099375 13.9994965,19.9349364 L9.25,19.9317476 L9.25,12.855216 L13.6562648,14.7746582 Z" id="Rectangle" stroke="#1D1D1B" stroke-width="1.5"></path>
                                <circle id="Oval" stroke="#1D1D1B" stroke-width="1.5" cx="8" cy="4" r="4"></circle>
                                <path d="M12.1712593,28.75 L11.8212593,25.25 L9,25.25 C8.04125144,25.25 7.16787401,24.8935142 6.36040301,24.3009281 C6.03080577,24.0590436 5.89567457,23.9375624 5.48192973,23.5423128 C4.66675335,22.7635766 4.26366502,21.6444062 4.25,20.2235107 L4.25,17.78125 C4.25,16.8147517 3.46649831,16.03125 2.5,16.03125 C1.53350169,16.03125 0.75,16.8147517 0.75,17.78125 L0.75,20.5 C0.75,22.3448978 1.20255108,23.8534014 2.1,25.05 C3.77083462,27.2777795 6.10185042,28.75 8.5,28.75 L12.1712593,28.75 Z" id="Shape" stroke="#1D1D1B" stroke-width="1.5" fill="#C90166"></path>
                                <polygon id="Path-9" fill="#1D1D1B" points="6.25 29 7.75 29 7.75 32.5 6.25 32.5"></polygon>
                                <path d="M4.69079627,34.8739717 C4.52949461,35.2554879 4.08945374,35.4340071 3.7079375,35.2727055 C3.32642125,35.1114038 3.14790206,34.6713629 3.30920373,34.2898467 L4.30920373,31.9246123 C4.42655642,31.6470457 4.69864491,31.4666748 5,31.4666748 L9,31.4666748 C9.30135509,31.4666748 9.57344358,31.6470457 9.69079627,31.9246123 L10.6907963,34.2898467 C10.8520979,34.6713629 10.6735788,35.1114038 10.2920625,35.2727055 C9.91054626,35.4340071 9.47050539,35.2554879 9.30920373,34.8739717 L8.50281561,32.9666748 L5.49718439,32.9666748 L4.69079627,34.8739717 Z" id="Path" fill="#1D1D1B"></path>
                            </g>
                            <path d="M32.3292398,36.5 L31.5316171,49.5 L32.1892707,49.5 L33.6835487,36.5 L32.3292398,36.5 Z M30.9184525,35 L35.365842,35 L33.6285493,50.1141926 C33.5705276,50.6189727 33.1431945,51 32.6350907,51 L30.9999991,51 C30.4477144,51 29.9999991,50.5522847 29.9999991,50 C29.9999991,49.9795721 30.000625,49.9591491 30.0018761,49.9387596 L30.9184525,35 Z" id="Rectangle-Copy-5" fill="#1D1D1B" fill-rule="nonzero" transform="translate(32.682921, 43.000000) scale(-1, 1) translate(-32.682921, -43.000000) "></path>
                            <path d="M23.6835496,36.5 L22.3292407,36.5 L21.531618,49.5 L22.1892716,49.5 L23.6835496,36.5 Z M20.9184534,35 L25.3658429,35 L23.6285502,50.1141926 C23.5705285,50.6189727 23.1431954,51 22.6350916,51 L21,51 C20.4477153,51 20,50.5522847 20,50 C20,49.9795721 20.0006259,49.9591491 20.001877,49.9387596 L20.9184534,35 Z" id="Rectangle-Copy-11" fill="#1D1D1B" fill-rule="nonzero"></path>
                            <path d="M15.0512695,34.5 L40.5,34.5 L40.5,31.5 L15.0512695,31.5 L15.0512695,34.5 Z M13.5512695,30 L42,30 L42,36 L13.5512695,36 L13.5512695,30 Z" id="Rectangle" fill="#1D1D1B" fill-rule="nonzero"></path>
                            <path d="M14.9533174,14.4200136 L17.7877343,12.0026821 C17.9234684,11.8869213 18.0960205,11.8233333 18.2744141,11.8233333 L27.4575195,11.8233333 C28.785648,11.8233333 29.8477272,10.812402 29.8477272,9.58435262 L29.8477272,3.98898072 C29.8477272,2.76093129 28.785648,1.75 27.4575195,1.75 L14.1402076,1.75 C12.8120792,1.75 11.75,2.76093129 11.75,3.98898072 L11.75,9.58435262 C11.75,10.812402 12.8120792,11.8233333 14.1402076,11.8233333 C14.5445185,11.8233333 14.8760612,12.1438141 14.889776,12.5478923 L14.9533174,14.4200136 Z M13.4130148,13.2580255 C11.617253,12.9313313 10.25,11.4172444 10.25,9.58435262 L10.25,3.98898072 C10.25,1.91549321 11.9997585,0.25 14.1402076,0.25 L27.4575195,0.25 C29.5979686,0.25 31.3477272,1.91549321 31.3477272,3.98898072 L31.3477272,9.58435262 C31.3477272,11.6578401 29.5979686,13.3233333 27.4575195,13.3233333 L18.5508003,13.3233333 L14.7431913,16.5706513 C14.2653661,16.9781643 13.5282458,16.6530795 13.5069432,16.025441 L13.4130148,13.2580255 Z" id="Path" fill="#1D1D1B" fill-rule="nonzero"></path>
                            <path d="M32.9533166,14.4200136 L35.7877335,12.0026821 C35.9234676,11.8869213 36.0960197,11.8233333 36.2744133,11.8233333 L43.4449542,11.8233333 C43.861598,11.8233333 44.2608419,11.7238459 44.6145411,11.5373603 L45.3141244,12.86423 C44.7454957,13.1640357 44.1062332,13.3233333 43.4449542,13.3233333 L36.5507995,13.3233333 L32.7431905,16.5706513 C32.2653653,16.9781643 31.528245,16.6530795 31.5069424,16.025441 L31.413014,13.2580255 C29.6172522,12.9313313 28.2499992,11.4172444 28.2499992,9.58435262 L28.2499992,3.98898072 C28.2499992,1.91549321 29.9997577,0.25 32.1402068,0.25 L43.4449542,0.25 C44.2235571,0.25 44.9703878,0.470975816 45.605318,0.878992897 L44.7943958,2.1408983 C44.4004549,1.88774506 43.9349187,1.75 43.4449542,1.75 L32.1402068,1.75 C30.8120784,1.75 29.7499992,2.76093129 29.7499992,3.98898072 L29.7499992,9.58435262 C29.7499992,10.812402 30.8120784,11.8233333 32.1402068,11.8233333 C32.5445177,11.8233333 32.8760604,12.1438141 32.8897752,12.5478923 L32.9533166,14.4200136 Z" id="Path" fill="#1D1D1B" transform="translate(36.927659, 8.500639) scale(-1, 1) translate(-36.927659, -8.500639) "></path>
                            <path d="M15,6.08333333 C14.5857864,6.08333333 14.25,5.7475469 14.25,5.33333333 C14.25,4.91911977 14.5857864,4.58333333 15,4.58333333 L25.0473633,4.58333333 C25.4615768,4.58333333 25.7973633,4.91911977 25.7973633,5.33333333 C25.7973633,5.7475469 25.4615768,6.08333333 25.0473633,6.08333333 L15,6.08333333 Z" id="Path" fill="#1D1D1B"></path>
                            <path d="M34.5,6.08333333 C34.0857864,6.08333333 33.75,5.7475469 33.75,5.33333333 C33.75,4.91911977 34.0857864,4.58333333 34.5,4.58333333 L41.0473633,4.58333333 C41.4615768,4.58333333 41.7973633,4.91911977 41.7973633,5.33333333 C41.7973633,5.7475469 41.4615768,6.08333333 41.0473633,6.08333333 L34.5,6.08333333 Z" id="Path-Copy-6" fill="#1D1D1B"></path>
                            <path d="M15,9.08333333 C14.5857864,9.08333333 14.25,8.7475469 14.25,8.33333333 C14.25,7.91911977 14.5857864,7.58333333 15,7.58333333 L20.3376617,7.58333333 C20.7518753,7.58333333 21.0876617,7.91911977 21.0876617,8.33333333 C21.0876617,8.7475469 20.7518753,9.08333333 20.3376617,9.08333333 L15,9.08333333 Z" id="Path-Copy-2" fill="#1D1D1B"></path>
                            <path d="M36,9.08333333 C35.5857864,9.08333333 35.25,8.7475469 35.25,8.33333333 C35.25,7.91911977 35.5857864,7.58333333 36,7.58333333 L41.0473633,7.58333333 C41.4615768,7.58333333 41.7973633,7.91911977 41.7973633,8.33333333 C41.7973633,8.7475469 41.4615768,9.08333333 41.0473633,9.08333333 L36,9.08333333 Z" id="Path-Copy-7" fill="#1D1D1B"></path>
                            <path d="M27.5,27.75 C24.0482203,27.75 21.25,24.9517797 21.25,21.5 C21.25,18.0482203 24.0482203,15.25 27.5,15.25 C30.9517797,15.25 33.75,18.0482203 33.75,21.5 C33.75,24.9517797 30.9517797,27.75 27.5,27.75 Z" id="Oval" fill="#009784" fill-rule="nonzero"></path>
                            <path d="M27.5,27.75 C24.0482203,27.75 21.25,24.9517797 21.25,21.5 C21.25,18.0482203 24.0482203,15.25 27.5,15.25 C30.9517797,15.25 33.75,18.0482203 33.75,21.5 C33.75,24.9517797 30.9517797,27.75 27.5,27.75 Z M27.5,26.25 C30.1233526,26.25 32.25,24.1233526 32.25,21.5 C32.25,18.8766474 30.1233526,16.75 27.5,16.75 C24.8766474,16.75 22.75,18.8766474 22.75,21.5 C22.75,24.1233526 24.8766474,26.25 27.5,26.25 Z" id="Oval" fill="#1D1D1B" fill-rule="nonzero"></path>
                            <path d="M29.4235956,19.5201479 C29.6886106,19.2018086 30.1615128,19.1585807 30.4798521,19.4235956 C30.7981914,19.6886106 30.8414193,20.1615128 30.5764044,20.4798521 L27.5764044,24.0834898 C27.2851939,24.4332954 26.7520583,24.4451794 26.4455501,24.1086974 L24.9455501,22.4620108 C24.6666133,22.1557966 24.6887261,21.681438 24.9949403,21.4025012 C25.3011546,21.1235645 25.7755132,21.1456773 26.0544499,21.4518915 L26.9745514,22.4619706 L29.4235956,19.5201479 Z" id="Path-17" fill="#1D1D1B"></path>
                        </g>
                    </g>
                </g>
            </g>
        </g>
    </g>
</svg>