<?xml version="1.0" encoding="UTF-8"?>
<svg width="49px" height="55px" viewBox="0 0 49 55" version="1.1" xmlns="http://www.w3.org/2000/svg" xmlns:xlink="http://www.w3.org/1999/xlink">
    <!-- Generator: Sketch 52.6 (67491) - http://www.bohemiancoding.com/sketch -->
    <title>Ico-restaurativa</title>
    <desc>Created with Sketch.</desc>
    <g id="Page-1" stroke="none" stroke-width="1" fill="none" fill-rule="evenodd">
        <g id="INICIO-CEJA-" transform="translate(-889.000000, -1313.000000)">
            <g id="Ico-restaurativa" transform="translate(890.000000, 1314.000000)">
                <g>
                    <path d="M40.4818502,25.6556329 L43.5617356,25.6556329 L43.5617356,41.6556329 L40.2087091,42.0484458 C39.1116423,42.176969 38.1181052,41.3918094 37.989582,40.2947426 C37.9773683,40.1904873 37.9733811,40.0854323 37.9776575,39.9805512 L38.4835106,27.5741535 C38.5272192,26.5021706 39.4089766,25.6556329 40.4818502,25.6556329 Z" id="Rectangle" fill="#009784" transform="translate(40.768866, 33.858927) rotate(-30.000000) translate(-40.768866, -33.858927) "></path>
                    <path d="M5.5,8.83642578 L18.4057617,8.83642578" id="Path-11" stroke="#1D1D1D" stroke-width="1.5" stroke-linecap="round" stroke-linejoin="round"></path>
                    <path d="M5.5,14.3522949 L31.5,14.3522949" id="Path-11-Copy" stroke="#1D1D1D" stroke-width="1.5" stroke-linecap="round" stroke-linejoin="round"></path>
                    <path d="M5.5,19.2202148 L31.5,19.2202148" id="Path-11-Copy-2" stroke="#1D1D1D" stroke-width="1.5" stroke-linecap="round" stroke-linejoin="round"></path>
                    <path d="M27.75,0.5 L27.75,1.09927697 L27.75,5.55047644 C27.750009,5.55984668 27.750009,5.55984668 27.750054,5.56921681 C27.7604041,7.36411241 29.2238448,8.81077243 31.0187404,8.80042241 L35.2248034,8.77616872 L36.5,8.8004776 L27.75,0.5 Z" id="Path" fill="#C90166"></path>
                    <path d="M27.75,0.5 L27.75,1.09927697 L27.75,5.55047644 C27.750009,5.55984668 27.750009,5.55984668 27.750054,5.56921681 C27.7604041,7.36411241 29.2238448,8.81077243 31.0187404,8.80042241 L35.2248034,8.77616872 L36.5,8.8004776" id="Path" stroke="#1D1D1D" stroke-width="1.5"></path>
                    <path d="M11.3491211,48.5 L4,48.5 C1.790861,48.5 -3.41306644e-13,46.709139 -3.45501405e-13,44.5 L-3.51718654e-13,3 C-3.5192156e-13,1.34314575 1.34314575,0 3,0 L28,0 L36.9919434,8.99194336 L36.9919434,23.5339355" id="Path-12" stroke="#1D1D1D" stroke-width="1.5" stroke-linecap="round" stroke-linejoin="round"></path>
                    <path d="M17,30.5004577 L18.4859664,31.0945722 C19.1409644,31.3564515 19.8672965,31.3791446 20.5373651,31.1586649 L22.2910048,30.5816463 C23.0636711,30.3274078 23.9064553,30.3978223 24.6262203,30.7767533 L26,31.5" id="Path-13" stroke="#1D1D1D" stroke-width="1.5"></path>
                    <path d="M35.5,31 L33.1340332,31.5 L31.8260318,30.8464236 C30.9704417,30.4189061 29.9899833,30.3121168 29.0624184,30.5454171 L26.9840415,31.0681686 C26.3382411,31.2305997 25.7432109,31.5516908 25.252926,32.0023156 L25.25,32.0050049 C24.7720256,32.444315 24.5,33.0638064 24.5,33.7130004 L24.5,37.1273072 C24.5,37.6103619 24.7984797,38.043172 25.25,38.2148438 C25.716934,38.3923759 26.2422684,38.3182987 26.6419042,38.0185718 L27,37.75 C27.6295146,37.277864 28,36.5368933 28,35.75 L28,35.3066406 C31.6666667,37.4355469 35.1666667,39.5 38.5,41.5 C40.5,42.5 41,44 40,45 C39,46 38.5,46 36,44.5 C34.3333333,43.5 32.5,42.3333333 30.5,41" id="Path-14" stroke="#1D1D1D" stroke-width="1.5" stroke-linecap="round" stroke-linejoin="round"></path>
                    <path d="M9.7876746,26.1782748 C9.64960341,26.1782748 9.5376746,26.2902036 9.5376746,26.4282748 L9.5376746,41.2454135 C9.5376746,41.3834846 9.64960341,41.4954135 9.7876746,41.4954135 L12.0069129,41.4954135 C13.2495536,41.4954135 14.2569129,40.4880541 14.2569129,39.2454135 L14.2569129,28.4282748 C14.2569129,27.1856341 13.2495536,26.1782748 12.0069129,26.1782748 L9.7876746,26.1782748 Z" id="Rectangle" stroke="#1D1D1D" stroke-width="1.5" fill="#009784" transform="translate(11.897294, 33.836844) rotate(30.000000) translate(-11.897294, -33.836844) "></path>
                    <path d="M9.7876746,26.1782748 C9.64960341,26.1782748 9.5376746,26.2902036 9.5376746,26.4282748 L9.5376746,41.2454135 C9.5376746,41.3834846 9.64960341,41.4954135 9.7876746,41.4954135 L12.0069129,41.4954135 C13.2495536,41.4954135 14.2569129,40.4880541 14.2569129,39.2454135 L14.2569129,28.4282748 C14.2569129,27.1856341 13.2495536,26.1782748 12.0069129,26.1782748 L9.7876746,26.1782748 Z" id="Rectangle" stroke="#1D1D1D" stroke-width="1.5" transform="translate(11.897294, 33.836844) rotate(30.000000) translate(-11.897294, -33.836844) "></path>
                    <path d="M38.7876751,26.1782748 C38.6496039,26.1782748 38.5376751,26.2902036 38.5376751,26.4282748 L38.5376751,41.2454135 C38.5376751,41.3834846 38.6496039,41.4954135 38.7876751,41.4954135 L41.0069134,41.4954135 C42.2495541,41.4954135 43.2569134,40.4880541 43.2569134,39.2454135 L43.2569134,28.4282748 C43.2569134,27.1856341 42.2495541,26.1782748 41.0069134,26.1782748 L38.7876751,26.1782748 Z" id="Rectangle-Copy-6" stroke="#1D1D1D" stroke-width="1.5" transform="translate(40.897294, 33.836844) scale(-1, 1) rotate(30.000000) translate(-40.897294, -33.836844) "></path>
                    <path d="M30.4976482,43.0154568 C30.4976482,41.7662413 31.3930787,40.753552 32.4976482,40.753552 C33.6022177,40.753552 34.4976482,41.7662413 34.4976482,43.0154568 L34.5013367,48.8464075" id="Path-Copy-5" stroke="#1D1D1D" stroke-width="1.5" stroke-linecap="round" transform="translate(32.499492, 44.799980) rotate(121.000000) translate(-32.499492, -44.799980) "></path>
                    <path d="M28.2687843,47.0239908 C28.4184484,45.942172 29.2460873,45.1145364 30.2446481,45.1145364 C31.3492176,45.1145364 32.2446481,46.1272256 32.2446481,47.3764411 C32.2459499,49.4343157 32.2468033,50.783427 32.2472083,51.423775" id="Path-Copy-5" stroke="#1D1D1D" stroke-width="1.5" stroke-linecap="round" transform="translate(30.257996, 48.269156) rotate(121.000000) translate(-30.257996, -48.269156) "></path>
                    <path d="M25.3149814,48.9071873 C25.5705416,48.3203406 26.3138946,48.0943958 26.8797609,48.0943958 C27.7083646,48.0943958 28.3800807,48.9465761 28.3800807,49.9977938 C28.380935,51.51268 28.38148,52.4793068 28.381716,52.8976743" id="Path-Copy-5" stroke="#1D1D1D" stroke-width="1.5" stroke-linecap="round" transform="translate(26.848349, 50.496035) rotate(121.000000) translate(-26.848349, -50.496035) "></path>
                    <path d="M41.5,40.5 L39,42" id="Path-15" stroke="#1D1D1D" stroke-width="1.5"></path>
                    <rect id="Rectangle-Copy-9" stroke="#1D1D1D" stroke-width="1.5" transform="translate(13.629234, 42.884834) rotate(35.000000) translate(-13.629234, -42.884834) " x="12.1700503" y="40.3848336" width="2.91836735" height="5" rx="1.45918367"></rect>
                    <rect id="Rectangle-Copy-10" stroke="#1D1D1D" stroke-width="1.5" transform="translate(22.629234, 49.884834) rotate(35.000000) translate(-22.629234, -49.884834) " x="21.1700503" y="47.3848336" width="2.91836735" height="5" rx="1.45918367"></rect>
                    <path d="M18.9456337,42.3288837 L18.9929028,42.3619819 C19.815241,42.9377893 20.0150937,44.0712104 19.4392863,44.8935486 L17.3541031,47.8714989 C16.7782956,48.6938372 15.6448746,48.8936899 14.8225363,48.3178824 L14.7752672,48.2847843 C13.952929,47.7089768 13.7530763,46.5755558 14.3288837,45.7532175 L16.414067,42.7752672 C16.9898744,41.952929 18.1232955,41.7530763 18.9456337,42.3288837 Z" id="Rectangle-Copy-7" stroke="#1D1D1D" stroke-width="1.5"></path>
                    <path d="M21.9456337,44.3288837 L21.9929028,44.3619819 C22.815241,44.9377893 23.0150937,46.0712104 22.4392863,46.8935486 L20.3541031,49.8714989 C19.7782956,50.6938372 18.6448746,50.8936899 17.8225363,50.3178824 L17.7752672,50.2847843 C16.952929,49.7089768 16.7530763,48.5755558 17.3288837,47.7532175 L19.414067,44.7752672 C19.9898744,43.952929 21.1232955,43.7530763 21.9456337,44.3288837 Z" id="Rectangle-Copy-8" stroke="#1D1D1D" stroke-width="1.5"></path>
                    <path d="M10,40.5 L12,42" id="Path-16" stroke="#1D1D1D" stroke-width="2"></path>
                </g>
            </g>
        </g>
    </g>
</svg>