<?xml version="1.0" encoding="UTF-8"?>
<svg width="43px" height="55px" viewBox="0 0 43 55" version="1.1" xmlns="http://www.w3.org/2000/svg" xmlns:xlink="http://www.w3.org/1999/xlink">
    <!-- Generator: Sketch 52.6 (67491) - http://www.bohemiancoding.com/sketch -->
    <title>ico-negociacion-colaborativa</title>
    <desc>Created with Sketch.</desc>
    <g id="Page-1" stroke="none" stroke-width="1" fill="none" fill-rule="evenodd">
        <g id="INICIO-CEJA-" transform="translate(-250.000000, -1308.000000)">
            <g id="MASC" transform="translate(46.000000, 951.000000)">
                <g id="2.Negociación-colaborativa" transform="translate(130.000000, 241.000000)">
                    <g id="ico-negociacion-colaborativa" transform="translate(74.000000, 116.109630)">
                        <g>
                            <path d="M36.4150635,27.2451905 L38.4150635,27.2451905 L38.4150635,42.2451905 L36.4150635,42.2451905 C34.7582093,42.2451905 33.4150635,40.9020448 33.4150635,39.2451905 L33.4150635,30.2451905 C33.4150635,28.5883363 34.7582093,27.2451905 36.4150635,27.2451905 Z" id="z" fill="#009784" transform="translate(35.915064, 34.745191) rotate(-30.000000) translate(-35.915064, -34.745191) "></path>
                            <path d="M4.79410251,27.0489533 L5.44184504,27.0514604 C7.64492394,27.0599873 9.42636328,28.848335 9.42636328,31.0514304 L9.42636328,39.0513705 C9.42636328,41.2605095 7.63550228,43.0513705 5.42636328,43.0513705 C5.42120268,43.0513705 5.41604208,43.0513605 5.41088151,43.0513405 L4.79410251,43.0489533 L4.79410251,27.0489533 Z" id="Rectangle" fill="#009784" transform="translate(7.110233, 35.057918) rotate(31.000000) translate(-7.110233, -35.057918) "></path>
                            <path d="M30,1 L30,5.89037037 C30,8.09950937 31.790861,9.89037037 34,9.89037037 L39,9.89037037 L30,1 Z" id="Path-42" fill="#C90166"></path>
                            <path d="M37.5395599,9.02434125 L38.9919434,10.5159912 L33.0230651,10.5504099 C30.8139628,10.5631484 29.012805,8.78264379 29.0000665,6.57354151 C29.0000222,6.56585324 29,6.55816485 29,6.55047644 L29,0.25390625 L30.5,1.79446016 L30.5,6.55047644 C30.5000069,6.55768431 30.5000069,6.55768431 30.5000416,6.56489211 C30.5080031,7.94558103 31.6337268,9.05839643 33.0144157,9.05043488 L37.5395599,9.02434125 Z M38.9919434,10.5159912 L33.0230651,10.5504099 C30.8139628,10.5631484 29.012805,8.78264379 29.0000665,6.57354151 C29.0000222,6.56585324 29,6.55816485 29,6.55047644 L29,0.25390625 L30.5,1.79446016 L30.5,6.55047644 C30.5000069,6.55768431 30.5000069,6.55768431 30.5000416,6.56489211 C30.5080031,7.94558103 31.6337268,9.05839643 33.0144157,9.05043488 L37.5395599,9.02434125 L38.9919434,10.5159912 Z" id="Path" fill="#1D1D1B" fill-rule="nonzero"></path>
                            <path d="M29.6893398,1.75 L5,1.75 C3.75735931,1.75 2.75,2.75735931 2.75,4 L2.75,26.4660645 C2.75,26.880278 2.41421356,27.2160645 2,27.2160645 C1.58578644,27.2160645 1.25,26.880278 1.25,26.4660645 L1.25,4 C1.25,1.92893219 2.92893219,0.25 5,0.25 L30,0.25 C30.1989124,0.25 30.3896778,0.32901763 30.5303301,0.469669914 L39.5222734,9.46161327 C39.6629257,9.60226556 39.7419434,9.79303099 39.7419434,9.99194336 L39.7419434,26 C39.7419434,26.4142136 39.4061569,26.75 38.9919434,26.75 C38.5777298,26.75 38.2419434,26.4142136 38.2419434,26 L38.2419434,10.3026035 L29.6893398,1.75 Z" id="Path-12" fill="#1D1D1B"></path>
                            <g id="manos" transform="translate(0.000000, 26.000000)" fill="#1D1D1B">
                                <path d="M11.7215669,6.19685915 L12.2784331,4.80405621 L13.7643995,5.39817071 C14.255648,5.59458018 14.8003971,5.61159999 15.3029485,5.44624021 L17.0565883,4.86922165 C18.0224211,4.55142351 19.0759013,4.63944166 19.9756076,5.11310539 L21.3493873,5.83635211 L20.6506127,7.16364789 L19.276833,6.44040118 C18.7370092,6.15620294 18.1049211,6.10339205 17.5254214,6.29407093 L15.7717816,6.87108949 C14.934196,7.14668912 14.0262808,7.11832277 13.2075333,6.79097366 L11.7215669,6.19685915 Z" id="Path-13"></path>
                                <path d="M30.3449274,5.26620678 C30.7501902,5.18056255 31.148149,5.4396646 31.2337932,5.84492741 C31.3194374,6.25019021 31.0603354,6.64814899 30.6550726,6.73379322 L28.2891058,7.23379322 C28.1232592,7.2688416 27.9504308,7.24667505 27.7987971,7.17090743 L26.4907958,6.51733107 C25.7956288,6.16997311 24.9990063,6.08320679 24.2453599,6.27276326 L22.1669829,6.79551476 C21.6422701,6.92749004 21.1588081,7.18837654 20.7604516,7.55450916 C20.43408,7.85447998 20.25,8.2736903 20.25,8.71300041 L20.25,12.1273072 C20.25,12.298979 20.3560761,12.4527945 20.5165409,12.5138046 C20.7431011,12.5999446 20.9979976,12.5640018 21.1919042,12.4185718 L21.55,12.15 C21.9906602,11.8195048 22.25,11.3008253 22.25,10.75 L22.25,10.3066406 C22.25,9.72847609 22.8765872,9.36773514 23.376585,9.65803924 C27.046296,11.7887131 30.5493864,13.8549891 33.8354102,15.8291796 C36.1724584,16.9977037 36.998315,19.0623452 35.5303301,20.5303301 C34.1976655,21.8629947 33.317614,21.7652112 30.6141282,20.1431197 C28.9366688,19.1366441 27.0934113,17.963662 25.0839749,16.6240377 C24.7393283,16.3942734 24.6461979,15.9286214 24.8759623,15.5839749 C25.1057266,15.2393283 25.5713786,15.1461979 25.9160251,15.3759623 C27.9065887,16.7030047 29.7299978,17.8633559 31.3858718,18.8568803 C33.5687496,20.166607 33.7523345,20.1870053 34.4696699,19.4696699 C35.0731136,18.8662262 34.7025416,17.9397963 33.1141282,17.1431197 C30.0961951,15.3323599 26.9413339,13.4686107 23.649556,11.5518821 C23.4684995,12.2628911 23.049647,12.9002648 22.45,13.35 L22.0919042,13.6185718 C21.4865391,14.0725957 20.6907668,14.1848072 19.9834591,13.9158829 C19.2408832,13.6335494 18.75,12.9217448 18.75,12.1273072 L18.75,8.71300041 C18.75,7.85392248 19.1099713,7.03415 19.7424744,6.45281128 L19.7454004,6.45012197 C20.3276137,5.91500505 21.0342121,5.53370941 21.8011,5.34082246 L23.879477,4.81807096 C24.9809603,4.54102687 26.1452547,4.66783919 27.1612679,5.17551621 L28.23509,5.71207892 L30.3449274,5.26620678 Z" id="Path-14"></path>
                                <path d="M5.2876746,1.92827478 L5.2876746,15.7454135 L7.00691288,15.7454135 C7.83534001,15.7454135 8.50691288,15.0738406 8.50691288,14.2454135 L8.50691288,3.42827478 C8.50691288,2.59984765 7.83534001,1.92827478 7.00691288,1.92827478 L5.2876746,1.92827478 Z M4.7876746,0.428274781 L7.00691288,0.428274781 C8.66376713,0.428274781 10.0069129,1.77142053 10.0069129,3.42827478 L10.0069129,14.2454135 C10.0069129,15.9022677 8.66376713,17.2454135 7.00691288,17.2454135 L4.7876746,17.2454135 C4.23538985,17.2454135 3.7876746,16.7976982 3.7876746,16.2454135 L3.7876746,1.42827478 C3.7876746,0.875990031 4.23538985,0.428274781 4.7876746,0.428274781 Z" id="Rectangle" fill-rule="nonzero" transform="translate(6.897294, 8.836844) rotate(30.000000) translate(-6.897294, -8.836844) "></path>
                                <path d="M34.2876751,15.7454135 L36.0069134,15.7454135 C36.8353405,15.7454135 37.5069134,15.0738406 37.5069134,14.2454135 L37.5069134,3.42827478 C37.5069134,2.59984765 36.8353405,1.92827478 36.0069134,1.92827478 L34.2876751,1.92827478 L34.2876751,15.7454135 Z M33.7876751,0.428274781 L36.0069134,0.428274781 C37.6637676,0.428274781 39.0069134,1.77142053 39.0069134,3.42827478 L39.0069134,14.2454135 C39.0069134,15.9022677 37.6637676,17.2454135 36.0069134,17.2454135 L33.7876751,17.2454135 C33.2353903,17.2454135 32.7876751,16.7976982 32.7876751,16.2454135 L32.7876751,1.42827478 C32.7876751,0.875990031 33.2353903,0.428274781 33.7876751,0.428274781 Z" id="Rectangle-Copy-6" fill-rule="nonzero" transform="translate(35.897294, 8.836844) scale(-1, 1) rotate(30.000000) translate(-35.897294, -8.836844) "></path>
                                <path d="M26.2476482,18.0154567 C26.2476482,18.4296703 25.9118618,18.7654567 25.4976482,18.7654567 C25.0834347,18.7654567 24.7476482,18.4296703 24.7476482,18.0154567 C24.7476482,16.3711712 25.9569115,15.0035519 27.4976482,15.0035519 C29.0383849,15.0035519 30.2476482,16.3711712 30.2476481,18.0149823 L30.2513365,23.845933 C30.2515986,24.2601465 29.9160246,24.5961453 29.5018111,24.5964073 C29.0875976,24.5966693 28.7515989,24.2610953 28.7513368,23.8468818 L28.7476482,18.0154567 C28.7476482,17.1613112 28.1660505,16.5035519 27.4976482,16.5035519 C26.8292459,16.5035519 26.2476482,17.1613112 26.2476482,18.0154567 Z" id="Path-Copy-5" transform="translate(27.499492, 19.799980) rotate(121.000000) translate(-27.499492, -19.799980) "></path>
                                <path d="M24.0117079,22.1267709 C23.9549442,22.5370766 23.5763097,22.823679 23.166004,22.7669153 C22.7556983,22.7101516 22.4690959,22.331517 22.5258596,21.9212114 C22.7261064,20.4737657 23.8622497,19.3645367 25.2446476,19.3645367 C26.7853843,19.3645367 27.9946476,20.7321559 27.9946475,22.375967 L27.9972077,26.4233009 C27.9974697,26.8375144 27.6618957,27.1735131 27.2476822,27.1737752 C26.8334688,27.1740372 26.49747,26.8384632 26.497208,26.4242497 C26.4963762,25.1093461 26.4963762,25.1093461 26.4946476,22.3764414 C26.4946476,21.522296 25.9130499,20.8645367 25.2446476,20.8645367 C24.6500023,20.8645367 24.1139249,21.3879149 24.0117079,22.1267709 Z" id="Path-Copy-5" transform="translate(25.257950, 23.269156) rotate(121.000000) translate(-25.257950, -23.269156) "></path>
                                <path d="M21.0026086,24.2066353 C20.837228,24.5864012 20.3952994,24.7601948 20.0155335,24.5948142 C19.6357676,24.4294336 19.461974,23.9875051 19.6273546,23.6077392 C19.9949876,22.763538 20.9263462,22.3443957 21.8797611,22.3443957 C23.1669683,22.3443957 24.1300809,23.5662595 24.1300808,24.9973707 L24.131716,27.8972513 C24.1319496,28.3114648 23.7963526,28.6474405 23.3821391,28.6476741 C22.9679256,28.6479076 22.6319499,28.3123106 22.6317163,27.8980971 C22.6312078,26.9964162 22.6312078,26.9964162 22.6300809,24.9977937 C22.6300809,24.3268925 22.2497613,23.8443957 21.8797611,23.8443957 C21.460153,23.8443957 21.0872811,24.0122004 21.0026086,24.2066353 Z" id="Path-Copy-5" transform="translate(21.848254, 25.496035) rotate(121.000000) translate(-21.848254, -25.496035) "></path>
                                <polygon id="Path-15" points="36.1141282 14.8568803 36.8858718 16.1431197 34.3858718 17.6431197 33.6141282 16.3568803"></polygon>
                                <path d="M8.62923402,16.1348336 C8.23756269,16.1348336 7.92005035,16.4523459 7.92005035,16.8440173 L7.92005035,18.9256499 C7.92005035,19.3173212 8.23756269,19.6348336 8.62923402,19.6348336 C9.02090535,19.6348336 9.33841769,19.3173212 9.33841769,18.9256499 L9.33841769,16.8440173 C9.33841769,16.4523459 9.02090535,16.1348336 8.62923402,16.1348336 Z M8.62923402,14.6348336 C9.84933247,14.6348336 10.8384177,15.6239188 10.8384177,16.8440173 L10.8384177,18.9256499 C10.8384177,20.1457484 9.84933247,21.1348336 8.62923402,21.1348336 C7.40913557,21.1348336 6.42005035,20.1457484 6.42005035,18.9256499 L6.42005035,16.8440173 C6.42005035,15.6239188 7.40913557,14.6348336 8.62923402,14.6348336 Z" id="Rectangle-Copy-9" fill-rule="nonzero" transform="translate(8.629234, 17.884834) rotate(35.000000) translate(-8.629234, -17.884834) "></path>
                                <path d="M17.629234,23.1348336 C17.2375627,23.1348336 16.9200503,23.4523459 16.9200503,23.8440173 L16.9200503,25.9256499 C16.9200503,26.3173212 17.2375627,26.6348336 17.629234,26.6348336 C18.0209053,26.6348336 18.3384177,26.3173212 18.3384177,25.9256499 L18.3384177,23.8440173 C18.3384177,23.4523459 18.0209053,23.1348336 17.629234,23.1348336 Z M17.629234,21.6348336 C18.8493324,21.6348336 19.8384177,22.6239188 19.8384177,23.8440173 L19.8384177,25.9256499 C19.8384177,27.1457484 18.8493324,28.1348336 17.629234,28.1348336 C16.4091355,28.1348336 15.4200503,27.1457484 15.4200503,25.9256499 L15.4200503,23.8440173 C15.4200503,22.6239188 16.4091355,21.6348336 17.629234,21.6348336 Z" id="Rectangle-Copy-10" fill-rule="nonzero" transform="translate(17.629234, 24.884834) rotate(35.000000) translate(-17.629234, -24.884834) "></path>
                                <path d="M12.028431,18.2054496 L9.94324776,21.1833999 C9.60502345,21.6664342 9.7224152,22.3321959 10.2054496,22.6704203 L10.2527186,22.7035184 C10.735753,23.0417427 11.4015147,22.924351 11.739739,22.4413166 L13.8249223,19.4633663 C14.1631466,18.9803319 14.0457548,18.3145702 13.5627204,17.9763459 L13.5154514,17.9432478 C13.032417,17.6050234 12.3666553,17.7224152 12.028431,18.2054496 Z M14.4230851,16.7476178 C15.5847273,17.5610084 15.8670409,19.1620888 15.0536503,20.323731 L12.9684671,23.3016812 C12.1550765,24.4633234 10.5539961,24.7456371 9.39235397,23.9322465 L9.34508492,23.8991483 C8.18344277,23.0857577 7.9011291,21.4846774 8.71451969,20.3230352 L10.7997029,17.3450849 C11.6130935,16.1834428 13.2141739,15.9011291 14.375816,16.7145197 L14.4230851,16.7476178 Z" id="Rectangle-Copy-7" fill-rule="nonzero"></path>
                                <path d="M15.028431,20.2054496 L12.9432478,23.1833999 C12.6050234,23.6664342 12.7224152,24.3321959 13.2054496,24.6704203 L13.2527186,24.7035184 C13.735753,25.0417427 14.4015147,24.924351 14.739739,24.4413166 L16.8249223,21.4633663 C17.1631466,20.9803319 17.0457548,20.3145702 16.5627204,19.9763459 L16.5154514,19.9432478 C16.032417,19.6050234 15.3666553,19.7224152 15.028431,20.2054496 Z M17.4230851,18.7476178 C18.5847273,19.5610084 18.8670409,21.1620888 18.0536503,22.323731 L15.9684671,25.3016812 C15.1550765,26.4633234 13.5539961,26.7456371 12.392354,25.9322465 L12.3450849,25.8991483 C11.1834428,25.0857577 10.9011291,23.4846774 11.7145197,22.3230352 L13.7997029,19.3450849 C14.6130935,18.1834428 16.2141739,17.9011291 17.375816,18.7145197 L17.4230851,18.7476178 Z" id="Rectangle-Copy-8" fill-rule="nonzero"></path>
                                <polygon id="Path-16" points="4.4 16.3 5.6 14.7 7.6 16.2 6.4 17.8"></polygon>
                            </g>
                            <path d="M10,14.25 C9.58578644,14.25 9.25,13.9142136 9.25,13.5 C9.25,13.0857864 9.58578644,12.75 10,12.75 L28,12.75 C28.4142136,12.75 28.75,13.0857864 28.75,13.5 C28.75,13.9142136 28.4142136,14.25 28,14.25 L10,14.25 Z" id="Path-18" fill="#1D1D1B"></path>
                            <path d="M10,22.25 C9.58578644,22.25 9.25,21.9142136 9.25,21.5 C9.25,21.0857864 9.58578644,20.75 10,20.75 L28,20.75 C28.4142136,20.75 28.75,21.0857864 28.75,21.5 C28.75,21.9142136 28.4142136,22.25 28,22.25 L10,22.25 Z" id="Path-18-Copy" fill="#1D1D1B"></path>
                            <path d="M23.8160795,10.5424707 C23.5164811,10.2564397 23.5054827,9.78169339 23.7915136,9.48209508 C24.0775446,9.18249677 24.552291,9.17149828 24.8518893,9.45752927 L28.5179049,12.9575293 C28.827365,13.2529755 28.827365,13.7470245 28.5179049,14.0424707 L24.8518893,17.5424707 C24.552291,17.8285017 24.0775446,17.8175032 23.7915136,17.5179049 C23.5054827,17.2183066 23.5164811,16.7435603 23.8160795,16.4575293 L26.9138933,13.5 L23.8160795,10.5424707 Z" id="Path-19" fill="#1D1D1B"></path>
                            <path d="M8.96966991,18.5303301 C8.6767767,18.2374369 8.6767767,17.7625631 8.96966991,17.4696699 C9.26256313,17.1767767 9.73743687,17.1767767 10.0303301,17.4696699 L13.5303301,20.9696699 C13.8232233,21.2625631 13.8232233,21.7374369 13.5303301,22.0303301 L10.0303301,25.5303301 C9.73743687,25.8232233 9.26256313,25.8232233 8.96966991,25.5303301 C8.6767767,25.2374369 8.6767767,24.7625631 8.96966991,24.4696699 L11.9393398,21.5 L8.96966991,18.5303301 Z" id="Path-19-Copy" fill="#1D1D1B" transform="translate(11.250000, 21.500000) rotate(-180.000000) translate(-11.250000, -21.500000) "></path>
                        </g>
                    </g>
                </g>
            </g>
        </g>
    </g>
</svg>