<?xml version="1.0" encoding="UTF-8"?>
<svg width="55px" height="56px" viewBox="0 0 55 56" version="1.1" xmlns="http://www.w3.org/2000/svg" xmlns:xlink="http://www.w3.org/1999/xlink">
    <!-- Generator: Sketch 52.6 (67491) - http://www.bohemiancoding.com/sketch -->
    <title>Ico-arbitraje</title>
    <desc>Created with Sketch.</desc>
    <g id="Page-1" stroke="none" stroke-width="1" fill="none" fill-rule="evenodd">
        <g id="INICIO-CEJA-" transform="translate(-721.000000, -1306.000000)">
            <g id="MASC" transform="translate(46.000000, 951.000000)">
                <g id="5-Arbitraje" transform="translate(640.000000, 241.000000)">
                    <g id="Ico-arbitraje" transform="translate(35.000000, 114.000000)">
                        <g>
                            <g id="persona" transform="translate(0.000000, 20.000000)" stroke="#1D1D1D" stroke-width="1.5">
                                <path d="M13.6562648,14.7746582 L21.5712891,14.7746582 L21.5712891,11.9767568 C21.5712891,11.8389172 21.4597213,11.7270845 21.3218821,11.7267575 L14.2293225,11.7099343 L10.1461131,8.3536377 L7.51901001,8.3536377 C5.729653,8.3536377 4.27689605,9.80002752 4.26904139,11.5893667 C4.25634702,14.4783069 4.25,17.2311542 4.25,19.8479004 C4.25,23.8247112 6.2593428,25.0586456 9.51511209,25.1900634 C10.4951622,25.2296227 11.497428,25.2296227 12.5219282,25.190013 L13.3039655,25.1597776 L13.2687002,34.1557583 C13.2686986,34.1562483 13.2686986,34.1562483 13.2686983,34.1567383 C13.2686983,34.2948095 13.3806271,34.4067383 13.5186983,34.4067383 L16.8077393,34.4067383 C16.9458104,34.4067383 17.0577393,34.2948095 17.0577393,34.1567383 L17.0577393,23.3945487 C17.0577393,21.6069368 15.7036519,20.1099375 13.9994965,19.9349364 L9.25,19.9317476 L9.25,12.855216 L13.6562648,14.7746582 Z" id="Rectangle"></path>
                                <circle id="Oval" cx="8" cy="4" r="4"></circle>
                                <path d="M12.1712593,28.75 L11.8212593,25.25 L9,25.25 C8.04125144,25.25 7.16787401,24.8935142 6.36040301,24.3009281 C6.03080577,24.0590436 5.89567457,23.9375624 5.48192973,23.5423128 C4.66675335,22.7635766 4.26366502,21.6444062 4.25,20.2235107 L4.25,17.78125 C4.25,16.8147517 3.46649831,16.03125 2.5,16.03125 C1.53350169,16.03125 0.75,16.8147517 0.75,17.78125 L0.75,20.5 C0.75,22.3448978 1.20255108,23.8534014 2.1,25.05 C3.77083462,27.2777795 6.10185042,28.75 8.5,28.75 L12.1712593,28.75 Z" id="Path" fill="#009784"></path>
                                <path d="M7,29 L7,32.5" id="Path-9"></path>
                                <polyline id="Path" stroke-linecap="round" stroke-linejoin="round" points="4 34.5819092 5 32.2166748 9 32.2166748 10 34.5819092"></polyline>
                            </g>
                            <g id="persona-copy" transform="translate(43.500000, 38.000000) scale(-1, 1) translate(-43.500000, -38.000000) translate(32.000000, 20.000000)" stroke="#1D1D1D" stroke-width="1.5">
                                <path d="M13.6562648,14.7746582 L21.5712891,14.7746582 L21.5712891,11.9767568 C21.5712891,11.8389172 21.4597213,11.7270845 21.3218821,11.7267575 L14.2293225,11.7099343 L10.1461131,8.3536377 L7.51901001,8.3536377 C5.729653,8.3536377 4.27689605,9.80002752 4.26904139,11.5893667 C4.25634702,14.4783069 4.25,17.2311542 4.25,19.8479004 C4.25,23.8247112 6.2593428,25.0586456 9.51511209,25.1900634 C10.4951622,25.2296227 11.497428,25.2296227 12.5219282,25.190013 L13.3039655,25.1597776 L13.2687002,34.1557583 C13.2686986,34.1562483 13.2686986,34.1562483 13.2686983,34.1567383 C13.2686983,34.2948095 13.3806271,34.4067383 13.5186983,34.4067383 L16.8077393,34.4067383 C16.9458104,34.4067383 17.0577393,34.2948095 17.0577393,34.1567383 L17.0577393,23.3945487 C17.0577393,21.6069368 15.7036519,20.1099375 13.9994965,19.9349364 L9.25,19.9317476 L9.25,12.855216 L13.6562648,14.7746582 Z" id="Rectangle"></path>
                                <circle id="Oval" cx="8" cy="4" r="4"></circle>
                                <path d="M12.1712593,28.75 L11.8212593,25.25 L9,25.25 C8.04125144,25.25 7.16787401,24.8935142 6.36040301,24.3009281 C6.03080577,24.0590436 5.89567457,23.9375624 5.48192973,23.5423128 C4.66675335,22.7635766 4.26366502,21.6444062 4.25,20.2235107 L4.25,17.78125 C4.25,16.8147517 3.46649831,16.03125 2.5,16.03125 C1.53350169,16.03125 0.75,16.8147517 0.75,17.78125 L0.75,20.5 C0.75,22.3448978 1.20255108,23.8534014 2.1,25.05 C3.77083462,27.2777795 6.10185042,28.75 8.5,28.75 L12.1712593,28.75 Z" id="Path" fill="#009784"></path>
                                <path d="M7,29 L7,32.5" id="Path-9"></path>
                                <polyline id="Path" stroke-linecap="round" stroke-linejoin="round" points="4 34.5819092 5 32.2166748 9 32.2166748 10 34.5819092"></polyline>
                            </g>
                            <circle id="Oval" stroke="#1D1D1D" stroke-width="1.5" cx="29" cy="16" r="4"></circle>
                            <rect id="Rectangle" fill="#C90166" x="39" y="7" width="7" height="9"></rect>
                            <path d="M39.9814837,15.8459473 C40.4319854,15.3586893 41.0263372,15.1125001 41.7164472,15.1375797 C42.362603,15.1610621 42.880767,15.4040321 43.1956416,15.8459473 L45.9262695,15.8459473 C46.0643407,15.8459473 46.1762695,15.7340185 46.1762695,15.5959473 L46.1762695,7 C46.1762695,6.86192881 46.0643407,6.75 45.9262695,6.75 L39,6.75 C38.8619288,6.75 38.75,6.86192881 38.75,7 L38.75,15.5959473 C38.75,15.7340185 38.8619288,15.8459473 39,15.8459473 L39.9814837,15.8459473 Z" id="Rectangle" stroke="#1D1D1D" stroke-width="1.5"></path>
                            <path d="M14.5,0.75 C12.4289322,0.75 10.75,2.42893219 10.75,4.5 L10.75,5.28076172 C10.75,7.35182953 12.4289322,9.03076172 14.5,9.03076172 L21.8506949,9.03076172 L24.8541212,10.78382 C24.8920576,10.805963 24.9351587,10.8177197 24.9790843,10.8179062 C25.1171542,10.8184924 25.2295572,10.7070399 25.2301435,10.5689699 L25.25,5.89404297 L25.25,4.5 C25.25,2.42893219 23.5710678,0.75 21.5,0.75 L14.5,0.75 Z" id="Rectangle" stroke="#1D1D1D" stroke-width="1.5"></path>
                            <path d="M21.75,34.7755127 L33.25,34.7755127 L33.25,25.2229427 L35.9840354,25.2387625 C36.6292054,25.2424957 37.2449392,24.9690893 37.6748309,24.4879966 C39.1423617,22.8456487 40.3514864,21.4985179 41.302347,20.4464498 C41.4571726,20.2751449 41.3389094,20.4015973 41.9110496,19.7923125 C42.7055822,18.946197 43.0714131,18.4864893 43.2767613,18.0166539 C43.6480518,17.1671436 43.470069,16.2478864 42.8467288,15.7058429 C42.0967282,15.0536583 41.3527627,15.0520844 40.3943121,15.748019 C39.69967,16.4470653 39.2045326,16.9494131 38.9101732,17.2537338 C37.8848125,18.313793 36.7838484,19.4299791 35.6072521,20.6023321 L35.3737758,20.8349664 L35.0445117,20.8203022 L33.482666,20.75 L26,20.75 C23.6527898,20.75 21.75,22.6527898 21.75,25 L21.75,34.7755127 Z" id="Rectangle" stroke="#1D1D1D" stroke-width="1.5"></path>
                            <path d="M25.345459,26 L25.345459,34" id="Path-10" stroke="#1D1D1D" stroke-width="1.5" stroke-linecap="round" stroke-linejoin="round"></path>
                            <path d="M23.623847,39.75 L22.7504692,53.9846899 C22.7500782,53.9923402 22.7500782,53.9923402 22.75,54 C22.75,54.1380712 22.8619288,54.25 23,54.25 L26.3227118,54.25 C26.4497378,54.25 26.5565711,54.1547432 26.5710765,54.0285481 L28.2123165,39.75 L23.623847,39.75 Z" id="Rectangle" stroke="#1D1D1D" stroke-width="1.5"></path>
                            <path d="M29.623847,39.75 L28.7504692,53.9846899 C28.7500782,53.9923402 28.7500782,53.9923402 28.75,54 C28.75,54.1380712 28.8619288,54.25 29,54.25 L32.3227118,54.25 C32.4497378,54.25 32.5565711,54.1547432 32.5710765,54.0285481 L34.2123165,39.75 L29.623847,39.75 Z" id="Rectangle-Copy-5" stroke="#1D1D1D" stroke-width="1.5" transform="translate(31.526732, 47.000000) scale(-1, 1) translate(-31.526732, -47.000000) "></path>
                            <circle id="Oval" fill="#1D1D1D" cx="15" cy="5" r="1"></circle>
                            <circle id="Oval-Copy" fill="#1D1D1D" cx="18" cy="5" r="1"></circle>
                            <circle id="Oval-Copy-2" fill="#1D1D1D" cx="22" cy="5" r="1"></circle>
                            <path d="M14.3012695,34.75 L14.3012695,39.25 L41.25,39.25 L41.25,34.75 L14.3012695,34.75 Z" id="Rectangle" stroke="#1D1D1D" stroke-width="1.5"></path>
                        </g>
                    </g>
                </g>
            </g>
        </g>
    </g>
</svg>