<?xml version="1.0" encoding="UTF-8"?>
<svg width="56px" height="55px" viewBox="0 0 56 55" version="1.1" xmlns="http://www.w3.org/2000/svg" xmlns:xlink="http://www.w3.org/1999/xlink">
    <!-- Generator: Sketch 52.6 (67491) - http://www.bohemiancoding.com/sketch -->
    <title>Ico-mediacion</title>
    <desc>Created with Sketch.</desc>
    <g id="Page-1" stroke="none" stroke-width="1" fill="none" fill-rule="evenodd">
        <g id="INICIO-CEJA-" transform="translate(-406.000000, -1309.000000)">
            <g id="MASC" transform="translate(46.000000, 951.000000)">
                <g id="3.Mediacion" transform="translate(326.000000, 241.000000)">
                    <g id="Ico-mediacion" transform="translate(35.000000, 118.000000)">
                        <g>
                            <g id="Group" transform="translate(0.000000, 23.000000)" stroke="#1D1D1D" stroke-width="1.5">
                                <path d="M0,20 L0,14.4306401 C0,13.0882347 1.34314575,12 3,12 M8.96744751,11 C11.1435746,13.4444444 13.8046851,16.5 14.7721326,17.4166667 C16.0775726,17.4166667 17.4011602,17.4166667 18.7428952,17.4166667 C20.7554978,17.4166667 22,18.0653381 22,19.8986715 C22,21.7320048 20.3134622,22 19.121513,22 C18.3268802,22 14.9983691,22 11.1359798,22 L7,16.5" id="Shape" stroke-linecap="round" stroke-linejoin="round"></path>
                                <path d="M3,0.75 C1.75735931,0.75 0.75,1.75735931 0.75,3 L0.75,7.80664062 C0.75,10.4299932 2.87664744,12.5566406 5.5,12.5566406 C8.12335256,12.5566406 10.25,10.4299932 10.25,7.80664062 L10.25,3 C10.25,1.75735931 9.24264069,0.75 8,0.75 L3,0.75 Z" id="Rectangle"></path>
                                <path d="M10,5.08484256 C8,5.75150922 6.66666667,5.41817589 6,4.08484256 C5.78075624,3.64635503 6.15063239,4.9969597 6,6.08484256 C5.77813684,7.6871615 4.57367751,9.27606839 1,8.08484256" id="Path-2"></path>
                            </g>
                            <g id="Group-Copy" transform="translate(43.000000, 34.000000) scale(-1, 1) translate(-43.000000, -34.000000) translate(32.000000, 23.000000)" stroke="#1D1D1D" stroke-width="1.5">
                                <path d="M0,20 L0,14.4306401 C0,13.0882347 1.34314575,12 3,12 M8.96744751,11 C11.1435746,13.4444444 13.8046851,16.5 14.7721326,17.4166667 C16.0775726,17.4166667 17.4011602,17.4166667 18.7428952,17.4166667 C20.7554978,17.4166667 22,18.0653381 22,19.8986715 C22,21.7320048 20.3134622,22 19.121513,22 C18.3268802,22 14.9983691,22 11.1359798,22 L7,16.5" id="Shape" stroke-linecap="round" stroke-linejoin="round"></path>
                                <path d="M3,0.75 C1.75735931,0.75 0.75,1.75735931 0.75,3 L0.75,7.80664062 C0.75,10.4299932 2.87664744,12.5566406 5.5,12.5566406 C8.12335256,12.5566406 10.25,10.4299932 10.25,7.80664062 L10.25,3 C10.25,1.75735931 9.24264069,0.75 8,0.75 L3,0.75 Z" id="Rectangle"></path>
                                <path d="M10,5.08484256 C8,5.75150922 6.66666667,5.41817589 6,4.08484256 C5.78075624,3.64635503 6.15063239,4.9969597 6,6.08484256 C5.77813684,7.6871615 4.57367751,9.27606839 1,8.08484256" id="Path-2"></path>
                            </g>
                            <path d="M24,6 L42,6 C43.6568542,6 45,7.34314575 45,9 L45,17 C45,18.6568542 43.6568542,20 42,20 L41.1625407,20 L41.1625407,24 L37.2964634,20 L24,20 C22.3431458,20 21,18.6568542 21,17 L21,9 C21,7.34314575 22.3431458,6 24,6 Z" id="Rectangle" fill="#C90166"></path>
                            <path d="M29.3902583,20 C28.431146,20 25.9921439,20 24.1546138,20 C22.3636246,20 21.154415,19.1638608 21,17.5004994 M27.0003169,6 L41.1432271,6 C43.2640005,6 44.9832271,7.56700338 44.9832271,9.5 L44.9832271,16.5 C44.9832271,18.4329966 43.2640005,20 41.1432271,20 L41.1432271,24 L37.3032271,20 L32.9832271,20" id="Shape" stroke="#1D1D1D" stroke-width="1.5" stroke-linecap="round" stroke-linejoin="round"></path>
                            <path d="M4.82142857,17.36 C2.1586271,17.36 0,15.3526816 0,12.8765289 L0,4.48347107 C0,2.00731837 2.1586271,0 4.82142857,0 L22.1785714,0 C24.8413729,0 27,2.00731837 27,4.48347107 L27,12.8765289 C27,15.3526816 24.8413729,17.36 22.1785714,17.36 L9,17.36 L5,21 L4.82142857,17.36 Z" id="Path" fill="#009784"></path>
                            <path d="M4.82142857,17.36 C2.1586271,17.36 0,15.3526816 0,12.8765289 L0,4.48347107 C0,2.00731837 2.1586271,0 4.82142857,0 L22.1785714,0 C24.8413729,0 27,2.00731837 27,4.48347107 L27,12.8765289 C27,15.3526816 24.8413729,17.36 22.1785714,17.36 L9,17.36 L5,21 L4.82142857,17.36 Z" id="Path" stroke="#1D1D1D" stroke-width="1.5" stroke-linejoin="round"></path>
                            <path d="M5,4.5 L21,4.5" id="Path" stroke="#1D1D1D" stroke-width="1.5" stroke-linecap="round"></path>
                            <path d="M5,8.5 L21,8.5" id="Path-Copy" stroke="#1D1D1D" stroke-width="1.5" stroke-linecap="round"></path>
                            <path d="M5,12.5 L13.5,12.5" id="Path-Copy-2" stroke="#1D1D1D" stroke-width="1.5" stroke-linecap="round"></path>
                            <polyline id="Path" stroke="#1D1D1D" stroke-width="1.5" points="11 53 11 45 11 45 43 45 43 53"></polyline>
                            <polyline id="Path" stroke="#1D1D1D" stroke-width="1.5" stroke-linecap="round" points="54 47 54 53 0 53 0 47 0 47"></polyline>
                            <path d="M24,23.75 C22.7573593,23.75 21.75,24.7573593 21.75,26 L21.75,30.8066406 C21.75,33.4299932 23.8766474,35.5566406 26.5,35.5566406 C29.1233526,35.5566406 31.25,33.4299932 31.25,30.8066406 L31.25,24 C31.25,23.8619288 31.1380712,23.75 31,23.75 L24,23.75 Z" id="Rectangle-Copy" stroke="#1D1D1D" stroke-width="1.5"></path>
                            <path d="M19,41 L19,38.375 C19,36.2331962 20.9012231,34.4508603 23.0427194,34.073609 M30.0991211,34 C32.55372,34 35,35.9587542 35,38.375 L35,41" id="Shape" stroke="#1D1D1D" stroke-width="1.5"></path>
                            <path d="M22,28.5 L31,28.5" id="Path-3" stroke="#1D1D1D" stroke-width="1.5"></path>
                        </g>
                    </g>
                </g>
            </g>
        </g>
    </g>
</svg>