<?xml version="1.0" encoding="UTF-8"?>
<svg width="61px" height="61px" viewBox="0 0 61 61" version="1.1" xmlns="http://www.w3.org/2000/svg" xmlns:xlink="http://www.w3.org/1999/xlink">
    <!-- Generator: Sketch 52.6 (67491) - http://www.bohemiancoding.com/sketch -->
    <title>Ico-conciliacion</title>
    <desc>Created with Sketch.</desc>
    <g id="Page-1" stroke="none" stroke-width="1" fill="none" fill-rule="evenodd">
        <g id="INICIO-CEJA-" transform="translate(-566.000000, -1305.000000)">
            <g id="MASC" transform="translate(46.000000, 951.000000)">
                <g id="4.Conciliacion" transform="translate(487.000000, 241.000000)">
                    <g id="Ico-conciliacion" transform="translate(34.000000, 114.000000)">
                        <rect id="Rectangle" fill="#009784" x="0" y="28" width="8" height="24"></rect>
                        <rect id="Rectangle-Copy" fill="#009784" x="51" y="28" width="8" height="24"></rect>
                        <path d="M25,11 L34,11 C36.7614237,11 39,13.2385763 39,16 L39,23 L20,23 L20,16 C20,13.2385763 22.2385763,11 25,11 Z" id="Rectangle" fill="#C90166"></path>
                        <g stroke-width="1">
                            <g id="Group-2" transform="translate(0.000000, 28.000000)">
                                <polyline id="Path" stroke="#1D1D1D" stroke-width="1.5" stroke-linecap="round" stroke-linejoin="round" points="8 9 8 24 -4.4408921e-15 24 -4.4408921e-15 0 8 0 8 6"></polyline>
                                <circle id="Oval" fill="#1D1D1D" cx="4" cy="16" r="1"></circle>
                            </g>
                            <g id="Group-2-Copy" transform="translate(55.000000, 40.000000) scale(-1, 1) translate(-55.000000, -40.000000) translate(51.000000, 28.000000)">
                                <polyline id="Path" stroke="#1D1D1D" stroke-width="1.5" stroke-linecap="round" stroke-linejoin="round" points="8 9 8 24 -4.4408921e-15 24 -4.4408921e-15 0 8 0 8 6"></polyline>
                                <circle id="Oval" fill="#1D1D1D" cx="4" cy="16" r="1"></circle>
                            </g>
                            <path d="M8,30.1838379 L18.3808594,30.1838379 L22.0656513,26.5717638 C22.4395135,26.2052796 22.9421718,26 23.4657018,26 L35.9558595,26 C36.3932764,26 36.8186319,26.1434017 37.166764,26.4082368 L42.1298828,30.1838379 L51,30.1838379" id="Path-4" stroke="#1D1D1D" stroke-width="1.5"></path>
                            <path d="M36.016362,44.2477933 L35.5195737,27.9476591 L35.0553607,27.9308694 L24.0536114,27.9308694 L24.0536114,30.1808694 C24.0536114,32.5280796 25.9564012,34.4308694 28.3260683,34.4312057 C29.185546,34.4569522 30.0640107,34.4698291 30.9614548,34.4698291 L31.6985424,34.4698291 L31.7113417,35.2068055 C31.7442499,37.1016334 31.7771581,38.9917018 31.8100663,40.8770107 C31.8432717,42.7793469 33.5841615,44.0640725 36.016362,44.2477933 Z" id="Path" stroke="#1D1D1D" stroke-width="1.5" transform="translate(30.046914, 36.100633) rotate(-44.000000) translate(-30.046914, -36.100633) "></path>
                            <path d="M8,48 L11,48" id="Path-5" stroke="#1D1D1D" stroke-width="1.5"></path>
                            <path d="M45,48 L51,48" id="Path-6" stroke="#1D1D1D" stroke-width="1.5"></path>
                            <rect id="Rectangle" stroke="#1D1D1D" stroke-width="1.5" transform="translate(15.010408, 45.010408) rotate(45.000000) translate(-15.010408, -45.010408) " x="12.7604076" y="40.2604076" width="4.5" height="9.5" rx="2.25"></rect>
                            <path d="M24.0136495,43.2708391 C22.7941684,43.2708391 21.7966612,44.2423256 21.7644353,45.4613808 L21.5673694,52.9160749 C21.5667374,52.9447667 21.5667374,52.9447667 21.566611,52.9734652 C21.566611,54.1728855 22.5389332,55.1452078 23.7383536,55.1452078 L23.816611,55.1452078 C25.0360921,55.1452078 26.0335993,54.1737214 26.0658252,52.9546661 L26.2628911,45.499972 C26.2635231,45.4712802 26.2635231,45.4712802 26.2636495,45.4425817 C26.2636495,44.2431614 25.2913273,43.2708391 24.0919069,43.2708391 L24.0136495,43.2708391 Z" id="Rectangle-Copy-3" stroke="#1D1D1D" stroke-width="1.5" transform="translate(23.915130, 49.208023) rotate(45.000000) translate(-23.915130, -49.208023) "></path>
                            <path d="M27.0001058,48.2708391 C25.7846816,48.2708391 24.7889532,49.2360979 24.751192,50.4509354 L24.5811965,55.9199573 C24.5803283,55.9534777 24.5803283,55.9534777 24.5801547,55.9870089 C24.5801547,57.1789493 25.5464132,58.1452078 26.7383536,58.1452078 L26.8301547,58.1452078 C28.0455789,58.1452078 29.0413073,57.179949 29.0790685,55.9651116 L29.249064,50.4960897 C29.2499322,50.4625692 29.2499322,50.4625692 29.2501058,50.429038 C29.2501058,49.2370977 28.2838473,48.2708391 27.0919069,48.2708391 L27.0001058,48.2708391 Z" id="Rectangle-Copy-4" stroke="#1D1D1D" stroke-width="1.5" transform="translate(26.915130, 53.208023) rotate(45.000000) translate(-26.915130, -53.208023) "></path>
                            <path d="M20.767783,40.0104143 C19.5364978,40.0104143 18.5339046,41.0001166 18.5179714,42.2312987 L18.4278519,49.1949919 C18.4276976,49.2092997 18.4276976,49.2092997 18.4276668,49.2236083 C18.4276668,50.4449458 19.4177564,51.4350355 20.639094,51.4350355 L20.6776668,51.4350355 C21.908952,51.4350355 22.9115452,50.4453332 22.9274784,49.2141511 L23.0175979,42.2504579 C23.0177522,42.2361501 23.0177522,42.2361501 23.017783,42.2218415 C23.017783,41.000504 22.0276934,40.0104143 20.8063559,40.0104143 L20.767783,40.0104143 Z" id="Rectangle-Copy-2" stroke="#1D1D1D" stroke-width="1.5" transform="translate(20.722725, 45.722725) rotate(45.000000) translate(-20.722725, -45.722725) "></path>
                            <path d="M39,18.7133789 L39,23 L20,23 L20,15 C20,12.790861 21.790861,11 24,11 L35,11 C37.209139,11 39,12.790861 39,15 L39,15.640625" id="Path" stroke="#1D1D1D" stroke-width="1.5" stroke-linecap="round"></path>
                            <polygon id="Rectangle" stroke="#1D1D1D" stroke-width="1.5" points="27 11 32 11 31 15 32 23 27 23 28 15"></polygon>
                            <path d="M28,15 L30.8302605,15" id="Path-7" stroke="#1D1D1D" stroke-width="1.5"></path>
                            <circle id="Oval" stroke="#1D1D1D" stroke-width="1.5" cx="29.5" cy="5.5" r="5.5"></circle>
                            <path d="M24.927887,2.55812083 C25.9147716,4.030664 27.5941855,5 29.5,5 C31.4840587,5 33.2227453,3.94943693 34.19013,2.37424042" id="Path" stroke="#1D1D1D" stroke-width="1.5"></path>
                            <g id="flecha" transform="translate(6.000000, 14.000000)" stroke="#1D1D1D" stroke-width="1.5">
                                <path d="M10.956961,0.901415099 C6.89120301,2.89735763 3.37051286,5.83339872 0.678339202,9.42608977" id="Path"></path>
                                <polyline id="Path-8" points="-4.4408921e-15 5.5 -4.4408921e-15 10.5 4.5 9"></polyline>
                            </g>
                            <g id="flecha-copy" transform="translate(47.500000, 19.500000) scale(-1, 1) translate(-47.500000, -19.500000) translate(42.000000, 14.000000)" stroke="#1D1D1D" stroke-width="1.5">
                                <path d="M10.956961,0.901415099 C6.89120301,2.89735763 3.37051286,5.83339872 0.678339202,9.42608977" id="Path"></path>
                                <polyline id="Path-8" points="-4.4408921e-15 5.5 -4.4408921e-15 10.5 4.5 9"></polyline>
                            </g>
                            <path d="M36.4028855,54.0292589 C36.4028855,52.8788669 36.4028855,51.1532789 36.4028855,48.8524948 C36.4028855,47.6098542 37.298316,46.6024948 38.4028855,46.6024948 C39.507455,46.6024948 40.6145131,47.0241837 40.5774909,49.1451809 C40.53622,51.5095917 40.8260944,53.9770939 40.8260944,55.1608435" id="Path" stroke="#1D1D1D" stroke-width="1.5" transform="translate(38.614490, 50.881669) rotate(134.000000) translate(-38.614490, -50.881669) "></path>
                            <path d="M34.962634,54.1704437 C34.962634,53.0200517 34.6685641,36.4442709 34.6685641,34.1434868 C34.6685641,32.9008461 35.5639946,31.8934868 36.6685641,31.8934868 C37.7731336,31.8934868 38.8801916,32.3151757 38.8555102,33.7291738 C38.8516616,33.9496574 38.8327045,34.2344224 38.8431695,34.4361729 C38.8770983,35.0902784 38.7931555,35.989539 38.8061473,36.5571702 C38.8315319,37.6662577 38.7567845,38.6761894 38.7567845,39.3851665" id="Path-Copy-4" stroke="#1D1D1D" stroke-width="1.5" transform="translate(36.762240, 43.031965) rotate(134.000000) translate(-36.762240, -43.031965) "></path>
                            <path d="M33.4042649,56.8158054 C33.4042649,55.8172428 33.2230506,53.28167 33.2230506,51.2845448 C33.2230506,50.2059085 34.1184811,49.3315011 35.2230506,49.3315011 C36.3276201,49.3315011 37.2230506,50.2059085 37.2230506,51.2845448 C37.2230506,53.3395801 37.2865895,56.2096613 37.2865895,57.2371789" id="Path-Copy-3" stroke="#1D1D1D" stroke-width="1.5" transform="translate(35.254820, 53.284340) rotate(134.000000) translate(-35.254820, -53.284340) "></path>
                            <path d="M29.6865733,58.8992733 C29.6865733,58.0549323 29.7606176,55.8695476 29.7606176,54.6572788 C29.7606176,53.5786425 30.7604593,52.4834723 31.8650288,52.4834723 C32.9695983,52.4834723 33.8650288,53.3578797 33.8650288,54.436516 C33.8650288,55.7000768 33.8650288,56.7694091 33.8650288,57.6445129 L33.9285678,58.9733176" id="Path" stroke="#1D1D1D" stroke-width="1.5" transform="translate(31.807571, 55.728395) rotate(134.000000) translate(-31.807571, -55.728395) "></path>
                        </g>
                    </g>
                </g>
            </g>
        </g>
    </g>
</svg>