<?xml version="1.0" encoding="UTF-8"?>
<svg width="66px" height="22px" viewBox="0 0 65 19.7 " version="1.1" xmlns="http://www.w3.org/2000/svg" xmlns:xlink="http://www.w3.org/1999/xlink">
    <!-- Generator: Sketch 52.6 (67491) - http://www.bohemiancoding.com/sketch -->
    <title>Greca-footer-rep</title>
    <desc>Created with Sketch.</desc>
    <g id="Page-1" stroke="none" stroke-width="1" fill="none" fill-rule="evenodd">
        <g id="PAGINA-NUEVA-WEB-PODER-JUDICIAL-2025-" transform="translate(0.000000, -1755.000000)" fill="#037568">
            <g id="Footer" transform="translate(0.000000, 1676.000000)">
                <g id="Greca-footer-rep" transform="translate(0.000000, 79.000000)">
                    <g id="Group-6">
                        <polygon id="Fill-1" points="58.3542075 22.6383661 65.6183068 22.6383661 65.6183068 15.4722232 65.570754 15.4249911"></polygon>
                        <polygon id="Fill-2" points="0.186029814 22.6383661 7.33862609 22.6383661 0.186029814 15.4693482"></polygon>
                        <polygon id="Fill-3" points="32.623595 16.998725 17.2443652 1.58215357 13.4323528 5.400975 30.6296571 22.6382429 34.6175329 22.6382429 51.8144273 5.400975 48.0028248 1.58215357"></polygon>
                        <polygon id="Fill-4" points="32.6234311 13.0308143 25.0125242 5.400975 28.8241267 1.58174286 32.6234311 5.39235 36.4227354 1.58174286 40.2343379 5.400975"></polygon>
                        <path d="M42.8843404,22.6383661 L50.5247627,22.6383661 L65.5662037,7.68302679 L65.6182658,7.73477679 L65.6182658,0.173526786 L65.5625143,0.118080357 L42.8843404,22.6383661 Z M0.186029814,7.73190179 L15.173359,22.6383661 L22.9560298,22.6383661 L0.186029814,0.172294643 L0.186029814,7.73190179 Z" id="Fill-5"></path>
                    </g>
                </g>
            </g>
        </g>
    </g>
</svg>