<?xml version="1.0" encoding="UTF-8"?>
<svg width="26px" height="19px" viewBox="0 0 26 19" version="1.1" xmlns="http://www.w3.org/2000/svg" xmlns:xlink="http://www.w3.org/1999/xlink">
    <!-- Generator: Sketch 52.6 (67491) - http://www.bohemiancoding.com/sketch -->
    <title>Ico-Queja-Sugerencia</title>
    <desc>Created with Sketch.</desc>
    <g id="Page-1" stroke="none" stroke-width="1" fill="none" fill-rule="evenodd">
        <g id="PAGINA-NUEVA-WEB-PODER-JUDICIAL-2025-" transform="translate(-766.000000, -1674.000000)" fill="#FFFFFF" fill-rule="nonzero">
            <g id="Footer" transform="translate(0.000000, 1674.000000)">
                <g id="Ico-Mensaje" transform="translate(766.000000, 0.000000)">
                    <g id="Ico-Queja-Sugerencia">
                        <path d="M22.720372,17.25 L15.6998249,9.29337991 L13.3779033,10.6478342 C13.1443814,10.7840553 12.8556186,10.7840553 12.6220967,10.6478342 L9.97007805,9.10082328 L2.779628,17.25 L22.720372,17.25 Z M24.25,16.9960185 L24.25,4.30577775 L17.0204987,8.52298682 L24.0623784,16.5037838 C24.1873188,16.6453829 24.2491422,16.8209345 24.25,16.9960185 Z M1.75,16.1497549 L8.64940418,8.33043019 L1.75,4.30577775 L1.75,16.1497549 Z M1.75,2.56922225 L13,9.13172225 L24.25,2.56922225 L24.25,2 C24.25,1.86192881 24.1380712,1.75 24,1.75 L2,1.75 C1.86192881,1.75 1.75,1.86192881 1.75,2 L1.75,2.56922225 Z M25.75,2.98577155 C25.750163,2.9947965 25.7501626,3.00381527 25.75,3.01282337 L25.75,17 C25.75,17.9664983 24.9664983,18.75 24,18.75 L2,18.75 C1.03350169,18.75 0.25,17.9664983 0.25,17 L0.25,3.01282376 C0.249837412,3.00381527 0.249837022,2.9947965 0.25,2.98577155 L0.25,2 C0.25,1.03350169 1.03350169,0.25 2,0.25 L24,0.25 C24.9664983,0.25 25.75,1.03350169 25.75,2 L25.75,2.98576706 Z"></path>
                    </g>
                </g>
            </g>
        </g>
    </g>
</svg>