<?xml version="1.0" encoding="UTF-8"?>
<svg width="31px" height="31px" viewBox="0 0 31 31" version="1.1" xmlns="http://www.w3.org/2000/svg" xmlns:xlink="http://www.w3.org/1999/xlink">
    <!-- Generator: Sketch 52.6 (67491) - http://www.bohemiancoding.com/sketch -->
    <title>ico-telefono</title>
    <desc>Created with Sketch.</desc>
    <g id="Page-1" stroke="none" stroke-width="1" fill="none" fill-rule="evenodd">
        <g id="PAGINA-NUEVA-WEB-PODER-JUDICIAL-2025-" transform="translate(-635.000000, -1706.000000)" fill="#FFFDFA">
            <g id="Footer" transform="translate(179.000000, 1676.000000)">
                <g id="ico-telefono" transform="translate(456.000000, 30.000000)">
                    <g id="Group-5">
                        <path d="M15.5,1.14814815 C7.5865037,1.14814815 1.14814815,7.5865037 1.14814815,15.5 C1.14814815,23.4137259 7.5865037,29.8518519 15.5,29.8518519 C23.4137259,29.8518519 29.8518519,23.4137259 29.8518519,15.5 C29.8518519,7.5865037 23.4137259,1.14814815 15.5,1.14814815 M15.5,31 C6.95318519,31 0,24.0468148 0,15.5 C0,6.95318519 6.95318519,0 15.5,0 C24.0468148,0 31,6.95318519 31,15.5 C31,24.0468148 24.0468148,31 15.5,31" id="Fill-1"></path>
                        <path d="M21.5576067,17.013443 C20.9667696,16.4299541 20.2291993,16.4299541 19.6420363,17.013443 C19.1940289,17.4577763 18.7462511,17.90188 18.3062807,18.3533319 C18.1854956,18.4773319 18.0837696,18.5037393 17.9370363,18.4210726 C17.6474733,18.2630874 17.3388511,18.1351837 17.06054,17.9618133 C15.7619844,17.1447911 14.6742289,16.0953837 13.710703,14.9132504 C13.233303,14.3265467 12.8075696,13.6975911 12.5104289,12.9905615 C12.4500363,12.8475022 12.4612881,12.7531244 12.5781696,12.6364726 C13.0257178,12.2038504 13.4622437,11.759517 13.9026733,11.3158726 C14.5162437,10.6986281 14.5162437,9.97575407 13.8987696,9.35483556 C13.5485844,9.0009763 13.1986289,8.65492444 12.848903,8.30083556 C12.4874659,7.93962815 12.1299326,7.57451704 11.7648215,7.21721333 C11.1737548,6.64130222 10.4364141,6.64130222 9.84925111,7.22111704 C9.39779926,7.66522074 8.96471778,8.1205763 8.50591778,8.55687259 C8.08018444,8.95964296 7.86616963,9.45265778 7.82093259,10.0285689 C7.74928815,10.9652281 7.97891778,11.8502207 8.30292519,12.7117911 C8.96471778,14.4955541 9.97371037,16.0806874 11.1967178,17.5328652 C12.8491326,19.497117 14.8209622,21.0517096 17.1282807,22.1732207 C18.1666659,22.677717 19.2431696,23.0653319 20.4140511,23.1293985 C21.2191326,23.1741763 21.919503,22.9714133 22.4797993,22.3426874 C22.8639696,21.9135096 23.2968215,21.5222207 23.7032659,21.1123319 C24.3051252,20.5022059 24.3090289,19.7644059 23.7106141,19.1625467 C22.9953178,18.4438059 22.2761178,17.7285096 21.5576067,17.013443" id="Fill-3"></path>
                    </g>
                </g>
            </g>
        </g>
    </g>
</svg>