<?xml version="1.0" encoding="UTF-8"?>
<svg width="1024px" height="165px" viewBox="0 0 1024 165" version="1.1" xmlns="http://www.w3.org/2000/svg" xmlns:xlink="http://www.w3.org/1999/xlink">
    <!-- Generator: Sketch 52.6 (67491) - http://www.bohemiancoding.com/sketch -->
    <title>FONDO MENU-HEADER</title>
    <desc>Created with Sketch.</desc>
    <defs>
        <polygon id="path-1" points="0.445564878 0.999 10.4634818 0.999 10.4634818 29.7532 0.445564878 29.7532"></polygon>
    </defs>
    <g id="Page-1" stroke="none" stroke-width="1" fill="none" fill-rule="evenodd">
        <g id="PAGINA-NUEVA-WEB-PODER-JUDICIAL-2025-" transform="translate(0.000000, -1.000000)">
            <g id="HEADER" transform="translate(0.000000, -2.000000)">
                <g id="FONDO-MENU-HEADER" transform="translate(0.000000, 2.000000)">
                    <g>
                        <path d="M60.0744336,86.1377 L81.2797253,107.3637 L102.484018,86.1377 L81.2797253,64.9117 L60.0744336,86.1377 Z M81.2797253,126.4217 L41.0320297,86.1377 L81.2797253,45.8537 L121.526422,86.1377 L81.2797253,126.4217 Z" id="Fill-1" fill="#F4F4F4"></path>
                        <polygon id="Fill-2" fill="#F4F4F4" points="85.2359618 81.6836 85.2359618 71.8236 81.2798252 71.8236 77.3246876 71.8236 77.3246876 81.6836 67.47131 81.6836 67.47131 89.6036 77.3246876 89.6036 77.3246876 99.4656 85.2359618 99.4656 85.2359618 89.6036 95.0873413 89.6036 95.0873413 81.6836"></polygon>
                        <path d="M126.088167,0.9997 L86.5058217,40.6207 L126.75052,80.9057 L160.865205,46.7587 L136.200292,22.0697 L116.984058,41.3047 L126.50476,50.8357 L136.200292,41.1297 L141.824799,46.7587 L126.75052,61.8457 L105.545228,40.6207 L135.952534,10.1867 L173.09726,47.3657 L81.2799251,139.2717 L0.445864585,58.3597 L0.445864585,77.4187 L81.2799251,158.3327 L192.136667,47.3657 L145.816901,0.9997 L126.088167,0.9997 Z M16.7419504,0.9997 L0.445864585,17.3117 L0.445864585,36.3717 L26.6063173,10.1867 L57.0126236,40.6207 L35.8073319,61.8457 L20.7340519,46.7587 L26.3585592,41.1297 L36.0520929,50.8357 L45.5737943,41.3047 L26.3585592,22.0697 L1.69364605,46.7587 L35.8073319,80.9057 L76.0540285,40.6207 L36.4706841,0.9997 L16.7419504,0.9997 Z" id="Fill-3" fill="#F4F4F4"></path>
                        <polygon id="Fill-4" fill="#F4F4F4" points="195.902289 140.666 183.904006 152.677 171.904724 140.666 183.904006 128.655"></polygon>
                        <path d="M84.7484379,166.0003 L103.849784,166.0003 L172.686561,97.5473 L211.399755,136.8493 L184.14637,164.3303 L160.260695,140.5653 L182.084383,118.7423 L172.569675,109.2093 L141.188321,140.5893 L166.728379,166.0003 L201.458463,166.0003 L230.337261,136.8813 L175.941382,81.6603 L175.8205,81.7783 L172.651595,78.5863 L84.7484379,166.0003 Z M0.445764683,108.5293 L58.2383266,166.0003 L77.3376749,166.0003 L0.445764683,89.5343 L0.445764683,108.5293 Z M0.445764683,139.1823 L1.82841444,140.5653 L0.445764683,141.9413 L0.445764683,160.9393 L20.89979,140.5893 L0.445764683,120.1373 L0.445764683,139.1823 Z" id="Fill-5" fill="#F4F4F4"></path>
                        <path d="M923.11502,86.1377 L944.321311,107.3637 L965.525604,86.1377 L944.321311,64.9117 L923.11502,86.1377 Z M944.321311,126.4217 L904.073616,86.1377 L944.321311,45.8537 L984.567009,86.1377 L944.321311,126.4217 Z" id="Fill-6" fill="#F4F4F4"></path>
                        <polygon id="Fill-7" fill="#F4F4F4" points="948.276948 81.6836 948.276948 71.8236 944.320812 71.8236 940.364675 71.8236 940.364675 81.6836 930.512297 81.6836 930.512297 89.6036 940.364675 89.6036 940.364675 99.4656 948.276948 99.4656 948.276948 89.6036 958.127329 89.6036 958.127329 81.6836"></polygon>
                        <path d="M989.129253,0.9997 L949.546908,40.6207 L989.791607,80.9057 L1023.44574,47.2187 L1023.44574,46.2977 L999.241378,22.0697 L980.025144,41.3047 L989.545847,50.8357 L999.241378,41.1297 L1004.86589,46.7587 L989.791607,61.8457 L968.586315,40.6207 L998.99362,10.1867 L1023.44574,34.6617 L1023.44574,15.6027 L1008.85799,0.9997 L989.129253,0.9997 Z M879.783037,0.9997 L833.463271,47.3657 L944.321012,158.3327 L1023.44574,79.1287 L1023.44574,60.0697 L944.321012,139.2717 L852.503677,47.3657 L889.647404,10.1867 L920.05371,40.6207 L898.847419,61.8457 L883.775138,46.7587 L889.399646,41.1297 L899.093179,50.8357 L908.614881,41.3047 L889.399646,22.0697 L864.733733,46.7587 L898.847419,80.9057 L939.094116,40.6207 L899.511771,0.9997 L879.783037,0.9997 Z" id="Fill-8" fill="#F4F4F4"></path>
                        <path d="M849.306999,81.7783 L849.187116,81.6603 L794.793235,136.8813 L823.671034,166.0003 L858.401118,166.0003 L883.941176,140.5883 L852.558823,109.2093 L843.045114,118.7423 L864.869801,140.5653 L840.984126,164.3303 L813.729742,136.8493 L852.443935,97.5473 L921.278714,166.0003 L940.379061,166.0003 L852.476903,78.5863 L849.306999,81.7783 Z M947.789824,166.0003 L966.890171,166.0003 L1023.44594,109.7593 L1023.44594,90.7643 L947.789824,166.0003 Z M1004.22971,140.5883 L1023.44594,159.7083 L1023.44594,140.7093 L1023.30108,140.5653 L1023.44594,140.4203 L1023.44594,121.3733 L1004.22971,140.5883 Z" id="Fill-9" fill="#F4F4F4"></path>
                        <polygon id="Fill-10" fill="#F4F4F4" points="829.228207 140.666 841.22649 152.677 853.225772 140.666 841.22649 128.655"></polygon>
                        <path d="M493.838336,86.1377 L515.043628,107.3637 L536.248919,86.1377 L515.043628,64.9117 L493.838336,86.1377 Z M515.043628,126.4217 L474.796931,86.1377 L515.043628,45.8537 L555.290324,86.1377 L515.043628,126.4217 Z" id="Fill-11" fill="#F4F4F4"></path>
                        <polygon id="Fill-12" fill="#F4F4F4" points="519.000264 81.6836 519.000264 71.8236 515.044127 71.8236 511.087991 71.8236 511.087991 81.6836 501.235612 81.6836 501.235612 89.6036 511.087991 89.6036 511.087991 99.4656 519.000264 99.4656 519.000264 89.6036 528.850644 89.6036 528.850644 81.6836"></polygon>
                        <polygon id="Fill-13" fill="#F4F4F4" points="559.853168 0.9997 520.269824 40.6207 560.514523 80.9057 594.629207 46.7587 569.965293 22.0697 550.74806 41.3047 560.268763 50.8357 569.965293 41.1297 575.589801 46.7587 560.514523 61.8457 539.309231 40.6207 569.717535 10.1867 606.860263 47.3657 515.043927 139.2717 423.225594 47.3657 460.37032 10.1867 490.776626 40.6207 469.571334 61.8457 454.498054 46.7587 460.122562 41.1297 469.816095 50.8357 479.336798 41.3047 460.122562 22.0697 435.458647 46.7587 469.571334 80.9057 509.817032 40.6207 470.234686 0.9997 450.505953 0.9997 404.186187 47.3657 515.043927 158.3327 625.901668 47.3657 579.581902 0.9997"></polygon>
                        <polygon id="Fill-14" fill="#F4F4F4" points="629.666192 140.666 617.667909 152.677 605.668627 140.666 617.667909 128.655"></polygon>
                        <path d="M518.51284,166.0003 L537.614186,166.0003 L606.449964,97.5473 L645.164157,136.8493 L617.909772,164.3303 L594.024098,140.5653 L615.848785,118.7423 L606.334077,109.2093 L574.952723,140.5893 L600.492781,166.0003 L635.222865,166.0003 L664.101663,136.8813 L609.705784,81.6603 L609.584902,81.7783 L606.415997,78.5863 L518.51284,166.0003 Z M420.030014,81.7783 L419.910132,81.6603 L365.515252,136.8813 L394.39405,166.0003 L429.124133,166.0003 L454.664192,140.5893 L423.281839,109.2093 L413.76813,118.7423 L435.592816,140.5653 L411.707142,164.3303 L384.452758,136.8493 L423.165952,97.5473 L492.00173,166.0003 L511.102077,166.0003 L423.200918,78.5863 L420.030014,81.7783 Z" id="Fill-15" fill="#F4F4F4"></path>
                        <polygon id="Fill-16" fill="#F4F4F4" points="399.951023 140.666 411.949306 152.677 423.948588 140.666 411.949306 128.655"></polygon>
                        <polygon id="Fill-17" fill="#F4F4F4" points="298.03555 0.9997 299.657965 2.6237 301.279382 0.9997"></polygon>
                        <polygon id="Fill-18" fill="#F4F4F4" points="292.53632 92.349 305.999173 92.349 305.999173 24.238 292.53632 24.238"></polygon>
                        <polygon id="Fill-19" fill="#F4F4F4" points="248.08473 132.377 349.836363 132.377 349.836363 118.901 248.08473 118.901"></polygon>
                        <polygon id="Fill-20" fill="#F4F4F4" points="276.709776 112.362 321.20832 112.362 321.20832 98.885 276.709776 98.885"></polygon>
                        <path d="M410.082729,0.9997 L402.523111,8.6217 L394.862592,0.9997 L375.768239,0.9997 L402.587049,27.6837 L429.051205,0.9997 L410.082729,0.9997 Z M312.470053,0.9997 L299.420797,13.9757 L286.372539,0.9997 L267.272192,0.9997 L296.185956,29.7537 L299.420797,26.4887 L302.656637,29.7537 L331.572399,0.9997 L312.470053,0.9997 Z M203.981999,0.9997 L196.320481,8.6217 L188.760863,0.9997 L169.793386,0.9997 L196.256543,27.6837 L223.076352,0.9997 L203.981999,0.9997 Z" id="Fill-21" fill="#F4F4F4"></path>
                        <g id="Group-24">
                            <mask id="mask-2" fill="white">
                                <use xlink:href="#path-1"></use>
                            </mask>
                            <g id="Clip-23"></g>
                            <polygon id="Fill-22" fill="#F4F4F4" mask="url(#mask-2)" points="-43.9323973 -74.0488 -44.0532792 -73.9308 -47.2211856 -77.1228 -138.829724 13.9762 -230.437264 -77.1228 -233.607168 -73.9308 -233.727051 -74.0488 -288.121931 -18.8268 -241.993978 27.6832 -198.97299 -15.1198 -230.355344 -46.4998 -239.870052 -36.9658 -218.044366 -15.1428 -241.931039 8.6212 -269.184425 -18.8588 -230.47123 -58.1618 -142.065564 29.7532 -138.829724 26.4882 -135.593884 29.7532 -47.1872187 -58.1618 -8.47402459 -18.8588 -35.72741 8.6212 -59.6130841 -15.1428 -37.7883973 -36.9658 -47.3041046 -46.4998 -78.6854587 -15.1198 -35.6644714 27.6832 10.4634818 -18.8268"></polygon>
                        </g>
                        <polygon id="Fill-25" fill="#F4F4F4" points="725.817094 0.9997 727.43951 2.6237 729.060926 0.9997"></polygon>
                        <polygon id="Fill-26" fill="#F4F4F4" points="720.317565 92.349 733.780418 92.349 733.780418 24.238 720.317565 24.238"></polygon>
                        <polygon id="Fill-27" fill="#F4F4F4" points="675.865975 132.377 777.617608 132.377 777.617608 118.901 675.865975 118.901"></polygon>
                        <polygon id="Fill-28" fill="#F4F4F4" points="704.49202 112.362 748.989565 112.362 748.989565 98.885 704.49202 98.885"></polygon>
                        <path d="M837.864273,0.9997 L830.304656,8.6217 L822.644137,0.9997 L803.548784,0.9997 L830.368593,27.6837 L856.832749,0.9997 L837.864273,0.9997 Z M740.251598,0.9997 L727.202341,13.9757 L714.154084,0.9997 L695.052738,0.9997 L723.966501,29.7537 L727.202341,26.4887 L730.438181,29.7537 L759.351945,0.9997 L740.251598,0.9997 Z M631.763543,0.9997 L624.102025,8.6217 L616.542408,0.9997 L597.573932,0.9997 L624.038088,27.6837 L650.857897,0.9997 L631.763543,0.9997 Z" id="Fill-29" fill="#F4F4F4"></path>
                        <path d="M335.183872,166.0003 L354.227275,166.0003 L354.331173,165.8963 L354.436071,166.0003 L373.477476,166.0003 L354.331173,146.8353 L335.183872,166.0003 Z M225.837655,166.0003 L244.87906,166.0003 L244.983958,165.8963 L245.087856,166.0003 L264.131259,166.0003 L244.983958,146.8353 L225.837655,166.0003 Z" id="Fill-30" fill="#F4F4F4"></path>
                        <path d="M762.964517,166.0003 L782.00792,166.0003 L782.111819,165.8963 L782.216716,166.0003 L801.258121,166.0003 L782.111819,146.8353 L762.964517,166.0003 Z M653.618301,166.0003 L672.659706,166.0003 L672.764603,165.8963 L672.868502,166.0003 L691.911905,166.0003 L672.764603,146.8353 L653.618301,166.0003 Z" id="Fill-31" fill="#F4F4F4"></path>
                    </g>
                </g>
            </g>
        </g>
    </g>
</svg>