<svg xmlns="http://www.w3.org/2000/svg" viewBox="0 0 204 57.28"><defs><style>.cls-1{fill:#d12874;}.cls-1,.cls-2,.cls-4{fill-rule:evenodd;}.cls-2{fill:#3f9081;}.cls-3{fill:none;}.cls-4{fill:#3f9182;}</style></defs><title>Greca-header_2025-</title><g id="Capa_2" data-name="Capa 2"><g id="Capa_3" data-name="Capa 3"><g id="Page-1"><g id="Greca-header_1" data-name="Greca-header 1"><polygon id="Path" class="cls-1" points="90.49 48.36 96.46 54.33 102.41 48.38 108.37 54.33 114.34 48.36 102.41 36.44 90.49 48.36"/><polygon id="Path-2" data-name="Path" class="cls-2" points="72.35 48.36 78.32 54.33 102.42 30.25 126.51 54.33 132.48 48.36 102.42 18.31 72.35 48.36"/><polygon id="Path-3" data-name="Path" class="cls-2" points="204.6 18.97 174.54 49.03 180.51 55 204.6 30.91 204.6 18.97"/><polygon id="Path-4" data-name="Path" class="cls-2" points="204.6 37.1 192.67 49.03 198.64 55 204.6 49.04 204.6 37.1"/><polygon id="Path-5" data-name="Path" class="cls-3" points="175.06 0.12 168.84 0.12 153.94 15.02 139.04 0.12 132.85 0.12 153.94 21.23 175.06 0.12"/><polygon id="Path-6" data-name="Path" class="cls-3" points="156.9 0.12 150.98 0.12 153.94 3.08 156.9 0.12"/><polygon id="Path-7" data-name="Path" class="cls-3" points="72.41 0.12 66.21 0.12 51.3 15.02 36.4 0.12 30.2 0.12 51.3 21.23 72.41 0.12"/><polygon id="Path-8" data-name="Path" class="cls-3" points="54.27 0.12 48.34 0.12 51.3 3.08 54.27 0.12"/><polygon id="Path-9" data-name="Path" class="cls-2" points="153.94 21.23 132.85 0.12 120.91 0.12 153.94 33.16 187 0.12 175.06 0.12 153.94 21.23"/><polygon id="Path-10" data-name="Path" class="cls-1" points="51.3 21.23 30.2 0.12 18.26 0.12 51.3 33.16 84.35 0.12 72.41 0.12 51.3 21.23"/><polygon id="Path-11" data-name="Path" class="cls-1" points="168.84 0.12 156.9 0.12 153.94 3.08 150.98 0.12 139.04 0.12 153.94 15.02 168.84 0.12"/><polygon id="Path-12" data-name="Path" class="cls-4" points="66.21 0.12 54.27 0.12 51.3 3.08 48.34 0.12 36.4 0.12 51.3 15.02 66.21 0.12"/><polygon id="Path-13" data-name="Path" class="cls-3" points="51.13 45.11 96.23 0 6.05 0 6.04 0.01 51.13 45.11"/><polygon id="Path-14" data-name="Path" class="cls-3" points="198.83 0.03 198.81 0 108.61 0 153.93 45.32 198.83 0.03"/><polygon id="Path-15" data-name="Path" class="cls-2" points="0 30.91 24.12 55 30.09 49.03 0 18.97 0 30.91"/><polygon id="Path-16" data-name="Path" class="cls-2" points="0 49.04 5.97 55 11.94 49.03 0 37.1 0 49.04"/><polygon id="Path-17" data-name="Path" class="cls-2" points="198.83 0.03 153.93 45.32 108.61 0 96.23 0 51.13 45.11 6.04 0.01 6.05 0 0 0 0 6.2 51.13 57.05 102.42 5.75 153.95 57.28 204.6 6.21 204.6 0 198.81 0 198.83 0.03"/></g></g></g></g></svg>