<?xml version="1.0" encoding="UTF-8"?>
<svg width="240px" height="70px" viewBox="0 0 240 70" version="1.1" xmlns="http://www.w3.org/2000/svg" xmlns:xlink="http://www.w3.org/1999/xlink">
    <!-- Generator: Sketch 52.6 (67491) - http://www.bohemiancoding.com/sketch -->
    <title>Logo-justicia-c-humanismo</title>
    <desc>Created with Sketch.</desc>
    <defs>
        <polygon id="path-1" points="0.144917647 0.10201005 23.0675294 0.10201005 23.0675294 23.0173367 0.144917647 23.0173367"></polygon>
        <polygon id="path-3" points="0 69.7688945 239.773412 69.7688945 239.773412 -2.84217094e-14 0 -2.84217094e-14"></polygon>
    </defs>
    <g id="Page-1" stroke="none" stroke-width="1" fill="none" fill-rule="evenodd">
        <g id="PAGINA-NUEVA-WEB-PODER-JUDICIAL-2025-" transform="translate(-761.000000, -61.000000)">
            <g id="HEADER" transform="translate(0.000000, -2.000000)">
                <g id="Logos-header" transform="translate(41.000000, 49.000000)">
                    <g id="Logo-justicia-c-humanismo" transform="translate(720.000000, 14.000000)">
                        <g id="Group-48">
                            <path d="M92.6294824,14.5055829 C90.1056,14.7468894 89.8288941,14.988196 89.8288941,17.8824673 L89.8288941,29.8053317 C89.8288941,33.9402563 89.3450118,36.9038241 86.5098353,39.3158342 C85.1958353,40.4530704 83.8476,41.1076935 82.6719529,41.4179447 L82.1880706,40.2807085 C84.0551294,39.4192513 85.0924235,38.0755327 85.4379529,35.9734221 C85.7492471,34.1470905 85.8184235,32.0108593 85.8184235,29.3230704 L85.8184235,17.8824673 C85.8184235,14.988196 85.5071294,14.7468894 82.8103059,14.5055829 L82.8103059,13.4028191 L92.6294824,13.4028191 L92.6294824,14.5055829 Z" id="Fill-1" fill="#1D1D1B"></path>
                            <path d="M120.219388,14.5055829 C118.248565,14.6434724 117.4188,15.2636231 117.280447,16.5387487 C117.107506,17.5725678 117.004094,18.9162864 117.004094,21.6040754 L117.004094,25.0154322 C117.004094,28.8404573 116.416094,31.7695528 114.445271,33.837191 C112.854918,35.4566884 110.538565,36.2836734 108.118094,36.2836734 C105.940094,36.2836734 103.830918,35.8010603 102.240565,34.5607588 C100.235153,33.0098543 99.3016235,30.4599548 99.3016235,26.4284472 L99.3016235,18.1237739 C99.3016235,14.9537236 98.9906824,14.7468894 96.3626824,14.5055829 L96.3626824,13.4028191 L106.216447,13.4028191 L106.216447,14.5055829 C103.623741,14.7124171 103.312447,14.9537236 103.312447,18.1237739 L103.312447,25.7393518 C103.312447,31.0456332 105.283271,34.1126181 109.259153,34.1126181 C113.684682,34.1126181 115.3788,30.6323166 115.3788,24.8778945 L115.3788,21.6040754 C115.3788,18.9162864 115.2408,17.5380955 115.067506,16.5042764 C114.894918,15.2636231 114.099741,14.6779447 111.713859,14.5055829 L111.713859,13.4028191 L120.219388,13.4028191 L120.219388,14.5055829 Z" id="Fill-3" fill="#1D1D1B"></path>
                            <path d="M136.053318,18.8474472 C135.396494,16.676392 134.220847,14.1954372 131.351082,14.1954372 C129.138494,14.1954372 127.789906,15.7804623 127.789906,17.7102111 C127.789906,19.846794 129.207671,20.9840302 132.146259,22.4656382 C135.431082,24.0851357 138.197082,25.9114673 138.197082,29.4951859 C138.197082,33.3202111 134.946847,36.3178995 130.037435,36.3178995 C128.723435,36.3178995 127.547788,36.1114171 126.614259,35.8356382 C125.680729,35.5253869 125.058494,35.2844322 124.643435,35.077598 C124.332494,34.2506131 123.8832,31.3559899 123.641082,29.4262412 L124.816729,29.0815176 C125.438965,31.2525729 127.306024,34.9741809 130.694259,34.9741809 C133.010612,34.9741809 134.428376,33.4581005 134.428376,31.1491558 C134.428376,28.9439799 132.768494,27.6688543 130.175435,26.2906633 C127.098494,24.7397588 124.263318,22.9137789 124.263318,19.3986533 C124.263318,15.7804623 127.133082,12.886191 131.904494,12.886191 C133.874965,12.886191 135.672847,13.437397 136.537553,13.7476482 C136.675553,14.9879497 136.883082,16.4354372 137.194024,18.6061407 L136.053318,18.8474472 Z" id="Fill-5" fill="#1D1D1B"></path>
                            <path d="M160.600482,19.0886834 C160.185424,17.3657688 159.770718,16.2974774 159.217659,15.711799 C158.629659,15.0223518 157.869071,14.781397 155.621894,14.781397 L153.754835,14.781397 L153.754835,31.3559196 C153.754835,34.181598 154.065776,34.4573769 157.211894,34.6983317 L157.211894,35.8010955 L146.424953,35.8010955 L146.424953,34.6983317 C149.432718,34.4573769 149.744012,34.2160704 149.744012,31.3559196 L149.744012,14.781397 L148.222835,14.781397 C145.353071,14.781397 144.695894,15.1257688 144.212012,15.7807437 C143.693541,16.3664221 143.313071,17.4691859 142.898365,19.1231558 L141.722718,19.1231558 C141.861071,16.7456181 142.0686,14.3332563 142.137424,12.541397 L142.9326,12.541397 C143.451424,13.3339095 143.901071,13.4028543 144.868835,13.4028543 L158.698835,13.4028543 C159.597776,13.4028543 160.012482,13.1963719 160.600482,12.541397 L161.395659,12.541397 C161.395659,14.0233568 161.5686,16.8831558 161.741188,19.0197387 L160.600482,19.0886834 Z" id="Fill-7" fill="#1D1D1B"></path>
                            <path d="M165.647294,35.8011658 L165.647294,34.698402 C168.309529,34.4570955 168.620471,34.2506131 168.620471,31.3215176 L168.620471,17.8825729 C168.620471,14.9534774 168.309529,14.746995 165.647294,14.5056884 L165.647294,13.4029246 L175.570235,13.4029246 L175.570235,14.5056884 C172.908,14.746995 172.631294,14.9534774 172.631294,17.8825729 L172.631294,31.3215176 C172.631294,34.2506131 172.908,34.4570955 175.570235,34.698402 L175.570235,35.8011658 L165.647294,35.8011658 Z" id="Fill-9" fill="#1D1D1B"></path>
                            <path d="M200.809059,29.9776583 C200.359765,31.6316281 199.460824,34.2504724 198.872824,35.4221809 C197.939294,35.6290151 194.862353,36.3181106 192.476471,36.3181106 C183.487059,36.3181106 179.684118,30.3568543 179.684118,24.8778593 C179.684118,17.7448945 185.181529,12.8860503 193.237059,12.8860503 C196.037647,12.8860503 198.527294,13.6096181 199.460824,13.8164523 C199.771765,15.7117286 200.013882,17.2622814 200.221059,19.2954472 L199.045765,19.5367538 C198.008471,15.6083116 195.553765,14.2990653 192.476471,14.2990653 C187.186588,14.2990653 184.316824,19.0541407 184.316824,24.1884121 C184.316824,30.5633367 187.878,34.8365025 192.787765,34.8365025 C195.899294,34.8365025 197.939294,32.9753467 199.668,29.5298693 L200.809059,29.9776583 Z" id="Fill-11" fill="#1D1D1B"></path>
                            <path d="M204.4734,35.8011658 L204.4734,34.698402 C207.135635,34.4570955 207.446929,34.2506131 207.446929,31.3215176 L207.446929,17.8825729 C207.446929,14.9534774 207.135635,14.746995 204.4734,14.5056884 L204.4734,13.4029246 L214.396341,13.4029246 L214.396341,14.5056884 C211.734106,14.746995 211.4574,14.9534774 211.4574,17.8825729 L211.4574,31.3215176 C211.4574,34.2506131 211.734106,34.4570955 214.396341,34.698402 L214.396341,35.8011658 L204.4734,35.8011658 Z" id="Fill-13" fill="#1D1D1B"></path>
                            <g id="Group-17" transform="translate(216.705882, 12.783970)">
                                <mask id="mask-2" fill="white">
                                    <use xlink:href="#path-1"></use>
                                </mask>
                                <g id="Clip-16"></g>
                                <path d="M10.5863294,5.75336683 L10.5171529,5.75336683 C9.47985882,8.40668342 8.54632941,11.0944724 7.57821176,13.6788442 L13.3523294,13.6788442 L10.5863294,5.75336683 Z M13.6978588,23.0173367 L13.6978588,21.9145729 C15.7724471,21.6043216 16.0145647,21.2254774 15.4957412,19.7779899 C15.1156235,18.6407538 14.5276235,17.0212563 13.9053882,15.3672864 L7.02515294,15.3672864 C6.57550588,16.6079397 6.09162353,17.9516583 5.67656471,19.330201 C5.08891765,21.191005 5.26185882,21.6043216 7.78574118,21.9145729 L7.78574118,23.0173367 L0.144917647,23.0173367 L0.144917647,21.9145729 C2.39209412,21.638794 2.84174118,21.2940704 4.01703529,18.3308543 L11.1393882,0.515678392 L12.6605647,0.10201005 C14.8389176,6.09773869 17.0172706,12.3006533 19.2644471,18.2274372 C20.4055059,21.2599497 20.8548,21.6732663 23.0677412,21.9145729 L23.0677412,23.0173367 L13.6978588,23.0173367 Z" id="Fill-15" fill="#1D1D1B" mask="url(#mask-2)"></path>
                            </g>
                            <path d="M89.8543765,51.0040754 C89.9295529,51.0040754 89.9980235,51.0346784 90.0597882,51.0958844 L90.5973176,51.6812111 C90.1822588,52.1610101 89.6782588,52.5349296 89.0863765,52.8029698 C88.4941412,53.0710101 87.7804941,53.2050302 86.9450824,53.2050302 C86.2134353,53.2050302 85.5506118,53.0794523 84.9559059,52.827593 C84.3615529,52.5760854 83.8540235,52.2236231 83.4340235,51.7695025 C83.0140235,51.3157337 82.6886118,50.7712111 82.4574353,50.1362864 C82.2259059,49.5013618 82.1104941,48.8031206 82.1104941,48.0412111 C82.1104941,47.2793015 82.2343765,46.5807085 82.4821412,45.9457839 C82.7299059,45.3108593 83.0779059,44.7652814 83.5261412,44.3090503 C83.9743765,43.8531709 84.5112,43.4989497 85.1366118,43.2474422 C85.7616706,42.9959347 86.4516706,42.870005 87.2069647,42.870005 C87.9523765,42.870005 88.5954353,42.9853819 89.1357882,43.2157839 C89.6761412,43.4461859 90.1561412,43.7588995 90.5761412,44.1539246 L90.1303765,44.7818141 C90.0972,44.8289497 90.0597882,44.8676432 90.0170824,44.8982462 C89.9747294,44.9288492 89.9133176,44.9439749 89.8328471,44.9439749 C89.7717882,44.9439749 89.7068471,44.9218141 89.6383765,44.8771407 C89.5699059,44.8324673 89.4883765,44.7772412 89.3941412,44.7111106 C89.2999059,44.6453317 89.1890824,44.5749799 89.0613176,44.4997035 C88.9342588,44.4244271 88.7828471,44.3537236 88.6084941,44.2879447 C88.4337882,44.2221658 88.2308471,44.1669397 87.9996706,44.1222663 C87.7684941,44.077593 87.5016706,44.0550804 87.1999059,44.0550804 C86.6570824,44.0550804 86.1604941,44.1482965 85.7097882,44.3336734 C85.2590824,44.5197538 84.8708471,44.7842764 84.5454353,45.127593 C84.2200235,45.4709095 83.9659059,45.8895025 83.7844941,46.3833719 C83.6027294,46.8772412 83.5120235,47.4298543 83.5120235,48.0412111 C83.5120235,48.6715628 83.6027294,49.2333216 83.7844941,49.727191 C83.9659059,50.2210603 84.2140235,50.638598 84.5277882,50.9794523 C84.8415529,51.3203065 85.2132,51.5802563 85.6427294,51.7589497 C86.0719059,51.9376432 86.5346118,52.0269899 87.0301412,52.0269899 C87.3319059,52.0269899 87.6033176,52.009402 87.8440235,51.9742261 C88.0847294,51.9386985 88.3077882,51.8834724 88.5128471,51.808196 C88.7182588,51.7332714 88.9092,51.6379447 89.0863765,51.5225678 C89.2632,51.4075427 89.4414353,51.270005 89.6207294,51.1099548 C89.7008471,51.0392513 89.7788471,51.0040754 89.8543765,51.0040754" id="Fill-18" fill="#C92C62"></path>
                            <path d="M102.7512,48.0411055 C102.7512,47.4202513 102.666141,46.8630653 102.496376,46.369196 C102.326259,45.8753266 102.085906,45.4577889 101.774259,45.1169347 C101.462965,44.7760804 101.085318,44.5136683 100.641671,44.330402 C100.198024,44.1467839 99.7024941,44.0553266 99.1554353,44.0553266 C98.6126118,44.0553266 98.1192,44.1467839 97.6759059,44.330402 C97.2322588,44.5136683 96.8535529,44.7760804 96.5397882,45.1169347 C96.2260235,45.4577889 95.9842588,45.8753266 95.8141412,46.369196 C95.6443765,46.8630653 95.5593176,47.4202513 95.5593176,48.0411055 C95.5593176,48.6619598 95.6443765,49.2180905 95.8141412,49.7094975 C95.9842588,50.2009045 96.2260235,50.6173869 96.5397882,50.9582412 C96.8535529,51.2994472 97.2322588,51.5604523 97.6759059,51.7412563 C98.1192,51.9224121 98.6126118,52.0128141 99.1554353,52.0128141 C99.7024941,52.0128141 100.198024,51.9224121 100.641671,51.7412563 C101.085318,51.5604523 101.462965,51.2994472 101.774259,50.9582412 C102.085906,50.6173869 102.326259,50.2009045 102.496376,49.7094975 C102.666141,49.2180905 102.7512,48.6619598 102.7512,48.0411055 M104.159788,48.0411055 C104.159788,48.7984422 104.039435,49.4931658 103.798729,50.1259799 C103.558024,50.7584422 103.218141,51.3029648 102.779435,51.7588442 C102.340376,52.2150754 101.813082,52.5692965 101.197553,52.820804 C100.581671,53.0723116 99.9008471,53.1982412 99.1554353,53.1982412 C98.4096706,53.1982412 97.7299059,53.0723116 97.1168471,52.820804 C96.5030824,52.5692965 95.9772,52.2150754 95.5381412,51.7588442 C95.0994353,51.3029648 94.7595529,50.7584422 94.5188471,50.1259799 C94.2781412,49.4931658 94.1577882,48.7984422 94.1577882,48.0411055 C94.1577882,47.2837688 94.2781412,46.5890452 94.5188471,45.9562312 C94.7595529,45.3237688 95.0994353,44.778191 95.5381412,44.3198492 C95.9772,43.8611558 96.5030824,43.5048241 97.1168471,43.2508543 C97.7299059,42.9968844 98.4096706,42.8698995 99.1554353,42.8698995 C99.9008471,42.8698995 100.581671,42.9968844 101.197553,43.2508543 C101.813082,43.5048241 102.340376,43.8611558 102.779435,44.3198492 C103.218141,44.778191 103.558024,45.3237688 103.798729,45.9562312 C104.039435,46.5890452 104.159788,47.2837688 104.159788,48.0411055" id="Fill-20" fill="#C92C62"></path>
                            <path d="M109.564129,43.0287186 C109.623071,43.0593216 109.690129,43.1215829 109.765659,43.2155025 L115.641071,50.8349497 C115.6266,50.7125377 115.617071,50.593995 115.612482,50.4786181 C115.607894,50.3632412 115.605424,50.2517337 115.605424,50.143392 L115.605424,42.9829899 L116.808953,42.9829899 L116.808953,53.0921859 L116.115424,53.0921859 C116.006365,53.0921859 115.915659,53.0735427 115.8426,53.0359045 C115.769541,52.9982663 115.697541,52.9349497 115.6266,52.8452513 L109.7586,45.233191 C109.768129,45.3510302 109.775188,45.4660553 109.779776,45.5789698 C109.784718,45.6918844 109.786835,45.7953015 109.786835,45.8895729 L109.786835,53.0921859 L108.583659,53.0921859 L108.583659,42.9829899 L109.291659,42.9829899 C109.414129,42.9829899 109.505188,42.9981156 109.564129,43.0287186" id="Fill-22" fill="#C92C62"></path>
                            <polygon id="Fill-24" fill="#C92C62" points="135.680576 53.0923266 133.273871 53.0923266 133.273871 48.7466985 129.0834 48.7466985 129.0834 53.0923266 126.676694 53.0923266 126.676694 42.8135829 129.0834 42.8135829 129.0834 47.1099648 133.273871 47.1099648 133.273871 42.8135829 135.680576 42.8135829"></polygon>
                            <path d="M144.203012,51.2087286 C144.523835,51.2087286 144.810424,51.1556131 145.063129,51.0500854 C145.315482,50.944206 145.529012,50.792598 145.703365,50.5949095 C145.878071,50.3975729 146.011482,50.1566181 146.1036,49.8716935 C146.195718,49.5874724 146.2416,49.2638543 146.2416,48.9018945 L146.2416,42.8136533 L148.634188,42.8136533 L148.634188,48.9018945 C148.634188,49.5322462 148.531482,50.1105377 148.326071,50.6371206 C148.121012,51.1640553 147.827365,51.6178241 147.445129,51.9987789 C147.062894,52.3797337 146.597718,52.6759146 146.050306,52.8876734 C145.502894,53.0994322 144.887012,53.2053116 144.203012,53.2053116 C143.513718,53.2053116 142.895718,53.0994322 142.348306,52.8876734 C141.800894,52.6759146 141.336071,52.3797337 140.953835,51.9987789 C140.5716,51.6178241 140.279012,51.1640553 140.076424,50.6371206 C139.873129,50.1105377 139.771835,49.5322462 139.771835,48.9018945 L139.771835,42.8136533 L142.164424,42.8136533 L142.164424,48.8948593 C142.164424,49.2568191 142.210306,49.5800854 142.302424,49.8646583 C142.394188,50.1495829 142.5276,50.391593 142.702306,50.591392 C142.877012,50.791191 143.090541,50.944206 143.342894,51.0500854 C143.595247,51.1556131 143.881835,51.2087286 144.203012,51.2087286" id="Fill-26" fill="#C92C62"></path>
                            <path d="M158.285506,48.9506482 C158.373035,49.1437638 158.456329,49.3414523 158.5368,49.5437136 C158.616918,49.3365276 158.701976,49.1353216 158.791624,48.9397437 C158.881271,48.7445176 158.973388,48.5549196 159.067624,48.3716533 L161.715035,43.1737136 C161.762329,43.0843668 161.810682,43.0147186 161.860094,42.9654724 C161.909859,42.9158744 161.965271,42.8796432 162.026682,42.8560754 C162.087741,42.8325075 162.157624,42.8205477 162.235271,42.8205477 L162.507741,42.8205477 L164.334212,42.8205477 L164.334212,53.0922563 L162.224682,53.0922563 L162.224682,47.180598 C162.224682,46.8935628 162.2388,46.5833116 162.267035,46.2491407 L159.534918,51.5332613 C159.449859,51.6978844 159.335506,51.822407 159.191506,51.9071809 C159.047506,51.9919548 158.883741,52.0341658 158.699506,52.0341658 L158.374094,52.0341658 C158.189859,52.0341658 158.026094,51.9919548 157.882094,51.9071809 C157.738094,51.822407 157.623741,51.6978844 157.538682,51.5332613 L154.792447,46.2421055 C154.811153,46.4067286 154.825271,46.5702965 154.8348,46.7324573 C154.844329,46.8946181 154.848918,47.0441156 154.848918,47.180598 L154.848918,53.0922563 L152.739741,53.0922563 L152.739741,42.8205477 L154.565859,42.8205477 L154.838329,42.8205477 C154.916329,42.8205477 154.985859,42.8325075 155.047271,42.8560754 C155.108682,42.8796432 155.164094,42.9158744 155.213506,42.9654724 C155.263271,43.0147186 155.311271,43.0843668 155.358565,43.1737136 L158.013035,48.3927588 C158.107271,48.571804 158.197976,48.7575327 158.285506,48.9506482" id="Fill-28" fill="#C92C62"></path>
                            <path d="M171.553906,49.1628643 L174.371082,49.1628643 L173.422376,46.3480905 C173.361318,46.169397 173.289318,45.9590452 173.206729,45.7166834 C173.124141,45.4743216 173.042612,45.2122613 172.962494,44.9301508 C172.886965,45.2168342 172.808965,45.4827638 172.728847,45.7272362 C172.648729,45.9717085 172.5732,46.1834673 172.502612,46.3621608 L171.553906,49.1628643 Z M178.179318,53.0923618 L176.324965,53.0923618 C176.117082,53.0923618 175.945906,53.0441709 175.811435,52.9477889 C175.676965,52.851407 175.583788,52.7279397 175.531906,52.5773869 L174.923082,50.7855276 L171.001906,50.7855276 L170.393082,52.5773869 C170.345788,52.7089447 170.253671,52.8278392 170.117082,52.9337186 C169.980141,53.039598 169.812494,53.0923618 169.614494,53.0923618 L167.745671,53.0923618 L171.737788,42.8136181 L174.186847,42.8136181 L178.179318,53.0923618 Z" id="Fill-30" fill="#C92C62"></path>
                            <path d="M183.084776,42.8276533 C183.155718,42.8371508 183.219247,42.8547387 183.276071,42.8804171 C183.332541,42.9064472 183.386541,42.9430302 183.438424,42.9898141 C183.490306,43.0369497 183.5496,43.1006181 183.6156,43.1804673 L188.513718,49.3534824 C188.495012,49.155794 188.480894,48.9640854 188.471365,48.7783568 C188.461835,48.5926281 188.457247,48.4174523 188.457247,48.2528291 L188.457247,42.8135829 L190.566776,42.8135829 L190.566776,53.0923266 L189.320894,53.0923266 C189.136659,53.0923266 188.981012,53.0641859 188.8536,53.0075528 C188.726188,52.9512714 188.603365,52.8478543 188.485482,52.6973015 L183.622659,46.5735327 C183.636776,46.7525779 183.648776,46.9277538 183.658306,47.0994121 C183.667482,47.2710704 183.672424,47.4321759 183.672424,47.5827286 L183.672424,53.0923266 L181.562894,53.0923266 L181.562894,42.8135829 L182.822894,42.8135829 C182.926659,42.8135829 183.013835,42.8181558 183.084776,42.8276533" id="Fill-32" fill="#C92C62"></path>
                            <mask id="mask-4" fill="white">
                                <use xlink:href="#path-3"></use>
                            </mask>
                            <g id="Clip-35"></g>
                            <polygon id="Fill-34" fill="#C92C62" mask="url(#mask-4)" points="195.026118 53.0923618 197.432824 53.0923618 197.432824 42.8136181 195.026118 42.8136181"></polygon>
                            <path d="M207.639882,44.9017286 C207.568941,45.0146432 207.494824,45.0994171 207.416824,45.1556985 C207.338824,45.2123317 207.238588,45.2404724 207.116118,45.2404724 C207.007412,45.2404724 206.890588,45.2063518 206.765647,45.1381106 C206.640353,45.0698693 206.499176,44.9935377 206.341059,44.9087638 C206.182941,44.8243417 206.002235,44.7476583 205.799647,44.6794171 C205.596353,44.6115276 205.365176,44.577407 205.105765,44.577407 C204.657529,44.577407 204.323647,44.6723819 204.104118,44.8630352 C203.884588,45.0533367 203.775176,45.3108241 203.775176,45.6354975 C203.775176,45.8423317 203.841176,46.0139899 203.973176,46.1504724 C204.105176,46.2869548 204.278824,46.4044422 204.493412,46.5032864 C204.708,46.6017789 204.953647,46.6925327 205.229647,46.7748442 C205.505647,46.8571558 205.787647,46.9489648 206.075647,47.0499196 C206.363294,47.1512261 206.645294,47.2697688 206.921294,47.4062513 C207.197647,47.5427337 207.442588,47.7165025 207.657529,47.9282613 C207.872118,48.1400201 208.045765,48.3975075 208.177765,48.7007236 C208.309765,49.0039397 208.376118,49.3697688 208.376118,49.7978593 C208.376118,50.2727337 208.293529,50.7173568 208.128353,51.1310251 C207.963176,51.5450452 207.723529,51.9059497 207.409765,52.2140905 C207.096,52.5222312 206.709176,52.7642412 206.248941,52.9408241 C205.788706,53.1170553 205.266,53.204995 204.681176,53.204995 C204.360353,53.204995 204.033529,53.1722814 203.700706,53.1065025 C203.367882,53.0407236 203.046,52.9478593 202.734706,52.8275578 C202.423059,52.7079598 202.130471,52.5654975 201.856941,52.4008744 C201.583059,52.2362513 201.344824,52.0529849 201.141882,51.8507236 L201.849529,50.736 C201.901412,50.6512261 201.974824,50.5833367 202.069059,50.5312764 C202.163294,50.4795678 202.264941,50.4538894 202.373647,50.4538894 C202.514824,50.4538894 202.657765,50.4985628 202.801765,50.5879095 C202.945765,50.6772563 203.108471,50.7761005 203.290235,50.8840905 C203.471647,50.9924322 203.680588,51.0912764 203.916706,51.1806231 C204.152471,51.2699698 204.430941,51.3146432 204.751765,51.3146432 C205.185882,51.3146432 205.523294,51.2193166 205.764,51.0286633 C206.004706,50.8383618 206.125059,50.536201 206.125059,50.1221809 C206.125059,49.8822814 206.059059,49.687407 205.926706,49.5368543 C205.794706,49.3863015 205.621412,49.2617789 205.406471,49.1629347 C205.191882,49.0640905 204.947647,48.977206 204.674118,48.9019296 C204.400235,48.8266533 204.119294,48.7429347 203.831647,48.6514774 C203.544,48.5596683 203.263059,48.4467538 202.989176,48.3127337 C202.715647,48.1787136 202.471412,48.0021307 202.256824,47.7836884 C202.041882,47.5648945 201.868588,47.2922814 201.736235,46.9651457 C201.604235,46.6383618 201.538235,46.2352462 201.538235,45.7554472 C201.538235,45.3699196 201.616235,44.9935377 201.771882,44.6266533 C201.927529,44.2597688 202.156235,43.9329849 202.458353,43.6459497 C202.760471,43.3592663 203.131059,43.1299196 203.569765,42.9582613 C204.008471,42.786603 204.511059,42.7007739 205.077529,42.7007739 C205.393412,42.7007739 205.701529,42.725397 206.001176,42.7746432 C206.300824,42.8242412 206.585294,42.8970553 206.854235,42.9934372 C207.123176,43.0898191 207.374471,43.205196 207.608118,43.3392161 C207.841765,43.4732362 208.050353,43.6248442 208.234588,43.7940402 L207.639882,44.9017286 Z" id="Fill-36" fill="#C92C62" mask="url(#mask-4)"></path>
                            <path d="M217.659247,48.9506482 C217.746776,49.1437638 217.830071,49.3414523 217.910541,49.5437136 C217.990659,49.3365276 218.075718,49.1353216 218.165365,48.9397437 C218.255012,48.7445176 218.347129,48.5549196 218.441365,48.3716533 L221.088776,43.1737136 C221.136071,43.0843668 221.184424,43.0147186 221.233835,42.9654724 C221.2836,42.9158744 221.339012,42.8796432 221.400424,42.8560754 C221.461482,42.8325075 221.531365,42.8205477 221.609012,42.8205477 L221.881482,42.8205477 L223.707953,42.8205477 L223.707953,53.0922563 L221.598424,53.0922563 L221.598424,47.180598 C221.598424,46.8935628 221.612541,46.5833116 221.640776,46.2491407 L218.908659,51.5332613 C218.8236,51.6978844 218.709247,51.822407 218.565247,51.9071809 C218.421247,51.9919548 218.257482,52.0341658 218.073247,52.0341658 L217.747835,52.0341658 C217.5636,52.0341658 217.399835,51.9919548 217.255835,51.9071809 C217.111835,51.822407 216.997482,51.6978844 216.912424,51.5332613 L214.166188,46.2421055 C214.184894,46.4067286 214.199012,46.5702965 214.208541,46.7324573 C214.218071,46.8946181 214.222659,47.0441156 214.222659,47.180598 L214.222659,53.0922563 L212.113482,53.0922563 L212.113482,42.8205477 L213.9396,42.8205477 L214.212071,42.8205477 C214.290071,42.8205477 214.3596,42.8325075 214.421012,42.8560754 C214.482424,42.8796432 214.537835,42.9158744 214.587247,42.9654724 C214.637012,43.0147186 214.685012,43.0843668 214.732306,43.1737136 L217.386776,48.3927588 C217.481012,48.571804 217.571718,48.7575327 217.659247,48.9506482" id="Fill-37" fill="#C92C62" mask="url(#mask-4)"></path>
                            <path d="M235.684412,47.949402 C235.684412,47.4414623 235.618412,46.9841759 235.486059,46.577191 C235.354059,46.1705578 235.164176,45.8258342 234.916412,45.5437236 C234.668647,45.2616131 234.365471,45.0452814 234.006882,44.8947286 C233.647941,44.7441759 233.239941,44.6688995 232.782176,44.6688995 C232.319471,44.6688995 231.907941,44.7441759 231.546882,44.8947286 C231.185824,45.0452814 230.881588,45.2616131 230.633824,45.5437236 C230.386059,45.8258342 230.196176,46.1705578 230.064176,46.577191 C229.931824,46.9841759 229.865824,47.4414623 229.865824,47.949402 C229.865824,48.4622663 229.931824,48.9220151 230.064176,49.3286482 C230.196176,49.7356332 230.386059,50.080005 230.633824,50.3621156 C230.881588,50.6442261 231.185824,50.8595025 231.546882,51.007593 C231.907941,51.1556834 232.319471,51.2299045 232.782176,51.2299045 C233.239941,51.2299045 233.647941,51.1556834 234.006882,51.007593 C234.365471,50.8595025 234.668647,50.6442261 234.916412,50.3621156 C235.164176,50.080005 235.354059,49.7356332 235.486059,49.3286482 C235.618412,48.9220151 235.684412,48.4622663 235.684412,47.949402 M238.133471,47.949402 C238.133471,48.6926683 238.005,49.3838744 237.747706,50.0233719 C237.490412,50.6632211 237.128294,51.2193518 236.661353,51.6921156 C236.194059,52.1645276 235.631471,52.5349296 234.972882,52.8029698 C234.314647,53.0713618 233.584412,53.2050302 232.782176,53.2050302 C231.979941,53.2050302 231.248647,53.0713618 230.587941,52.8029698 C229.927235,52.5349296 229.362176,52.1645276 228.892412,51.6921156 C228.423,51.2193518 228.059471,50.6632211 227.802529,50.0233719 C227.545235,49.3838744 227.416765,48.6926683 227.416765,47.949402 C227.416765,47.2064874 227.545235,46.5149296 227.802529,45.8754322 C228.059471,45.2359347 228.423,44.6808593 228.892412,44.2105578 C229.362176,43.7402563 229.927235,43.3709095 230.587941,43.1028693 C231.248647,42.8348291 231.979941,42.700809 232.782176,42.700809 C233.584412,42.700809 234.314647,42.8358844 234.972882,43.1063869 C235.631471,43.3768894 236.194059,43.7472915 236.661353,44.217593 C237.128294,44.6878945 237.490412,45.2429698 237.747706,45.8824673 C238.005,46.5219648 238.133471,47.2110603 238.133471,47.949402" id="Fill-38" fill="#C92C62" mask="url(#mask-4)"></path>
                            <path d="M30.2795294,22.3223668 L35.2831765,27.3092513 L40.2868235,22.3223668 L35.2831765,17.3354824 L30.2795294,22.3223668 Z M35.2831765,31.7867889 L25.7865882,22.3223668 L35.2831765,12.8579447 L44.7801176,22.3223668 L35.2831765,31.7867889 Z" id="Fill-39" fill="#009684" mask="url(#mask-4)"></path>
                            <polygon id="Fill-40" fill="#009684" mask="url(#mask-4)" points="36.2168118 21.2759899 36.2168118 18.9593065 35.2832824 18.9593065 34.3497529 18.9593065 34.3497529 21.2759899 32.0252824 21.2759899 32.0252824 23.136794 34.3497529 23.136794 34.3497529 25.4538291 36.2168118 25.4538291 36.2168118 23.136794 38.5412824 23.136794 38.5412824 21.2759899"></polygon>
                            <polygon id="Fill-41" fill="#C92C62" mask="url(#mask-4)" points="35.2832824 39.2839648 9.12504706 13.2133618 22.3822235 -0.000105527638 34.0501059 11.6283367 24.5535176 21.0934623 16.5039882 13.0705477 22.3239882 7.27004523 26.8578706 11.7890905 24.6114 14.0280352 22.3239882 11.7479347 20.9965765 13.0705477 24.5535176 16.6152211 29.5571647 11.6283367 22.3822235 4.47813568 13.6176353 13.2133618 35.2832824 34.8060754 56.9489294 13.2133618 48.1843412 4.47813568 41.0090471 11.6283367 46.0126941 16.6152211 49.5699882 13.0705477 48.2425765 11.7479347 45.9548118 14.0280352 43.7083412 11.7890905 48.2425765 7.27004523 54.0625765 13.0705477 46.0126941 21.0934623 36.5164588 11.6283367 48.1843412 -0.000105527638 61.4418706 13.2133618"></polygon>
                            <polygon id="Fill-42" fill="#009684" mask="url(#mask-4)" points="33.6031765 60.3646231 36.7796471 60.3646231 36.7796471 44.3624121 33.6031765 44.3624121"></polygon>
                            <polygon id="Fill-43" fill="#C92C62" mask="url(#mask-4)" points="23.1141176 69.7688945 47.1236471 69.7688945 47.1236471 66.6027136 23.1141176 66.6027136"></polygon>
                            <polygon id="Fill-44" fill="#C92C62" mask="url(#mask-4)" points="29.8683529 65.0665829 40.3683529 65.0665829 40.3683529 61.900402 29.8683529 61.900402"></polygon>
                            <polygon id="Fill-45" fill="#C92C62" mask="url(#mask-4)" points="62.3303294 35.1335628 59.4990353 37.9553719 56.6677412 35.1335628 59.4990353 32.3117538"></polygon>
                            <polygon id="Fill-46" fill="#009684" mask="url(#mask-4)" points="57.6200824 21.2703266 57.5914941 21.2981156 56.8439647 20.5481658 35.2277294 41.9512814 13.6114941 20.5481658 12.8636118 21.2981156 12.8350235 21.2703266 -3.52941176e-05 34.244598 10.8846706 45.1716332 21.0359647 35.115201 13.6309059 27.7426884 11.3858471 29.9826884 16.5356118 35.1099246 10.8994941 40.693392 4.46855294 34.2368593 13.6037294 25.0028392 34.4643176 45.6581156 35.2277294 44.8909296 35.9911412 45.6581156 56.8520824 25.0028392 65.9872588 34.2368593 59.5559647 40.693392 53.9198471 35.1099246 59.0696118 29.9826884 56.8245529 27.7426884 49.4198471 35.115201 59.5711412 45.1716332 70.4558471 34.244598"></polygon>
                            <polygon id="Fill-47" fill="#C92C62" mask="url(#mask-4)" points="8.12558824 35.1335628 10.9565294 37.9553719 13.7878235 35.1335628 10.9565294 32.3117538"></polygon>
                        </g>
                    </g>
                </g>
            </g>
        </g>
    </g>
</svg>